<svg width="37" height="37" fill="none" xmlns="http://www.w3.org/2000/svg"><rect x="1" y="1" width="35" height="35" rx="17.5" fill="#262123" stroke="#E2A300" stroke-width="2"/><path fill-rule="evenodd" clip-rule="evenodd" d="M28 17.501a9.472 9.472 0 01-3.028 6.954 9.486 9.486 0 01-7.716 2.465 9.438 9.438 0 01-4.853-2.138 9.506 9.506 0 01-3.196-5.312c-.002-.002-.002-.004-.002-.008A9.445 9.445 0 019 17.501a9.45 9.45 0 011.482-5.097c.399-.626.866-1.2 1.396-1.715a9.47 9.47 0 017.239-2.669 9.463 9.463 0 016.034 2.697A9.465 9.465 0 0128 17.501z" fill="url(#paint0_radial_147_4)"/><path fill-rule="evenodd" clip-rule="evenodd" d="M13.484 23.798c-.796 0-2.262-1.161-2.96-2.657-.872-1.867-.878-3.83-.457-4.191.12-.107.284-.159.483-.159.128 0 .275.022.431.068 1.01.293 2.402 1.687 3.004 3.08a4.65 4.65 0 01.249 3.115c-.149.613-.49.744-.75.744z" fill="url(#paint1_linear_147_4)"/><path fill-rule="evenodd" clip-rule="evenodd" d="M14.075 23.015c-.094.383-.282.616-.591.618-.688 0-2.124-1.089-2.81-2.56-.874-1.874-.826-3.716-.499-3.997.164-.143.437-.153.762-.058 1.02.294 2.557 1.61 2.89 2.962.282 1.15.423 2.338.248 3.035z" fill="url(#paint2_linear_147_4)"/><path fill-rule="evenodd" clip-rule="evenodd" d="M10.799 16.168a.319.319 0 01-.263-.11c-.259-.307.12-1.356.287-1.735.268-.608.533-.92.788-.929a.406.406 0 01.269.097h.004l.05.048c.29.29.425.948.162 1.468-.19.375-.786 1.036-1.189 1.144a.406.406 0 01-.108.017z" fill="url(#paint3_linear_147_4)"/><path fill-rule="evenodd" clip-rule="evenodd" d="M11.99 14.942c-.187.367-.782 1.023-1.15 1.121-.091.026-.17.014-.224-.048-.27-.319.512-2.514 1.015-2.53.076-.003.15.034.216.104h.003c.242.24.393.858.14 1.353z" fill="url(#paint4_linear_147_4)"/><path fill-rule="evenodd" clip-rule="evenodd" d="M24.232 23.553c-.319 0-.555-.126-.666-.353-.21-.443-.102-2.057.54-3.483.95-2.12 2.258-2.681 2.815-2.681a.598.598 0 01.167.022c.144.036.27.152.363.345.375.78.16 2.707-.454 4.042-.571 1.242-1.917 2.108-2.765 2.108z" fill="url(#paint5_linear_147_4)"/><path fill-rule="evenodd" clip-rule="evenodd" d="M26.849 21.375c-.754 1.637-2.787 2.473-3.132 1.753-.175-.367-.104-1.911.541-3.345.965-2.154 2.288-2.643 2.75-2.577l.03.006c.65.163.551 2.553-.189 4.163z" fill="url(#paint6_linear_147_4)"/><path fill-rule="evenodd" clip-rule="evenodd" d="M26.712 16.885a.385.385 0 01-.196-.052c-.393-.236-.654-1.78-.383-2.264.074-.134.174-.178.245-.19a.485.485 0 01.094-.01c.443 0 .888.521 1.039 1.213a1.15 1.15 0 01-.335 1.089c-.145.134-.313.214-.463.214z" fill="url(#paint7_linear_147_4)"/><path fill-rule="evenodd" clip-rule="evenodd" d="M27.064 16.549c-.163.152-.347.21-.464.142-.315-.189-.555-1.626-.325-2.041.033-.06.077-.099.13-.109.324-.064.79.365.943 1.077a.974.974 0 01-.284.93z" fill="url(#paint8_linear_147_4)"/><path fill-rule="evenodd" clip-rule="evenodd" d="M19.097 26.88c-.059 0-.119 0-.18-.002-.975-.028-1.72-.444-1.854-.813a.326.326 0 01.088-.366c.307-.271 1.573-.285 1.823-.285.82 0 1.817.08 1.905.463.022.098.018.249-.134.413-.225.249-.535.59-1.648.59z" fill="url(#paint9_linear_147_4)"/><path fill-rule="evenodd" clip-rule="evenodd" d="M20.625 26.178c-.231.255-.522.57-1.705.533-1.149-.034-1.937-.645-1.66-.89.375-.329 3.356-.347 3.459.092.02.086-.012.177-.094.265z" fill="url(#paint10_linear_147_4)"/><path fill-rule="evenodd" clip-rule="evenodd" d="M23.697 17.637c-.636 0-1.123-.302-1.376-.85-.604-1.313-.604-3.886-.162-4.923.11-.263.242-.42.403-.485.16-.066.327-.1.493-.1.561 0 1.143.375 1.682 1.087.885 1.163 1.5 3.054 1.268 3.888-.074.268-.307.555-.656.806-.495.363-1.115.577-1.652.577z" fill="url(#paint11_linear_147_4)"/><path fill-rule="evenodd" clip-rule="evenodd" d="M25.849 16.212c-.067.238-.29.497-.594.715-.83.602-2.264.92-2.783-.208-.588-1.28-.584-3.796-.163-4.789.088-.206.19-.347.313-.397 1.793-.742 3.573 3.43 3.227 4.679z" fill="url(#paint12_linear_147_4)"/><path fill-rule="evenodd" clip-rule="evenodd" d="M14.075 23.015c-.928.331-2.362-.828-3.11-2.72-.66-1.661-.16-2.983-.03-3.277 1.02.294 2.557 1.61 2.89 2.962.285 1.15.425 2.338.25 3.035zm6.55 3.163c-1.968.607-3.363-.357-3.363-.357.375-.329 3.357-.347 3.459.092.018.086-.014.177-.096.265zm5.911-4.949c-1.341 2.19-2.82 1.899-2.82 1.899-.174-.367-.104-1.911.542-3.345.965-2.154 2.288-2.643 2.75-2.577l.03.006c.256.8.465 2.439-.502 4.017zm-1.281-4.302c-.83.602-2.264.92-2.783-.208-.588-1.28-.584-3.796-.163-4.789.371-.05 1.055.075 1.853 1.244 1.097 1.604 1.464 2.837 1.093 3.753zm1.809-.378c-.163.152-.347.21-.464.142-.315-.189-.555-1.626-.325-2.041.25.144.618.44.716.976.064.337.08.658.073.923zM11.99 14.942c-.187.367-.782 1.023-1.15 1.121.025-.146.304-1.849 1.008-2.474h.002c.242.24.393.858.14 1.353z" fill="#FFFF45"/><path opacity=".3" fill-rule="evenodd" clip-rule="evenodd" d="M23.414 19.745a2.752 2.752 0 01-.345.613c-.11.149-.257.261-.345.428-.299.563-.236 1.197-.411 1.788-.094.323-.339.58-.435.907-.042.148-.02.282-.024.435-.006.178-.096.3-.205.439a1.067 1.067 0 01-.457.339c-.144.058-.299.034-.451.034-.341 0-.67-.046-1-.142-.302-.089-.582-.227-.887-.313-.209-.058-.353-.04-.561.004-.179.036-.38.016-.56.014-.319-.006-.622.174-.904.315-.209.104-.347.222-.428.449-.094.259-.09.5-.403.602-.18.06-.403-.005-.58-.04-.161-.035-.338-.015-.504-.015a1.933 1.933 0 01-.915-.246c-.337-.179-.633-.45-.902-.708-.147-.14-.335-.219-.486-.357-.208-.185-.415-.351-.611-.55-.297-.3-.622-.61-.953-.874-.236-.186-.439-.417-.637-.634-.167-.18-.265-.447-.39-.655a5.554 5.554 0 01-.559-1.376c-.138-.54-.295-1.125-.289-1.686.006-.474-.06-.93-.06-1.406-.042.902.004 1.65.09 2.354A9.617 9.617 0 019 17.501a9.45 9.45 0 011.482-5.097c.399-.626.866-1.2 1.396-1.715a9.47 9.47 0 017.239-2.669c1.078.07 2.11.319 3.058.718.244.269.487.555.663.858.073.125.13.263.203.387.064.11.134.17.114.307-.012.08-.068.183-.1.259-.106.254-.401.439-.626.58-.314.198-.681.278-1.016.45-.217.11-.29.211-.436.393-.074.093-.172.165-.236.263a1.84 1.84 0 00-.267 1.013c.024.638.518 1.1.634 1.706.102.522.028 1.077.194 1.59.185.574.69 1.045 1.161 1.378.197.139.39.255.562.421.162.155.389.245.503.437.19.32.012.662-.114.965z" fill="url(#paint13_linear_147_4)"/><path fill-rule="evenodd" clip-rule="evenodd" d="M22.666 8.96c-.032.005-.062.007-.094.015a.599.599 0 01-.297-.02c-.076-.023-.13-.053-.21-.067-.117-.018-.223-.068-.338-.082-.122-.016-.226-.064-.342-.106-.09-.032-.139-.022-.227 0-.088.024-.148-.014-.227-.046-.088-.038-.174-.044-.266-.062-.24-.05-.48-.127-.718-.189-.149-.038-.285-.038-.437-.04-.119-.002-.227.032-.345.032-.078 0-.147-.014-.227-.024-.08-.014-.162.002-.244-.01-.12-.018-.185-.036-.307.002-.09.03-.163.026-.253.032-.096.006-.21.032-.309.054a2.267 2.267 0 01-.555.07c-.113 0-.277-.032-.383.006-.07.024-.105.099-.153.149-.092.096-.206.18-.282.289-.079.106-.165.216-.159.352a1 1 0 00.113.361c.052.115.07.217-.047.293a1.84 1.84 0 01-.485.235c-.112.032-.213.052-.307-.028-.034-.03-.056-.088-.098-.11-.044-.025-.09 0-.138.013-.119.035-.235.075-.355.095-.075.012-.139.05-.21.064-.09.016-.151-.048-.242-.026-.126.03-.254.082-.384.088a.57.57 0 01-.291-.084c-.046-.026-.058-.052-.11-.038a.298.298 0 00-.13.096c-.033.044-.043.102-.075.148-.032.05-.064.1-.094.155a2.09 2.09 0 01-.189.299c-.05.066-.084.154-.138.216-.028.032-.088.056-.124.08-.099.07-.203.133-.3.207-.184.144-.358.305-.547.445-.142.106-.345.17-.507.237-.102.042-.209.07-.31.114-.033.014-.095.028-.123.052-.036.032-.056.088-.088.133-.089.108-.183.216-.251.342a1.116 1.116 0 00-.092.227c-.036.106-.095.207-.13.313-.075.224-.089.457-.171.68-.048.13-.116.248-.177.367-.102.2-.116.439-.146.661-.016.13-.01.281.014.407.024.137.018.28.016.42-.002.148-.096.292-.19.405-.087.104-.217.144-.311.236-.08.078-.179.17-.213.283-.014.05-.002.106-.01.158-.024.117-.052.227-.07.345a3.463 3.463 0 00-.022.433c0 .075-.004.15-.002.225.004.07.03.136.034.209.004.05-.006.098 0 .148.01.056.032.114.044.168.032.133.058.261.082.393.024.123.07.243.109.361.052.163.088.33.118.496.024.124.024.254.042.383.014.102.038.206.042.308.004.155-.032.31-.034.468-.002.262.104.527.165.782.018.07.036.144.056.214A9.529 9.529 0 019 17.501a9.45 9.45 0 011.482-5.097c.399-.626.866-1.2 1.396-1.715a9.47 9.47 0 017.239-2.669c1.267.08 2.466.41 3.549.94z" fill="url(#paint14_linear_147_4)"/><path opacity=".3" fill-rule="evenodd" clip-rule="evenodd" d="M21.832 24.726c.186-.112.367-.23.557-.335.205-.112.407-.188.622-.273.16-.062.176-.066.305.037.118.094.26.114.409.116.202.002.425.018.443.277.026.355-.51.663-.762.806-.204.116-.427.194-.64.29-.18.083-.383.179-.581.205-.173.024-.285-.058-.397-.184-.133-.153-.125-.3-.125-.49.002-.222-.01-.375.169-.449z" fill="url(#paint15_linear_147_4)"/><path opacity=".3" fill-rule="evenodd" clip-rule="evenodd" d="M24.661 11.445c.143.283.245.662.46.896.114.125.202.147.36.145.079 0 .223.03.295.004.102-.036.096-.15.092-.25-.014-.376-.268-.723-.503-.993-.152-.175-.407-.39-.658-.341a.904.904 0 00-.046.54z" fill="url(#paint16_linear_147_4)"/><path fill-rule="evenodd" clip-rule="evenodd" d="M19.431 26.396c-.026.038-.07.07-.032.11.018.02.056.037.083.045.044.012.122.004.158-.024.036-.028.03-.064.008-.099-.044-.066-.098-.076-.168-.046l-.049.014zm-6.21-15.944c-.1.033-.138.043-.239.127-.08.066-.166.126-.242.2a.605.605 0 00-.165.305c-.03.102-.058.219-.018.275.022.03.088.028.139.014a.942.942 0 00.234-.122c.1-.065.19-.159.265-.27.05-.073.082-.16.118-.236.024-.052.034-.098.05-.148a.167.167 0 00.006-.102c-.014-.045-.04-.047-.148-.043zm1.123-.172c-.04.034-.128.096-.058.146.018.014.036.006.056.012.016.005.02.016.038.01.056-.022.034-.184-.03-.15l-.006-.018zm.295.59a.167.167 0 01.08-.022c.006.036.038.104-.012.13-.042.022-.03-.052-.05-.07l-.018-.038zm.575.016l.16.066c.019-.016.043-.012.063-.026a.178.178 0 00.058-.085c.016-.046-.008-.082-.028-.118-.014-.024-.028-.058-.048-.072-.024-.018-.074-.012-.098.002a.219.219 0 00-.077.078.223.223 0 00-.044.108c-.002.039.028.077.056.097l-.042-.05zm.483 10.989l.16.066c.017-.016.043-.012.063-.026a.178.178 0 00.058-.085c.016-.046-.008-.082-.028-.118-.014-.024-.028-.058-.048-.072-.024-.018-.074-.012-.098.002a.218.218 0 00-.076.078.215.215 0 00-.045.108c-.002.038.028.077.057.097l-.043-.05zM13.68 11.4a.202.202 0 00-.056.061c.022.028.032.054.07.064.014.004.03.004.044-.008.016-.016.008-.032.012-.048.01-.036.02-.046 0-.08-.012-.02-.02-.028-.042-.028-.016 0-.048.004-.056.022l.028.018zm.123.851c-.004.01-.046.115.008.084.026-.016.018-.056 0-.068l.002-.01-.01-.006zm-.793 1.45c-.036.046-.04.066-.056.114a.114.114 0 00.066.022c.033-.002.033-.012.035-.042 0-.024.01-.044.004-.066-.006-.024-.03-.048-.058-.034l.01.006zm1.214-2.198c.02.018.034.042.038.07-.028.008-.032-.02-.036-.044-.006-.036.01-.024.026-.052l.01.002-.038.024zm-.281-1.123a.201.201 0 00-.056.06c.014.017.008.049.038.045.022-.002.04-.026.052-.045a.137.137 0 00.016-.062c0-.012 0-.062-.02-.028l-.03.03zm3.637-.581c.008-.026.01-.062.024-.084.004-.007.014-.013.018-.02.017-.023.01-.027.037-.029.03 0 .048.002.072.02.08.065-.123.113-.13.053l-.02.06zm.682.252c-.01.046-.04.109.002.139.036.026.115-.016.143-.042.052-.048.114-.137.066-.203-.028-.038-.11-.068-.159-.064-.096.01-.124.124-.138.216l.086-.046zm.299-.936c-.01-.08-.024-.158.046-.199.038-.022.108-.03.145-.004.026.02.05.057.066.083.024.04.018.04.006.076-.028.084-.048.14-.133.14-.11 0-.128-.086-.128-.192v.096h-.002zm1.023 1.392a.333.333 0 00.156-.095c-.044-.026-.138-.082-.156-.002v.097z" fill="#FFFF45"/><path fill-rule="evenodd" clip-rule="evenodd" d="M16.069 23.142a.332.332 0 00.156-.094c-.044-.026-.138-.083-.156-.002v.096zm6.519 1.365a.333.333 0 00.156-.094c-.044-.026-.138-.082-.156-.002v.096z" fill="#FFC445"/><path fill-rule="evenodd" clip-rule="evenodd" d="M20.372 11.732c.06-.074.146-.209.257-.134.064.042.082.156.02.202-.056.042-.109.054-.17.072-.049.014-.121-.018-.107-.09v-.05z" fill="#FFFF45"/><path fill-rule="evenodd" clip-rule="evenodd" d="M16.149 13.492c.06-.074.146-.208.256-.134.065.042.083.156.02.203-.056.042-.108.054-.17.072-.048.014-.12-.018-.106-.09v-.05zm7.006-3.12c.06-.074.146-.208.257-.134.064.042.082.156.02.202-.056.043-.108.055-.17.073-.049.014-.12-.018-.107-.09v-.05zm-3.926 6.475c.06-.074.146-.208.256-.134.065.042.083.156.02.203-.056.042-.108.054-.17.072-.048.014-.12-.018-.106-.09v-.05z" fill="#FFC445"/><path fill-rule="evenodd" clip-rule="evenodd" d="M15.794 10.848c-.077.048-.207.11-.22.214-.009.064.021.102.077.128a.208.208 0 00.173 0c.07-.036.152-.094.184-.17a.153.153 0 00-.006-.144c-.014-.028-.04-.065-.072-.075-.098-.034-.158.063-.23.107l.094-.06zm.25-.281a.242.242 0 01.107.07c-.042.014-.087.048-.13.032-.057-.02-.067-.072-.055-.126.006-.03.058-.08.088-.068.017.005.019.026.023.04.01.028.011.022-.005.05h-.028v.002zm-4.231 1.763a.751.751 0 00-.204.262c-.022.052.018.056.066.046.092-.018.186-.044.279-.068.054-.014.132-.042.17-.088a.205.205 0 00.034-.14c-.008-.063-.054-.087-.11-.103-.13-.036-.297.05-.343.169l.108-.079zm.062.437a.413.413 0 01.185.048c-.016.02-.012.046-.02.068a.19.19 0 01-.076.088.235.235 0 01-.191.022c-.17-.064.09-.267.148-.196l-.046-.03zm5.433-3.825c.064-.03.12-.07.19-.082.08-.014.153-.028.233-.028.04 0 .132-.004.104.062-.028.073-.182.14-.244.169-.107.05-.205.1-.323.112-.06.006-.16.01-.193-.05-.028-.05-.014-.092.012-.138.028-.049.06-.069.113-.09.024-.01.16-.047.168-.005l-.06.05zm-1.061.033c-.028.02-.244.14-.14.192.056.028.164.02.22-.004.05-.022.1-.054.069-.112-.065-.117-.223-.048-.303.002l.154-.078z" fill="#FFFF45"/><path fill-rule="evenodd" clip-rule="evenodd" d="M13.265 16.841c.016.088.034.187.112.245.08.06.17.036.25-.01.057-.034.111-.07.17-.106.034-.02.062-.026.064-.073.002-.05-.046-.12-.075-.158a.419.419 0 00-.16-.122c-.118-.044-.347 0-.345.162l-.016.062z" fill="#FFD32F"/><path fill-rule="evenodd" clip-rule="evenodd" d="M20.071 16.938c.016.088.034.186.112.244.08.06.17.036.249-.01.058-.034.112-.07.17-.106.035-.02.063-.026.065-.072.002-.05-.047-.12-.075-.159a.419.419 0 00-.16-.122c-.118-.044-.347 0-.345.162l-.016.063z" fill="#FFBA00"/><path fill-rule="evenodd" clip-rule="evenodd" d="M10.364 20.369s-.079.34.162.772c.24.43.413.409.413.409s-.207-.8-.575-1.181zm15.508-4.685s-.278.804-.319.917c0 0 .44-.123.32-.917zm1.496.251s-.192.146-.303.517c0 0 .237.112.303-.517zm-3.064 7.45s.9-.584 1.418-.626c.002.002-.588.724-1.418.626z" fill="#FFFF59"/><defs><linearGradient id="paint1_linear_147_4" x1="9.795" y1="20.295" x2="14.395" y2="20.295" gradientUnits="userSpaceOnUse"><stop offset=".011" stop-color="#FFA90B"/><stop offset=".371" stop-color="#FFA60E"/><stop offset=".635" stop-color="#FF9D16"/><stop offset=".868" stop-color="#FF8D25"/><stop offset="1" stop-color="#FF8031"/></linearGradient><linearGradient id="paint2_linear_147_4" x1="9.958" y1="20.295" x2="14.152" y2="20.295" gradientUnits="userSpaceOnUse"><stop offset=".011" stop-color="#FFE00B"/><stop offset=".306" stop-color="#FFDD0D"/><stop offset=".522" stop-color="#FFD412"/><stop offset=".714" stop-color="#FFC41B"/><stop offset=".889" stop-color="#FFAD27"/><stop offset="1" stop-color="#FF9B31"/></linearGradient><linearGradient id="paint3_linear_147_4" x1="10.419" y1="14.806" x2="12.25" y2="14.748" gradientUnits="userSpaceOnUse"><stop offset=".011" stop-color="#FFA90B"/><stop offset=".371" stop-color="#FFA60E"/><stop offset=".635" stop-color="#FF9D16"/><stop offset=".868" stop-color="#FF8D25"/><stop offset="1" stop-color="#FF8031"/></linearGradient><linearGradient id="paint4_linear_147_4" x1="10.531" y1="14.802" x2="12.133" y2="14.752" gradientUnits="userSpaceOnUse"><stop offset=".011" stop-color="#FFE00B"/><stop offset=".306" stop-color="#FFDD0D"/><stop offset=".522" stop-color="#FFD412"/><stop offset=".714" stop-color="#FFC41B"/><stop offset=".889" stop-color="#FFAD27"/><stop offset="1" stop-color="#FF9B31"/></linearGradient><linearGradient id="paint5_linear_147_4" x1="25.553" y1="23.553" x2="25.553" y2="17.036" gradientUnits="userSpaceOnUse"><stop offset=".011" stop-color="#FF8E0B"/><stop offset=".347" stop-color="#FD8B0D"/><stop offset=".594" stop-color="#F98215"/><stop offset=".811" stop-color="#F17221"/><stop offset="1" stop-color="#E65D31"/></linearGradient><linearGradient id="paint6_linear_147_4" x1="23.634" y1="20.295" x2="27.469" y2="20.295" gradientUnits="userSpaceOnUse"><stop offset=".011" stop-color="#FFE00B"/><stop offset=".306" stop-color="#FFDD0D"/><stop offset=".522" stop-color="#FFD412"/><stop offset=".714" stop-color="#FFC41B"/><stop offset=".889" stop-color="#FFAD27"/><stop offset="1" stop-color="#FF9B31"/></linearGradient><linearGradient id="paint7_linear_147_4" x1="26.78" y1="16.884" x2="26.78" y2="14.369" gradientUnits="userSpaceOnUse"><stop offset=".011" stop-color="#FFA90B"/><stop offset=".371" stop-color="#FFA60E"/><stop offset=".635" stop-color="#FF9D16"/><stop offset=".868" stop-color="#FF8D25"/><stop offset="1" stop-color="#FF8031"/></linearGradient><linearGradient id="paint8_linear_147_4" x1="26.779" y1="16.72" x2="26.779" y2="14.534" gradientUnits="userSpaceOnUse"><stop offset=".011" stop-color="#FFE00B"/><stop offset=".306" stop-color="#FFDD0D"/><stop offset=".522" stop-color="#FFD412"/><stop offset=".714" stop-color="#FFC41B"/><stop offset=".889" stop-color="#FFAD27"/><stop offset="1" stop-color="#FF9B31"/></linearGradient><linearGradient id="paint9_linear_147_4" x1="18.965" y1="26.879" x2="18.965" y2="25.414" gradientUnits="userSpaceOnUse"><stop offset=".011" stop-color="#FFA90B"/><stop offset=".371" stop-color="#FFA60E"/><stop offset=".635" stop-color="#FF9D16"/><stop offset=".868" stop-color="#FF8D25"/><stop offset="1" stop-color="#FF8031"/></linearGradient><linearGradient id="paint10_linear_147_4" x1="18.965" y1="26.715" x2="18.965" y2="25.579" gradientUnits="userSpaceOnUse"><stop offset=".011" stop-color="#FFE00B"/><stop offset=".306" stop-color="#FFDD0D"/><stop offset=".522" stop-color="#FFD412"/><stop offset=".714" stop-color="#FFC41B"/><stop offset=".889" stop-color="#FFAD27"/><stop offset="1" stop-color="#FF9B31"/></linearGradient><linearGradient id="paint11_linear_147_4" x1="23.559" y1="17.636" x2="24.381" y2="11.445" gradientUnits="userSpaceOnUse"><stop offset=".011" stop-color="#FFA90B"/><stop offset=".371" stop-color="#FFA60E"/><stop offset=".635" stop-color="#FF9D16"/><stop offset=".868" stop-color="#FF8D25"/><stop offset="1" stop-color="#FF8031"/></linearGradient><linearGradient id="paint12_linear_147_4" x1="23.58" y1="17.473" x2="24.359" y2="11.609" gradientUnits="userSpaceOnUse"><stop offset=".011" stop-color="#FFE00B"/><stop offset=".306" stop-color="#FFDD0D"/><stop offset=".522" stop-color="#FFD412"/><stop offset=".714" stop-color="#FFC41B"/><stop offset=".889" stop-color="#FFAD27"/><stop offset="1" stop-color="#FF9B31"/></linearGradient><linearGradient id="paint13_linear_147_4" x1="9" y1="16.839" x2="23.611" y2="16.839" gradientUnits="userSpaceOnUse"><stop offset=".011" stop-color="#FFE00B"/><stop offset=".306" stop-color="#FFDD0D"/><stop offset=".522" stop-color="#FFD412"/><stop offset=".714" stop-color="#FFC41B"/><stop offset=".889" stop-color="#FFAD27"/><stop offset="1" stop-color="#FF9B31"/></linearGradient><linearGradient id="paint14_linear_147_4" x1="9" y1="14.894" x2="22.666" y2="14.894" gradientUnits="userSpaceOnUse"><stop offset=".011" stop-color="#FFE00B"/><stop offset=".306" stop-color="#FFDD0D"/><stop offset=".522" stop-color="#FFD412"/><stop offset=".714" stop-color="#FFC41B"/><stop offset=".889" stop-color="#FFAD27"/><stop offset="1" stop-color="#FF9B31"/></linearGradient><linearGradient id="paint15_linear_147_4" x1="21.664" y1="24.963" x2="24.17" y2="24.963" gradientUnits="userSpaceOnUse"><stop offset=".011" stop-color="#FFE00B"/><stop offset=".306" stop-color="#FFDD0D"/><stop offset=".522" stop-color="#FFD412"/><stop offset=".714" stop-color="#FFC41B"/><stop offset=".889" stop-color="#FFAD27"/><stop offset="1" stop-color="#FF9B31"/></linearGradient><linearGradient id="paint16_linear_147_4" x1="24.64" y1="11.699" x2="25.873" y2="11.699" gradientUnits="userSpaceOnUse"><stop offset=".011" stop-color="#FFE00B"/><stop offset=".306" stop-color="#FFDD0D"/><stop offset=".522" stop-color="#FFD412"/><stop offset=".714" stop-color="#FFC41B"/><stop offset=".889" stop-color="#FFAD27"/><stop offset="1" stop-color="#FF9B31"/></linearGradient><radialGradient id="paint0_radial_147_4" cx="0" cy="0" r="1" gradientUnits="userSpaceOnUse" gradientTransform="translate(12.616 13.057) scale(15.2606)"><stop offset=".006" stop-color="#FFB80B"/><stop offset=".258" stop-color="#FFB60C"/><stop offset=".384" stop-color="#FEAE10"/><stop offset=".482" stop-color="#FCA117"/><stop offset=".566" stop-color="#FA8E21"/><stop offset=".639" stop-color="#F7762E"/><stop offset=".662" stop-color="#F66D33"/><stop offset=".721" stop-color="#EF6836"/><stop offset=".806" stop-color="#DC593D"/><stop offset=".907" stop-color="#BD4049"/><stop offset=".983" stop-color="#A02A54"/></radialGradient></defs></svg>