<svg width="19" height="19" fill="none" xmlns="http://www.w3.org/2000/svg"><path fill-rule="evenodd" clip-rule="evenodd" d="M7.853 18.97a8.662 8.662 0 01-3.759-1.474 4.792 4.792 0 01-.313-.225 9.444 9.444 0 01-2.81-3.446A9.643 9.643 0 01.195 11.5c-.002-.002-.002-.004-.002-.008a9.907 9.907 0 01-.168-1.27A9.86 9.86 0 011.41 4.415a9.437 9.437 0 011.328-1.717C4.367 1.03 6.588 0 9.038 0a8.58 8.58 0 012.848.485c.221.074.435.16.648.257a8.999 8.999 0 012.831 1.984c.346.356.663.74.949 1.15a9.747 9.747 0 011.694 4.466v.002c.046.386.069.782.069 1.182 0 2.755-1.109 5.234-2.881 6.973a8.967 8.967 0 01-2.95 1.934 8.55 8.55 0 01-2.249.565L9.995 19" fill="url(#paint0_radial_28_330)"/><path fill-rule="evenodd" clip-rule="evenodd" d="M13.002.965c-.03.004-.06.006-.09.014a.542.542 0 01-.282-.02c-.073-.022-.124-.052-.2-.066-.111-.018-.212-.069-.321-.083-.116-.016-.216-.064-.326-.106-.086-.032-.132-.022-.216 0-.084.024-.141-.014-.216-.047-.083-.038-.165-.044-.253-.062-.23-.05-.456-.127-.683-.189-.141-.038-.271-.038-.416-.04-.113-.002-.216.032-.328.032-.075 0-.14-.014-.216-.024-.076-.014-.154.002-.233-.01-.114-.018-.175-.036-.291.002-.086.03-.155.026-.24.032-.092.004-.201.03-.295.054a1.98 1.98 0 01-.528.07c-.107 0-.263-.031-.365.007-.066.024-.099.098-.145.149-.087.096-.196.18-.269.29-.074.106-.156.216-.15.353.005.117.057.255.107.362.05.114.066.217-.044.293a1.74 1.74 0 01-.462.236c-.107.032-.202.052-.292-.029-.032-.03-.053-.088-.093-.11-.042-.024-.086 0-.132.014-.113.034-.223.074-.338.094-.07.013-.131.05-.2.065-.084.016-.143-.048-.229-.026-.12.03-.242.082-.366.088a.522.522 0 01-.277-.084c-.044-.026-.055-.053-.105-.038a.284.284 0 00-.124.096c-.03.044-.04.103-.07.149-.03.05-.061.1-.09.155a2.11 2.11 0 01-.18.3c-.047.066-.08.154-.131.216-.027.033-.084.057-.118.08-.094.071-.193.133-.285.208-.175.145-.341.305-.52.446-.136.107-.329.171-.483.237-.097.043-.199.07-.294.115-.03.014-.09.028-.116.052-.035.032-.054.089-.084.133-.084.109-.174.217-.239.344a1.11 1.11 0 00-.087.227c-.035.107-.09.207-.124.314-.071.225-.084.458-.163.681-.045.131-.11.25-.168.368-.097.201-.11.44-.139.664-.015.13-.01.281.014.408.022.137.017.28.015.42-.002.149-.092.294-.181.406-.082.105-.206.143-.296.237-.076.079-.17.171-.202.284-.014.05-.002.106-.01.159-.025.116-.051.227-.069.346a3.657 3.657 0 00-.02.434c0 .074-.004.15-.002.225.003.07.028.137.032.21.004.05-.006.098 0 .148.01.056.03.115.042.169.03.133.055.261.078.394.023.123.067.243.103.362.05.163.084.33.113.496.023.125.023.256.04.384.013.103.036.207.04.31.004.155-.03.31-.033.469-.002.263.1.528.157.784l.053.215A9.985 9.985 0 010 9.526a9.86 9.86 0 011.41-5.11 9.52 9.52 0 011.328-1.72C4.367 1.03 6.588 0 9.039 0a8.61 8.61 0 013.963.965z" fill="#B0E1FF"/><g opacity=".5" fill-rule="evenodd" clip-rule="evenodd"><g opacity=".4"><path opacity=".4" d="M7.996 12.176c-.002-.008-.004-.014-.004-.022.054.062.109.125.12.193-.05 0-.105-.119-.116-.171z" fill="url(#paint1_linear_28_330)"/><path opacity=".4" d="M16.314 3.876c-.08.079-.185.13-.29.2-.078.052-.16.16-.239.194-.108.049-.263.002-.362-.04-.248-.106-.405-.205-.666-.104-.082.032-.149.028-.23.048-.067.016-.085.054-.167.054-.154 0-.297-.155-.396-.27-.12-.134-.174-.136-.35-.136-.164-.002-.355.048-.39.253-.045.248.242.437.392.561.22.183-.025.232-.114.402-.086.17.084.262-.044.409-.248.283-.832.492-1.16.293-.229-.14-.338-.402-.517-.599-.101-.113-.225-.201-.326-.314a2.065 2.065 0 01-.348-.599c.079.223-.055-.092-.099-.356-.019-.118.033-.197.054-.305.02-.115-.04-.161-.088-.252-.088-.174-.23-.32-.097-.506.08-.115.179-.223.276-.32.101-.102.206-.24.336-.306.017-.082-.229-.331-.282-.404-.126-.169-.246-.36-.401-.5-.061-.057-.18-.115-.217-.19-.084-.168.165-.38.274-.46.19-.138.36-.16.582-.16.14.001.286.003.433.014a6.952 6.952 0 01.656.26 8.999 8.999 0 012.831 1.984c.346.355.663.74.949 1.15z" fill="url(#paint2_linear_28_330)"/><path opacity=".4" d="M13.71 5.903c.187.048.372.107.553.173-.029.04-.008.09.017.119a.552.552 0 01-.257.16c-.12.03-.172-.004-.264-.06-.09-.054-.202-.058-.198-.189.004-.14.133-.187.244-.205h-.095v.002z" fill="url(#paint3_linear_28_330)"/><path opacity=".4" d="M3.436 17.215c.063.038.128.074.193.11a1.757 1.757 0 01-.382.063c-.028-.13-.09-.27-.479-.513.254.112.441.205.668.34z" fill="url(#paint4_linear_28_330)"/><path opacity=".4" d="M7.853 18.97a8.663 8.663 0 01-3.759-1.474c.105.028.21.058.315.079.122.024.223.07.338.102.202.06.473.012.683.01.326 0 .635.06.956.107.229.034.402.07.63-.004.188-.06.371-.14.537-.242.355-.219.777-.21 1.147-.418.158-.088.284-.231.439-.332.08-.05.196-.138.282-.168.075-.027.141-.029.218-.059.185-.074.38-.114.562-.19.16-.065.409-.18.535-.304.164-.161.396-.427.467-.648.05-.153.05-.291.05-.454 0-.069-.002-.139 0-.207 0-.089-.02-.12-.039-.19-.045-.17.04-.234.08-.375.039-.129.083-.242.113-.376a.736.736 0 00-.023-.457c-.019-.068-.06-.154-.072-.215-.015-.068-.01-.136-.014-.209.002.087.094.276.12.348.058.147.165.271.172.432.008.153-.04.288-.072.432-.038.163.026.268.023.43-.002.071-.006.138.011.204.02.08.025.15.04.229.029.13.115.255.143.378.037.153-.084.271-.147.388a.852.852 0 00-.095.428c0 .143.004.288 0 .43-.004.198-.13.326-.24.473-.134.175-.296.296-.454.44-.08.075-.124.177-.197.258-.069.078-.16.145-.22.227-.07.099-.09.15-.188.227-.11.085-.193.185-.292.284" fill="url(#paint5_linear_28_330)"/></g><path opacity=".4" d="M4.625 15.94c.026.49-.256.907-.613 1.194a.908.908 0 01-.23.137 9.444 9.444 0 01-2.81-3.446A9.643 9.643 0 01.194 11.5c-.002-.002-.002-.004-.002-.008a9.907 9.907 0 01-.168-1.27c.03-.032.061-.064.093-.103-.003.312.107.57.191.873.063.225.138.444.191.671.044.185.082.348.195.503.072.1.137.139.244.189.082.038.145.11.227.143.18.07.402.114.593.11.101-.002.155 0 .24.05.06.037.111.087.168.127.13.097.254.201.361.328.164.195.158.466.29.682.109.18.27.237.471.237.397.002.744.492.95.812.191.3.367.736.386 1.096z" fill="url(#paint6_linear_28_330)"/></g><defs><linearGradient id="paint1_linear_28_330" x1="7.992" y1="12.25" x2="8.112" y2="12.25" gradientUnits="userSpaceOnUse"><stop stop-color="#E8DDFF"/><stop offset="1" stop-color="#AA8AD8"/></linearGradient><linearGradient id="paint2_linear_28_330" x1="10.572" y1="3.144" x2="16.314" y2="3.144" gradientUnits="userSpaceOnUse"><stop stop-color="#E8DDFF"/><stop offset="1" stop-color="#AA8AD8"/></linearGradient><linearGradient id="paint3_linear_28_330" x1="13.562" y1="6.136" x2="14.281" y2="6.136" gradientUnits="userSpaceOnUse"><stop stop-color="#E8DDFF"/><stop offset="1" stop-color="#AA8AD8"/></linearGradient><linearGradient id="paint4_linear_28_330" x1="2.769" y1="17.131" x2="3.629" y2="17.131" gradientUnits="userSpaceOnUse"><stop stop-color="#E8DDFF"/><stop offset="1" stop-color="#AA8AD8"/></linearGradient><linearGradient id="paint5_linear_28_330" x1="4.095" y1="15.958" x2="11.742" y2="15.958" gradientUnits="userSpaceOnUse"><stop stop-color="#E8DDFF"/><stop offset="1" stop-color="#AA8AD8"/></linearGradient><linearGradient id="paint6_linear_28_330" x1=".025" y1="13.695" x2="4.627" y2="13.695" gradientUnits="userSpaceOnUse"><stop stop-color="#E8DDFF"/><stop offset="1" stop-color="#AA8AD8"/></linearGradient><radialGradient id="paint0_radial_28_330" cx="0" cy="0" r="1" gradientUnits="userSpaceOnUse" gradientTransform="matrix(15.1294 0 0 15.9444 4.636 3.67)"><stop offset=".006" stop-color="#B1FFFF"/><stop offset=".293" stop-color="#B1FDFF"/><stop offset=".436" stop-color="#AFF5FF"/><stop offset=".547" stop-color="#ACE8FF"/><stop offset=".617" stop-color="#A9DBFF"/><stop offset=".651" stop-color="#A2D7FE"/><stop offset=".699" stop-color="#8FCAFC"/><stop offset=".757" stop-color="#6FB5F9"/><stop offset=".822" stop-color="#4399F4"/><stop offset=".891" stop-color="#0C75EE"/><stop offset=".905" stop-color="#006DED"/></radialGradient></defs></svg>