<svg width="19" height="19" fill="none" xmlns="http://www.w3.org/2000/svg"><path fill-rule="evenodd" clip-rule="evenodd" d="M19 9.501a9.472 9.472 0 01-3.028 6.954 9.486 9.486 0 01-7.716 2.465 9.439 9.439 0 01-4.853-2.138A9.473 9.473 0 01.207 11.47c-.002-.002-.002-.004-.002-.008A9.445 9.445 0 010 9.501a9.45 9.45 0 011.482-5.097c.399-.626.866-1.2 1.396-1.715A9.47 9.47 0 0110.117.02a9.463 9.463 0 016.034 2.697A9.465 9.465 0 0119 9.501z" fill="url(#paint0_radial_28_212)"/><path fill-rule="evenodd" clip-rule="evenodd" d="M4.484 15.798c-.796 0-2.262-1.162-2.96-2.657-.872-1.867-.878-3.83-.457-4.191.12-.107.284-.159.483-.159.128 0 .275.022.431.068 1.01.293 2.402 1.687 3.004 3.08a4.65 4.65 0 01.249 3.115c-.149.613-.49.744-.75.744z" fill="url(#paint1_linear_28_212)"/><path fill-rule="evenodd" clip-rule="evenodd" d="M5.075 15.015c-.094.383-.282.616-.591.618-.688 0-2.124-1.089-2.81-2.56C.8 11.198.848 9.356 1.175 9.075c.165-.143.437-.153.762-.058 1.02.294 2.557 1.61 2.89 2.961.282 1.152.423 2.339.248 3.037z" fill="url(#paint2_linear_28_212)"/><path fill-rule="evenodd" clip-rule="evenodd" d="M1.799 8.168a.32.32 0 01-.263-.11c-.259-.308.12-1.356.287-1.735.268-.608.533-.92.788-.929a.407.407 0 01.268.097h.005l.05.048c.29.29.425.948.162 1.468-.19.374-.786 1.036-1.19 1.145a.404.404 0 01-.107.016z" fill="url(#paint3_linear_28_212)"/><path fill-rule="evenodd" clip-rule="evenodd" d="M2.99 6.942c-.187.367-.782 1.023-1.15 1.121-.091.026-.17.014-.224-.048-.27-.319.512-2.515 1.015-2.53.076-.003.15.034.217.104h.002c.242.24.393.858.14 1.353z" fill="url(#paint4_linear_28_212)"/><path fill-rule="evenodd" clip-rule="evenodd" d="M15.232 15.553c-.319 0-.555-.126-.666-.353-.21-.443-.102-2.057.54-3.483.95-2.12 2.258-2.681 2.815-2.681a.594.594 0 01.167.022c.144.036.27.152.363.345.375.78.16 2.707-.454 4.042-.571 1.242-1.917 2.108-2.765 2.108z" fill="url(#paint5_linear_28_212)"/><path fill-rule="evenodd" clip-rule="evenodd" d="M17.849 13.375c-.754 1.636-2.787 2.473-3.132 1.753-.175-.367-.105-1.911.541-3.345.965-2.154 2.288-2.643 2.75-2.577l.03.006c.65.163.55 2.553-.19 4.163z" fill="url(#paint6_linear_28_212)"/><path fill-rule="evenodd" clip-rule="evenodd" d="M17.713 8.885a.384.384 0 01-.197-.052c-.393-.236-.654-1.78-.383-2.264a.348.348 0 01.245-.19.484.484 0 01.094-.01c.443 0 .888.521 1.039 1.213a1.15 1.15 0 01-.335 1.089c-.145.134-.313.214-.463.214z" fill="url(#paint7_linear_28_212)"/><path fill-rule="evenodd" clip-rule="evenodd" d="M18.064 8.549c-.163.152-.347.21-.464.142-.314-.189-.555-1.626-.325-2.041.033-.06.077-.099.13-.109.324-.064.791.365.943 1.077a.974.974 0 01-.284.93z" fill="url(#paint8_linear_28_212)"/><path fill-rule="evenodd" clip-rule="evenodd" d="M10.097 18.88c-.059 0-.119 0-.18-.002-.975-.028-1.72-.444-1.854-.813a.326.326 0 01.088-.366c.307-.271 1.573-.285 1.823-.285.82 0 1.817.08 1.905.463.022.098.018.249-.134.413-.225.249-.535.59-1.648.59z" fill="url(#paint9_linear_28_212)"/><path fill-rule="evenodd" clip-rule="evenodd" d="M11.624 18.178c-.23.255-.52.57-1.704.533-1.149-.034-1.937-.645-1.66-.89.375-.329 3.357-.347 3.459.092.02.086-.012.177-.095.265z" fill="url(#paint10_linear_28_212)"/><path fill-rule="evenodd" clip-rule="evenodd" d="M14.697 9.637c-.636 0-1.123-.302-1.376-.85-.604-1.313-.604-3.886-.162-4.923.11-.262.242-.42.403-.485.16-.066.327-.1.493-.1.562 0 1.143.375 1.683 1.087.884 1.163 1.5 3.054 1.267 3.888-.074.268-.307.555-.656.806-.495.363-1.115.577-1.652.577z" fill="url(#paint11_linear_28_212)"/><path fill-rule="evenodd" clip-rule="evenodd" d="M16.848 8.212c-.066.238-.288.497-.593.716-.83.601-2.264.92-2.783-.209-.588-1.28-.584-3.796-.163-4.789.088-.206.19-.347.313-.397 1.793-.742 3.573 3.43 3.226 4.679z" fill="url(#paint12_linear_28_212)"/><path fill-rule="evenodd" clip-rule="evenodd" d="M5.075 15.015c-.928.331-2.362-.828-3.11-2.72-.66-1.661-.16-2.983-.03-3.277 1.02.294 2.557 1.61 2.89 2.961.284 1.152.425 2.339.25 3.037zm6.55 3.163c-1.968.607-3.363-.357-3.363-.357.375-.329 3.357-.347 3.459.092.018.086-.014.177-.096.265zm5.911-4.949c-1.341 2.19-2.82 1.899-2.82 1.899-.174-.367-.104-1.911.542-3.345.965-2.154 2.288-2.643 2.75-2.577l.03.006c.256.8.465 2.439-.502 4.017zm-1.281-4.302c-.83.602-2.264.92-2.783-.208-.588-1.28-.584-3.796-.163-4.789.371-.05 1.055.075 1.853 1.244 1.097 1.604 1.464 2.837 1.093 3.753zm1.809-.378c-.163.152-.347.21-.464.142-.314-.189-.555-1.626-.325-2.041.25.144.618.44.716.976.065.337.08.658.073.923zM2.99 6.942c-.187.367-.782 1.023-1.15 1.121.025-.146.304-1.849 1.008-2.474h.002c.242.24.393.858.14 1.353z" fill="#FFFF45"/><path opacity=".3" fill-rule="evenodd" clip-rule="evenodd" d="M14.414 11.745a2.752 2.752 0 01-.345.614c-.11.148-.257.26-.345.427-.299.563-.236 1.197-.411 1.788-.094.323-.339.58-.435.907-.042.148-.02.283-.024.435-.006.178-.096.3-.205.439a1.067 1.067 0 01-.457.339c-.144.058-.299.034-.451.034-.341 0-.67-.046-1-.142-.301-.089-.582-.227-.887-.313-.209-.058-.353-.04-.562.004-.178.036-.379.016-.559.014-.319-.006-.622.174-.904.315-.209.104-.347.222-.428.449-.094.259-.09.5-.403.602-.18.06-.403-.005-.58-.04-.162-.035-.338-.015-.504-.015a1.933 1.933 0 01-.915-.246c-.337-.179-.634-.45-.902-.708-.147-.14-.335-.219-.486-.357-.208-.185-.415-.351-.611-.55-.297-.3-.622-.61-.953-.874-.236-.186-.439-.417-.637-.634-.167-.18-.265-.447-.39-.655a5.554 5.554 0 01-.559-1.376c-.138-.54-.295-1.125-.289-1.686.006-.474-.06-.93-.06-1.406-.042.902.004 1.65.09 2.354A9.617 9.617 0 010 9.501a9.45 9.45 0 011.482-5.097c.399-.626.866-1.2 1.396-1.715A9.47 9.47 0 0110.117.02c1.078.07 2.11.319 3.058.718.244.269.487.555.663.858.073.125.13.263.203.387.064.11.134.17.114.307-.012.08-.068.183-.1.259-.106.254-.401.439-.626.58-.315.198-.681.278-1.016.45-.217.11-.29.211-.436.393-.074.093-.172.165-.236.263a1.84 1.84 0 00-.267 1.013c.024.637.518 1.1.634 1.706.102.522.028 1.077.194 1.59.185.574.69 1.045 1.161 1.378.197.138.39.255.562.421.162.155.389.245.503.437.19.32.012.662-.114.965z" fill="url(#paint13_linear_28_212)"/><path fill-rule="evenodd" clip-rule="evenodd" d="M13.666.96c-.032.005-.062.007-.094.015a.6.6 0 01-.297-.02c-.076-.023-.13-.053-.21-.067-.117-.018-.223-.068-.338-.082-.122-.016-.226-.064-.342-.106-.09-.032-.139-.022-.227 0-.088.024-.148-.014-.227-.046-.088-.038-.174-.044-.266-.062-.24-.05-.48-.127-.718-.189-.149-.038-.285-.038-.437-.04-.119-.002-.227.032-.345.032-.079 0-.147-.014-.227-.024-.08-.014-.162.002-.244-.01-.12-.018-.185-.036-.307.002-.09.03-.163.026-.253.032-.096.006-.21.032-.309.054a2.267 2.267 0 01-.555.07c-.113 0-.277-.032-.383.006-.07.024-.105.099-.153.149-.092.096-.206.18-.282.289-.079.106-.165.216-.159.352.006.117.06.255.112.361.053.115.07.217-.046.293a1.84 1.84 0 01-.485.235c-.112.032-.212.052-.307-.028-.034-.03-.056-.089-.098-.11-.044-.025-.09 0-.138.013-.119.035-.235.075-.355.095-.074.012-.139.05-.21.064-.09.016-.151-.048-.241-.026-.127.03-.255.082-.385.088a.57.57 0 01-.291-.084c-.046-.026-.058-.052-.11-.038a.297.297 0 00-.13.096c-.033.044-.043.102-.075.148-.032.05-.064.1-.094.155a2.085 2.085 0 01-.189.299c-.05.066-.084.154-.138.216-.028.032-.088.056-.125.08-.098.07-.202.133-.298.207-.185.144-.36.305-.548.445-.142.106-.345.17-.507.237-.102.042-.209.07-.31.114-.033.014-.095.028-.123.052-.036.032-.056.088-.088.132-.089.109-.183.217-.251.343-.042.073-.066.147-.092.227-.036.106-.095.207-.13.313-.075.224-.089.457-.171.68-.048.13-.116.248-.177.367-.102.2-.116.439-.146.661-.016.13-.01.281.014.407.024.137.018.28.016.42-.002.148-.096.292-.19.405-.087.104-.217.144-.311.236-.08.078-.179.17-.213.283-.014.05-.002.106-.01.158-.024.117-.052.227-.07.345a3.462 3.462 0 00-.022.433c0 .075-.004.15-.002.225.004.07.03.136.034.208.004.05-.006.099 0 .149.01.056.032.114.044.168.032.133.058.261.082.393.024.123.07.243.109.361.052.163.088.33.118.496.024.124.024.254.042.383.014.102.038.206.042.308.004.155-.032.31-.034.468-.002.262.104.527.165.782.018.07.036.144.056.214A9.529 9.529 0 010 9.501a9.45 9.45 0 011.482-5.097c.399-.626.866-1.2 1.396-1.715A9.47 9.47 0 0110.117.02c1.267.08 2.466.41 3.549.94z" fill="url(#paint14_linear_28_212)"/><path opacity=".3" fill-rule="evenodd" clip-rule="evenodd" d="M12.832 16.726c.186-.112.367-.23.557-.335.205-.112.407-.188.622-.273.16-.062.176-.066.305.037.118.094.26.114.409.116.202.002.425.018.443.277.026.355-.51.663-.762.806-.205.116-.427.194-.64.29-.18.083-.383.179-.581.205-.173.024-.285-.058-.397-.184-.133-.153-.125-.3-.125-.49.002-.222-.01-.375.169-.449z" fill="url(#paint15_linear_28_212)"/><path opacity=".3" fill-rule="evenodd" clip-rule="evenodd" d="M15.661 3.445c.143.283.245.662.46.896.114.125.202.147.36.145.078 0 .223.03.295.004.102-.036.096-.15.092-.25-.014-.376-.268-.723-.503-.993-.152-.175-.407-.39-.658-.341a.903.903 0 00-.046.54z" fill="url(#paint16_linear_28_212)"/><path fill-rule="evenodd" clip-rule="evenodd" d="M10.431 18.396c-.026.038-.07.07-.032.11a.21.21 0 00.083.045c.044.012.122.004.158-.024.036-.028.03-.064.008-.099-.044-.066-.098-.076-.168-.046l-.049.014zM4.221 2.452c-.1.033-.138.043-.239.127-.08.066-.166.126-.242.2a.604.604 0 00-.165.305c-.03.102-.058.219-.018.275.022.03.089.028.139.014a.943.943 0 00.234-.122.94.94 0 00.265-.27c.05-.073.082-.16.118-.236.024-.052.034-.098.05-.148a.167.167 0 00.006-.102c-.014-.045-.04-.047-.148-.043zm1.123-.172c-.04.034-.128.096-.058.146.018.014.036.006.056.012.016.004.02.016.038.01.056-.022.034-.184-.03-.15l-.006-.018zm.295.59a.167.167 0 01.08-.022c.006.036.038.104-.012.13-.042.022-.03-.052-.05-.07l-.018-.038zm.575.016l.16.066c.019-.016.043-.012.063-.026a.178.178 0 00.058-.085c.016-.046-.008-.082-.028-.118-.014-.024-.028-.058-.048-.072-.024-.018-.074-.012-.098.002a.22.22 0 00-.076.078.223.223 0 00-.045.108c-.002.039.028.077.057.097l-.043-.05zm.484 10.988l.16.067c.016-.016.042-.012.062-.026a.178.178 0 00.058-.085c.016-.046-.008-.082-.028-.118-.014-.024-.028-.058-.048-.072-.024-.018-.074-.012-.098.002a.219.219 0 00-.076.078.215.215 0 00-.044.108c-.002.039.028.077.056.097l-.042-.05zM4.68 3.4a.201.201 0 00-.056.061c.022.028.032.054.07.064.014.004.03.004.044-.008.016-.016.008-.032.012-.048.01-.036.02-.046 0-.08-.012-.02-.02-.028-.042-.028-.016 0-.048.004-.056.022l.028.018zm.123.851c-.004.01-.046.115.008.084.026-.016.018-.056 0-.068l.002-.01-.01-.006zm-.793 1.45c-.036.046-.04.066-.056.114a.114.114 0 00.067.022c.032-.002.032-.012.034-.042 0-.024.01-.044.004-.066-.006-.024-.03-.048-.058-.034l.01.006zm1.214-2.198c.02.018.034.042.038.07-.028.008-.032-.02-.036-.044-.006-.036.01-.024.026-.052l.01.002-.038.024zM4.943 2.38a.201.201 0 00-.056.06c.014.016.008.049.038.045.022-.002.04-.027.052-.045a.136.136 0 00.016-.062c0-.012 0-.062-.02-.028l-.03.03zm3.637-.581c.009-.026.01-.062.025-.084.004-.007.014-.013.018-.02.016-.023.01-.027.036-.029.03 0 .048.002.072.02.08.065-.122.113-.13.053l-.02.06zm.682.252c-.01.047-.04.109.002.139.036.026.115-.016.143-.042.052-.048.114-.137.066-.203-.028-.038-.11-.068-.159-.064-.096.01-.124.124-.138.217l.086-.047zm.299-.936c-.01-.08-.024-.158.046-.199.038-.022.109-.03.145-.004.026.02.05.057.066.083.024.04.018.04.006.076-.028.084-.048.14-.132.14-.11 0-.129-.086-.129-.192v.096h-.002zm1.023 1.392a.333.333 0 00.156-.095c-.044-.026-.138-.082-.156-.002v.097z" fill="#FFFF45"/><path fill-rule="evenodd" clip-rule="evenodd" d="M7.069 15.142a.333.333 0 00.156-.094c-.044-.026-.138-.083-.156-.002v.096zm6.519 1.365a.333.333 0 00.156-.094c-.044-.026-.138-.082-.156-.002v.096z" fill="#FFC445"/><path fill-rule="evenodd" clip-rule="evenodd" d="M11.372 3.732c.06-.074.146-.209.257-.135.064.043.082.157.02.203-.056.042-.109.054-.17.072-.049.014-.121-.018-.107-.09v-.05z" fill="#FFFF45"/><path fill-rule="evenodd" clip-rule="evenodd" d="M7.149 5.492c.06-.074.146-.208.256-.134.065.042.083.156.02.203-.056.042-.108.054-.17.072-.048.014-.12-.018-.106-.09v-.05zm7.006-3.12c.06-.074.147-.208.257-.134.064.042.082.156.02.202-.056.042-.108.055-.17.073-.049.014-.12-.018-.107-.09v-.05zm-3.926 6.475c.06-.074.146-.208.257-.134.064.042.082.156.02.202-.057.043-.109.055-.17.073-.049.014-.121-.018-.107-.09v-.05z" fill="#FFC445"/><path fill-rule="evenodd" clip-rule="evenodd" d="M6.794 2.847c-.076.049-.207.11-.22.215-.009.064.021.102.077.128a.207.207 0 00.173 0c.07-.036.152-.094.184-.17a.154.154 0 00-.006-.144c-.014-.029-.04-.065-.072-.075-.098-.034-.158.063-.23.107l.094-.06zm.25-.28a.242.242 0 01.107.07c-.042.014-.086.048-.13.032-.057-.02-.067-.072-.055-.126.006-.03.058-.08.089-.069.016.006.018.027.022.04.01.029.012.023-.004.05h-.029v.003zM2.813 4.33a.751.751 0 00-.204.262c-.022.052.018.056.066.046.092-.018.187-.044.279-.068.054-.014.132-.042.17-.088a.205.205 0 00.034-.14c-.008-.063-.054-.087-.11-.103-.13-.036-.297.05-.343.169l.108-.079zm.063.437a.414.414 0 01.184.048c-.016.02-.012.046-.02.068a.19.19 0 01-.076.088.235.235 0 01-.19.022c-.171-.064.09-.267.148-.196l-.046-.03zM8.308.942c.064-.03.12-.07.19-.082.08-.014.153-.028.233-.028.04 0 .132-.004.104.062-.028.073-.182.14-.244.169-.107.05-.205.1-.323.112-.06.006-.16.01-.193-.05-.028-.05-.014-.092.012-.138.028-.049.06-.069.113-.09.024-.01.16-.047.168-.005l-.06.05zM7.247.975c-.028.02-.244.14-.14.192.056.028.164.02.22-.004.05-.022.1-.054.069-.112-.065-.116-.223-.048-.303.002l.154-.078z" fill="#FFFF45"/><path fill-rule="evenodd" clip-rule="evenodd" d="M4.265 8.841c.016.089.034.187.113.245.08.06.17.036.248-.01.058-.034.112-.07.17-.106.035-.02.063-.026.065-.073.002-.05-.046-.12-.074-.158a.419.419 0 00-.16-.122c-.12-.044-.348 0-.346.162l-.016.062z" fill="#FFD32F"/><path fill-rule="evenodd" clip-rule="evenodd" d="M11.071 8.937c.016.089.034.187.113.245.08.06.17.036.248-.01.058-.034.112-.07.17-.106.035-.02.063-.026.065-.072.002-.05-.046-.12-.075-.159a.418.418 0 00-.16-.122c-.118-.044-.347 0-.345.162l-.016.062z" fill="#FFBA00"/><path fill-rule="evenodd" clip-rule="evenodd" d="M1.364 12.368s-.079.341.162.773c.24.43.413.409.413.409s-.206-.8-.575-1.182zm15.508-4.684s-.278.804-.319.917c0 0 .44-.123.32-.917zm1.496.251s-.192.146-.302.517c0 0 .236.112.302-.517zm-3.064 7.45s.9-.584 1.418-.626c.002.002-.588.724-1.418.626z" fill="#FFFF59"/><defs><linearGradient id="paint1_linear_28_212" x1=".795" y1="12.295" x2="5.395" y2="12.295" gradientUnits="userSpaceOnUse"><stop offset=".011" stop-color="#FFA90B"/><stop offset=".371" stop-color="#FFA60E"/><stop offset=".635" stop-color="#FF9D16"/><stop offset=".868" stop-color="#FF8D25"/><stop offset="1" stop-color="#FF8031"/></linearGradient><linearGradient id="paint2_linear_28_212" x1=".958" y1="12.295" x2="5.152" y2="12.295" gradientUnits="userSpaceOnUse"><stop offset=".011" stop-color="#FFE00B"/><stop offset=".306" stop-color="#FFDD0D"/><stop offset=".522" stop-color="#FFD412"/><stop offset=".714" stop-color="#FFC41B"/><stop offset=".889" stop-color="#FFAD27"/><stop offset="1" stop-color="#FF9B31"/></linearGradient><linearGradient id="paint3_linear_28_212" x1="1.419" y1="6.806" x2="3.25" y2="6.748" gradientUnits="userSpaceOnUse"><stop offset=".011" stop-color="#FFA90B"/><stop offset=".371" stop-color="#FFA60E"/><stop offset=".635" stop-color="#FF9D16"/><stop offset=".868" stop-color="#FF8D25"/><stop offset="1" stop-color="#FF8031"/></linearGradient><linearGradient id="paint4_linear_28_212" x1="1.532" y1="6.802" x2="3.133" y2="6.751" gradientUnits="userSpaceOnUse"><stop offset=".011" stop-color="#FFE00B"/><stop offset=".306" stop-color="#FFDD0D"/><stop offset=".522" stop-color="#FFD412"/><stop offset=".714" stop-color="#FFC41B"/><stop offset=".889" stop-color="#FFAD27"/><stop offset="1" stop-color="#FF9B31"/></linearGradient><linearGradient id="paint5_linear_28_212" x1="16.553" y1="15.553" x2="16.553" y2="9.036" gradientUnits="userSpaceOnUse"><stop offset=".011" stop-color="#FF8E0B"/><stop offset=".347" stop-color="#FD8B0D"/><stop offset=".594" stop-color="#F98215"/><stop offset=".811" stop-color="#F17221"/><stop offset="1" stop-color="#E65D31"/></linearGradient><linearGradient id="paint6_linear_28_212" x1="14.633" y1="12.295" x2="18.469" y2="12.295" gradientUnits="userSpaceOnUse"><stop offset=".011" stop-color="#FFE00B"/><stop offset=".306" stop-color="#FFDD0D"/><stop offset=".522" stop-color="#FFD412"/><stop offset=".714" stop-color="#FFC41B"/><stop offset=".889" stop-color="#FFAD27"/><stop offset="1" stop-color="#FF9B31"/></linearGradient><linearGradient id="paint7_linear_28_212" x1="17.78" y1="8.884" x2="17.78" y2="6.369" gradientUnits="userSpaceOnUse"><stop offset=".011" stop-color="#FFA90B"/><stop offset=".371" stop-color="#FFA60E"/><stop offset=".635" stop-color="#FF9D16"/><stop offset=".868" stop-color="#FF8D25"/><stop offset="1" stop-color="#FF8031"/></linearGradient><linearGradient id="paint8_linear_28_212" x1="17.779" y1="8.72" x2="17.779" y2="6.534" gradientUnits="userSpaceOnUse"><stop offset=".011" stop-color="#FFE00B"/><stop offset=".306" stop-color="#FFDD0D"/><stop offset=".522" stop-color="#FFD412"/><stop offset=".714" stop-color="#FFC41B"/><stop offset=".889" stop-color="#FFAD27"/><stop offset="1" stop-color="#FF9B31"/></linearGradient><linearGradient id="paint9_linear_28_212" x1="9.965" y1="18.879" x2="9.965" y2="17.414" gradientUnits="userSpaceOnUse"><stop offset=".011" stop-color="#FFA90B"/><stop offset=".371" stop-color="#FFA60E"/><stop offset=".635" stop-color="#FF9D16"/><stop offset=".868" stop-color="#FF8D25"/><stop offset="1" stop-color="#FF8031"/></linearGradient><linearGradient id="paint10_linear_28_212" x1="9.965" y1="18.715" x2="9.965" y2="17.579" gradientUnits="userSpaceOnUse"><stop offset=".011" stop-color="#FFE00B"/><stop offset=".306" stop-color="#FFDD0D"/><stop offset=".522" stop-color="#FFD412"/><stop offset=".714" stop-color="#FFC41B"/><stop offset=".889" stop-color="#FFAD27"/><stop offset="1" stop-color="#FF9B31"/></linearGradient><linearGradient id="paint11_linear_28_212" x1="14.559" y1="9.636" x2="15.381" y2="3.445" gradientUnits="userSpaceOnUse"><stop offset=".011" stop-color="#FFA90B"/><stop offset=".371" stop-color="#FFA60E"/><stop offset=".635" stop-color="#FF9D16"/><stop offset=".868" stop-color="#FF8D25"/><stop offset="1" stop-color="#FF8031"/></linearGradient><linearGradient id="paint12_linear_28_212" x1="14.58" y1="9.473" x2="15.359" y2="3.609" gradientUnits="userSpaceOnUse"><stop offset=".011" stop-color="#FFE00B"/><stop offset=".306" stop-color="#FFDD0D"/><stop offset=".522" stop-color="#FFD412"/><stop offset=".714" stop-color="#FFC41B"/><stop offset=".889" stop-color="#FFAD27"/><stop offset="1" stop-color="#FF9B31"/></linearGradient><linearGradient id="paint13_linear_28_212" x1="0" y1="8.839" x2="14.611" y2="8.839" gradientUnits="userSpaceOnUse"><stop offset=".011" stop-color="#FFE00B"/><stop offset=".306" stop-color="#FFDD0D"/><stop offset=".522" stop-color="#FFD412"/><stop offset=".714" stop-color="#FFC41B"/><stop offset=".889" stop-color="#FFAD27"/><stop offset="1" stop-color="#FF9B31"/></linearGradient><linearGradient id="paint14_linear_28_212" x1="0" y1="6.894" x2="13.666" y2="6.894" gradientUnits="userSpaceOnUse"><stop offset=".011" stop-color="#FFE00B"/><stop offset=".306" stop-color="#FFDD0D"/><stop offset=".522" stop-color="#FFD412"/><stop offset=".714" stop-color="#FFC41B"/><stop offset=".889" stop-color="#FFAD27"/><stop offset="1" stop-color="#FF9B31"/></linearGradient><linearGradient id="paint15_linear_28_212" x1="12.664" y1="16.963" x2="15.17" y2="16.963" gradientUnits="userSpaceOnUse"><stop offset=".011" stop-color="#FFE00B"/><stop offset=".306" stop-color="#FFDD0D"/><stop offset=".522" stop-color="#FFD412"/><stop offset=".714" stop-color="#FFC41B"/><stop offset=".889" stop-color="#FFAD27"/><stop offset="1" stop-color="#FF9B31"/></linearGradient><linearGradient id="paint16_linear_28_212" x1="15.64" y1="3.699" x2="16.873" y2="3.699" gradientUnits="userSpaceOnUse"><stop offset=".011" stop-color="#FFE00B"/><stop offset=".306" stop-color="#FFDD0D"/><stop offset=".522" stop-color="#FFD412"/><stop offset=".714" stop-color="#FFC41B"/><stop offset=".889" stop-color="#FFAD27"/><stop offset="1" stop-color="#FF9B31"/></linearGradient><radialGradient id="paint0_radial_28_212" cx="0" cy="0" r="1" gradientUnits="userSpaceOnUse" gradientTransform="translate(3.616 5.057) scale(15.2606)"><stop offset=".006" stop-color="#FFB80B"/><stop offset=".258" stop-color="#FFB60C"/><stop offset=".384" stop-color="#FEAE10"/><stop offset=".482" stop-color="#FCA117"/><stop offset=".566" stop-color="#FA8E21"/><stop offset=".639" stop-color="#F7762E"/><stop offset=".662" stop-color="#F66D33"/><stop offset=".721" stop-color="#EF6836"/><stop offset=".806" stop-color="#DC593D"/><stop offset=".907" stop-color="#BD4049"/><stop offset=".983" stop-color="#A02A54"/></radialGradient></defs></svg>