<svg width="20" height="20" fill="none" xmlns="http://www.w3.org/2000/svg"><g clip-path="url(#clip0_28_77)"><path fill-rule="evenodd" clip-rule="evenodd" d="M19.682 9.914c0 .952-.13 1.875-.377 2.746a9.935 9.935 0 01-2.702 4.511 9.597 9.597 0 01-3.149 2.013 9.388 9.388 0 01-3.941.628H9.51a9.81 9.81 0 01-.75-.07 9.473 9.473 0 01-4.932-2.23 9.615 9.615 0 01-1.398-1.483 9.782 9.782 0 01-.846-1.3c-.059-.109-.116-.22-.173-.33 0-.005-.002-.007-.004-.011a8.115 8.115 0 01-.167-.36h-.002a9.66 9.66 0 01-.432-1.172 9.09 9.09 0 01-.226-.887c-.002-.002-.002-.006-.002-.008a9.533 9.533 0 01-.108-.64 10.015 10.015 0 01-.01-2.733 9.917 9.917 0 011.418-3.993 9.855 9.855 0 011.418-1.789C5.036 1.069 7.41 0 10.027 0c.101 0 .203.002.303.004a9.382 9.382 0 012.843.536c.2.069.395.146.589.23.145.063.285.128.426.197l.073.035a9.682 9.682 0 013.035 2.388 9.754 9.754 0 011.333 2.017 10.135 10.135 0 011.054 4.507z" fill="url(#paint0_radial_28_77)"/><path opacity=".4" fill-rule="evenodd" clip-rule="evenodd" d="M.373 9.914s2.276 4.148 4.477 4.792c2.201.645 4.714.234 5.574.563.858.328 1.327 1.676 1.327 1.676l.32.188s.733-1.17 1.184-.479c0 0-.18-.98.36-2.174.54-1.193.9-2.475 1.571-2.886.669-.41 1.894-.6 2.866-.205.97.396 1.473.32 1.473.32l.074-.468.073-.414s-.93.15-1.677-.34c0 0 .101.185.68-.926.58-1.112.512-2.112.512-2.112l-.084-.923s-.312 3.2-1.624 4.129c0 0-2.93-.624-4.17 2.927 0 0-.211 2.375-1.438 2.308-1.227-.067-.803-1.62-2.58-1.634-1.777-.017-2.853.735-4.612-.295C2.92 12.93.373 9.914.373 9.914zm9.14 9.898s1.219-1.867 2.557-1.856c1.34.01 1.957.508 3.012-.124 1.056-.632 1.494-1.027 1.981-1.366.487-.34.569-.446.569-.446l.22-.297s-.74-.368-1.392.174c-.652.542-1.832 1.768-2.767 1.761-.936-.006-.891-.558-1.943-.125-1.051.433-3.264 1.967-3.264 1.967s.4.3 1.027.312zm-8.61-6.65l.116.326s1.883 1.067 3.07 2.553c1.189 1.486 1.401 2.492 1.401 2.492s.212-.885-.813-2.549c-1.023-1.667-3.228-2.58-3.774-2.822z" fill="#7D72B3"/><path fill-rule="evenodd" clip-rule="evenodd" d="M14.261 1.002c-.032.004-.063.007-.096.015a.594.594 0 01-.301-.021c-.078-.023-.133-.054-.214-.069-.118-.019-.226-.071-.343-.086-.124-.017-.23-.067-.348-.11-.092-.034-.14-.024-.23 0s-.151-.015-.23-.049c-.088-.038-.178-.046-.272-.065-.244-.052-.487-.132-.73-.196-.15-.04-.289-.04-.444-.042-.12-.002-.23.033-.35.033-.08 0-.149-.014-.23-.025-.082-.015-.165.002-.249-.01-.122-.02-.187-.038-.312.002-.091.031-.165.027-.256.033a1.876 1.876 0 00-.314.059 2.247 2.247 0 01-.565.073c-.114 0-.281-.033-.39.006-.07.025-.105.103-.154.155-.094.1-.21.188-.287.301-.08.111-.167.226-.161.369.006.121.06.266.114.376.053.12.071.226-.047.306a1.85 1.85 0 01-.493.245c-.114.033-.216.054-.312-.03-.035-.03-.057-.092-.1-.115-.045-.025-.092 0-.14.015-.12.036-.239.077-.361.098-.076.013-.14.053-.214.067-.09.017-.153-.05-.245-.027-.128.031-.259.086-.391.092a.568.568 0 01-.295-.088c-.047-.027-.06-.054-.113-.04a.302.302 0 00-.132.101c-.033.046-.043.107-.075.155a3 3 0 00-.096.16c-.055.112-.12.214-.192.313-.05.069-.085.16-.14.226-.029.033-.09.058-.127.083-.1.074-.206.139-.303.216-.188.15-.365.318-.557.464-.146.111-.35.178-.515.247-.104.044-.212.074-.314.12-.033.014-.096.029-.124.054-.037.034-.058.092-.09.138-.09.113-.186.226-.255.358-.043.075-.067.153-.094.236-.036.111-.095.216-.132.327-.075.234-.09.477-.173.71-.05.135-.119.259-.18.382-.104.21-.118.458-.148.69a1.48 1.48 0 00.014.425c.024.143.018.291.016.438-.002.155-.098.305-.193.422-.088.11-.22.149-.316.247-.082.082-.182.178-.216.295-.015.053-.002.111-.01.166-.023.121-.051.236-.07.362a3.71 3.71 0 00-.022.452c0 .077-.004.157-.002.234.004.073.03.142.034.218.004.052-.006.102 0 .155.01.058.033.119.045.175.033.138.06.272.084.41.024.128.071.254.11.377.053.17.09.343.12.517.024.13.024.266.043.4.014.106.039.215.043.322.004.16-.033.322-.035.487-.002.274.106.55.167.816.018.074.037.151.057.224A10.104 10.104 0 01.373 9.923c0-1.957.552-3.782 1.506-5.32a9.945 9.945 0 011.418-1.789C5.037 1.07 7.41 0 10.028 0a9.382 9.382 0 014.233 1.002z" fill="url(#paint1_linear_28_77)"/><path opacity=".4" fill-rule="evenodd" clip-rule="evenodd" d="M2.735 4.359s2.172 1.994 5.04 2.052c2.867.059 3.933-.14 4.886-1.23.954-1.09 1.981-2.938 1.981-2.938s-1.225.605-2.072 1.79c-.846 1.184-4.849 3.2-9.835.326z" fill="#7D72B3"/><g opacity=".7" fill-rule="evenodd" clip-rule="evenodd" fill="#7D72B3"><path opacity=".4" d="M2.906 4.415a5.188 5.188 0 00-.723 1.107c-.17.364-.233.77-.294 1.163-.036.235-.07.47-.102.704-.03.207-.09.426-.053.636.047.284.061.598.194.858.143.278.29.52.479.768.185.24.407.347.707.37.161.012.322-.015.485.008.224.032.45.073.675.11.45.074.957.077 1.283-.302.263-.308.388-.693.555-1.059.18-.391.403-.716.737-.981.245-.195.461-.415.697-.622.108-.094.172-.194.294-.264.118-.069.183-.144.287-.242.094-.088.208-.149.292-.25.132-.16.24-.376.311-.573.076-.205.113-.422.141-.64.029-.211-.033-.425-.098-.626-.122-.382-.44-.625-.742-.862-.37-.295-.809-.424-1.267-.516a3.766 3.766 0 00-1.335-.026c-.442.08-.897.147-1.308.344-.302.144-.483.343-.726.554-.124.109-.273.182-.385.303-.157.164-.302.346-.104.038zm4.378-1.85c.059-.106.128-.261.211-.364.045-.054.102-.096.157-.142.161-.138.339-.257.542-.318a.664.664 0 01.351-.006c.116.029.324.11.412.196.165.161.055.436.006.622-.05.188-.108.368-.271.487a1.04 1.04 0 01-.363.17c-.071.017-.143.012-.216.02-.06.007-.114.024-.173.024-.133 0-.337-.099-.394-.232-.028-.072-.046-.143-.077-.214-.022-.054-.04-.109-.063-.163-.041-.103-.078-.201-.122-.08zM8.88 3.622a1.121 1.121 0 00-.066.337c.049.03.067.092.116.121.047.03.104.017.157.017.096 0 .19.002.206-.121.014-.107-.078-.184-.155-.243-.057-.042-.167-.14-.232-.059l-.027-.052zm1.338 1.611c-.124.092-.26.174-.381.272-.153.124-.271.283-.39.44-.146.194-.32.4-.283.66.037.26.123.474.314.648.224.2.569.198.83.33.222.111.364.341.477.56.169.334.523.392.847.455.21.04.42.071.632.098.285.036.569.092.856.122.526.052 1.056.175 1.586.132a3.034 3.034 0 001.532-.582c.393-.28.746-.77.85-1.254.11-.508-.053-1.075-.294-1.519a11.832 11.832 0 00-1.08-1.634c-.222-.285-.479-.54-.705-.822a5.144 5.144 0 00-.636-.67c-.523-.462-1.175-.845-1.879-.883a1.855 1.855 0 00-.79.126 1.48 1.48 0 00-.544.39c-.416.44-.634 1.001-.816 1.579-.083.263-.159.563-.13.843.01.086.053.153.053.234v.228c0 .044.004.08-.012.118-.023.058-.082.123-.037.13z"/><path opacity=".4" d="M8.003 7.19c-.273.163-.552.29-.752.552-.035.046-.088.099-.07.161.021.07.097.11.156.134.201.086.448.132.666.088.196-.04.45-.176.556-.356.133-.23-.016-.598-.3-.58-.042.003-.075.024-.115.03-.033.004-.07-.002-.104-.002-.039.002-.047.01-.08.023-.03.015-.075.054.043-.05zm-5.586 3.833c-.11.103-.22.182-.285.318-.06.128-.102.251-.13.39-.025.119-.058.248-.03.37.027.109.078.22.115.326.047.14.092.272.122.417.037.18.102.332.18.498.077.163.162.318.256.47.098.158.21.28.336.417.44.47.979.969 1.635 1.055.332.041.676-.044.919-.29.265-.265.434-.65.491-1.024.049-.319.016-.65-.15-.928a4.194 4.194 0 00-.455-.65c-.116-.13-.25-.24-.38-.358-.126-.117-.248-.24-.384-.345-.243-.182-.477-.373-.72-.555-.22-.163-.458-.34-.727-.406-.186-.046-.39-.083-.573-.01-.08.031-.139.058-.18.132-.02.035-.067.098-.069.14-.008.002-.014.004.029.033zm1.726-.45c.008.08.019.16.027.239l.016.077c.016.017.073.023.094.025.08.009.163-.033.226-.083.094-.076.136-.251.049-.341a.275.275 0 00-.259-.078c-.05.01-.265.128-.18.21l.027-.049zm12.922-2.168c.035-.177.037-.29.143-.422.092-.115.194-.222.283-.341.163-.218.263-.473.324-.739.053-.234-.002-.462.1-.688.025-.055.053-.155.108-.182.051-.023.153-.005.2.025.047.029.094.09.135.125.07.065.132.136.195.207.322.36.5.896.497 1.381-.002.285-.03.549-.124.814a1.687 1.687 0 01-.132.306.772.772 0 01-.271.27c-.335.22-.818.138-1.097-.134-.104-.1-.15-.239-.218-.356-.053-.092-.102-.176-.122-.286-.006-.003-.014-.005-.02.02zm0-3.726c.055.192.084.404.276.504a.424.424 0 00.142.046c.05.002.084-.025.122-.054.202-.153.086-.505-.05-.662-.082-.094-.174-.123-.286-.157-.05-.014-.038-.018-.081 0a.145.145 0 00-.072.06.241.241 0 00-.026.106c-.002.037-.014.056-.018.086a.26.26 0 00.02.18l-.027-.11zm-1.52 8.062c-.049.132-.09.27-.144.398-.062.136-.12.274-.178.412-.149.364-.232.743-.328 1.126a8.27 8.27 0 00-.206 1.222c-.02.211-.053.416-.046.63.004.152.004.337.054.483.033.09.115.228.206.268.12.052.271-.05.371-.1.394-.201.728-.505 1.042-.819.307-.307.621-.6.876-.958.116-.163.244-.325.342-.5.082-.147.137-.308.21-.459.07-.14.12-.29.186-.433.08-.173.152-.353.207-.535.107-.352.2-.712.08-1.074a.918.918 0 00-.662-.613c-.17-.038-.357-.088-.53-.075-.171.012-.353.06-.51.127a2.614 2.614 0 00-.401.208c-.072.046-.118.108-.175.171a2.157 2.157 0 00-.26.337c-.036.063-.069.098-.115.15-.062.072-.09.183-.019.034zm-1.518 4.572c-.204.08-.375.155-.548.289-.208.159-.404.322-.553.542-.055.08-.163.218-.081.314.071.081.185.075.283.073.14-.002.281-.03.412-.086.122-.052.23-.121.356-.165.12-.042.284-.123.365-.23.047-.06.074-.145.116-.21a.207.207 0 00.04-.159.431.431 0 00-.111-.232c-.05-.046-.147-.094-.214-.086a.44.44 0 00-.114.032c-.082.038-.147.142.049-.082zm-.257-1.215c-.04-.157-.09-.283-.075-.44.012-.142.01-.264.083-.393.03-.055.12-.226.18-.25a.336.336 0 01.102-.002c.104.015.167.147.187.241.033.149.01.322.012.475 0 .12-.014.228-.059.34-.034.09-.104.087-.193.083-.088-.004-.123-.03-.188-.08-.022-.018-.057-.025-.08-.044-.026-.029-.014-.064.031.07zm-.181-6.265c-.019.11-.025.22-.023.33.04 0 .08.073.13.088.072.019.146-.027.2-.073.123-.1.155-.289.129-.437-.027-.147-.192-.162-.308-.147a.262.262 0 00-.13.052c-.072.065-.078.145-.076.239l.078-.052zm-9.216 6.819c.066-.117.123-.243.208-.347.094-.116.202-.241.31-.341.135-.126.291-.243.436-.358.135-.107.271-.212.416-.304.25-.16.511-.268.79-.368a1.28 1.28 0 01.704-.056c.242.05.479.192.658.366.171.167.352.368.456.588.216.447.133.933-.016 1.39-.065.202-.204.445-.369.577a.817.817 0 01-.322.15c-.13.03-.279.076-.411.095a3.604 3.604 0 01-1.73-.176 7.384 7.384 0 01-.645-.29 1.093 1.093 0 01-.415-.34c-.082-.113-.153-.25-.149-.393.002-.065.022-.124.03-.187.031-.002.054-.02.05-.006zm4.377.266c-.04.108-.067.222-.077.337.039.023.037.09.068.125a.15.15 0 00.118.065c.05.002.114.006.165-.002.08-.013.098-.042.138-.103.047-.067.06-.096.053-.186a.346.346 0 00-.057-.178.67.67 0 00-.095-.106c-.076-.057-.133-.026-.206.02l-.106.028zm9.524-5.156a.892.892 0 01-.22-.253.261.261 0 00-.004-.12c-.014-.102-.033-.184-.012-.286a.57.57 0 01.489-.448c.157-.019.383.11.466.24.088.139.123.325.13.486a.669.669 0 01-.101.404c-.055.077-.165.08-.253.084a.797.797 0 01-.295-.046c-.072-.026-.151-.078-.2-.061z"/></g><path opacity=".4" fill-rule="evenodd" clip-rule="evenodd" d="M1.494 8.847s5.406 2.264 8.339 2.084c2.932-.182 4.182-1.906 5.353-3.482 1.172-1.575 1.61-3.471 1.61-3.471s-2.221 4.402-4.98 5.568l-1.586.328s.826-.634 1.404-1.276c.577-.642 2.8-1.578 3.008-2.331.208-.751.184-1.986.544-2.777.361-.789.72-1.441.72-1.441l-.954-.17-.448 1.082s-.127 1.795-.469 2.77c-.342.973-3.689 3.641-4.443 4.087-.752.446-7.42-.496-8.098-.971zm9.643 9.493c.02-.008.37-.169.471-.163.043.005.088.038.118.057.094.054.153.134.143.245-.014.159-.185.368-.371.437-.23.086-.473-.023-.554-.178-.084-.159.128-.45.358-.454l-.165.057z" fill="#7D72B3"/><path fill-rule="evenodd" clip-rule="evenodd" d="M6.613 8.477c-.126.223-.446.632-.35.952.04.136.136.278.195.408.163.353.493.711.9.454.46-.289.26-.812.066-1.195-.071-.142-.177-.318-.322-.398a1.124 1.124 0 00-.293-.106c-.151-.032-.043-.132-.196-.115z" fill="#FF9F84"/><path fill-rule="evenodd" clip-rule="evenodd" d="M9.703 1.18a1.4 1.4 0 00-.01.345c.036-.008.062.028.1.026.042 0 .101-.03.136-.055.071-.05.108-.155.108-.238 0-.088-.008-.164-.09-.214-.098-.058-.194-.017-.244.08v.056z" fill="#FFEF84"/><path fill-rule="evenodd" clip-rule="evenodd" d="M7.669 11.965c.018-.073.046-.272.104-.36.048-.073.136-.113.214-.14.169-.057.344-.05.478.075.237.22.229.546.002.77-.101.103-.242.205-.39.211-.074.002-.168.013-.231-.025a.381.381 0 01-.161-.213c-.043-.14-.016-.247.059-.37l-.075.052zm-1.775-.105c0 .111-.064.37.091.42.076.026.153-.077.165-.141a.446.446 0 00-.02-.226c-.039-.09-.114-.151-.187-.053h-.05zM1.775 9.93c.012.175.012.432.116.591.041.067.084.136.167.15.072.013.114-.03.155-.085.074-.096.082-.163.078-.285a.847.847 0 00-.084-.324c-.035-.071-.094-.124-.149-.178-.049-.05-.085-.06-.155-.052-.093.01-.087.125-.101.211l-.027-.027zm14.312-.82c.002-.016.023-.31.076-.376.022-.027.073-.046.104-.06a.306.306 0 01.279-.015.413.413 0 01.21.401c-.03.187-.239.314-.412.318-.177.003-.332-.24-.23-.4l-.027.133zM6.16 11.465c.003-.009.01-.155.037-.189.01-.014.037-.023.053-.031.045-.023.094-.03.139-.006a.21.21 0 01.106.2c-.016.095-.118.158-.206.16-.087.002-.167-.12-.116-.2l-.012.066zm4.398 1.81c.002-.009.01-.155.037-.189.01-.014.037-.023.053-.031.045-.023.094-.03.139-.006a.21.21 0 01.106.2c-.017.095-.119.158-.206.16-.088.002-.167-.12-.116-.2l-.013.066zm2.968-7.991c.002-.009.01-.155.036-.189.01-.014.037-.023.053-.031.045-.023.094-.03.139-.006a.21.21 0 01.106.2c-.016.095-.118.157-.206.16-.088.002-.167-.12-.116-.2l-.012.066zM7.475 16.882c.002-.008.01-.155.037-.188.01-.015.037-.023.053-.032.045-.023.094-.029.138-.006a.21.21 0 01.106.201c-.016.094-.118.157-.205.16-.088.001-.167-.12-.117-.2l-.012.065zm7.968-5.287c-.146.094-.236.135-.324.274-.065.102-.136.198-.187.31a.738.738 0 00-.082.322c.02.259.335.03.426-.049.123-.106.237-.25.247-.42a.457.457 0 00-.06-.287c-.028-.056-.054-.056-.02-.15zm3.09 1.135c.012-.114-.045.3-.023.319.037 0 .078.006.112 0 .051-.009.064-.034.104-.065.08-.063.139-.1.143-.213.002-.095-.014-.151-.104-.178-.039-.013-.057-.03-.102-.017-.087.025-.146.1-.181.18l.05-.025z" fill="#FF9F84"/><path fill-rule="evenodd" clip-rule="evenodd" d="M10.328 1.235c.008-.078-.03.202-.014.215.024 0 .053.004.075 0 .035-.004.043-.023.07-.044.055-.044.093-.069.095-.144.002-.063-.01-.103-.069-.122-.026-.008-.039-.018-.07-.01-.058.017-.1.069-.124.123l.037-.018zm5.229 8.089c.009-.077-.03.203-.014.216.025 0 .053.004.076 0 .034-.005.042-.023.069-.044.055-.044.094-.07.096-.145.002-.062-.01-.102-.07-.121-.026-.008-.038-.019-.069-.01-.059.016-.1.069-.124.123l.036-.019zm-5.514 7.717c.075 0-.2-.01-.21.006.002.026.002.055.008.078.008.033.027.042.049.067.047.05.075.088.15.084.062-.005.099-.021.11-.084.007-.027.015-.042.005-.071-.022-.059-.077-.095-.133-.113l.02.033zm-4.39-8.506c.008-.077-.03.203-.014.216.024 0 .053.004.075 0 .035-.004.043-.023.07-.044.055-.044.093-.07.095-.145.002-.062-.01-.102-.069-.121-.026-.008-.039-.019-.07-.01-.058.016-.1.069-.124.123l.037-.019z" fill="#FFEF84"/><path fill-rule="evenodd" clip-rule="evenodd" d="M9.896 16.2c.012-.115-.045.3-.022.318.036 0 .077.006.112 0 .05-.008.063-.034.104-.065.08-.063.138-.1.142-.213.002-.095-.014-.151-.104-.178-.038-.013-.057-.03-.101-.017-.088.025-.147.1-.182.18l.051-.025z" fill="#FF9F84"/><path fill-rule="evenodd" clip-rule="evenodd" d="M4.504 9.671c3.128.509 2.934 1.356 6.564.342 3.63-1.017 6.228-6.623 6.228-6.623s.181-.414.028-.66c-.06-.096-.538.105-.538.105.082 1.8-2.37 5.516-5.14 6.585-.295.115-.594.155-.872.218-.13-.067-.45-.37 1.066-1.427 1.786-1.243 2.586-1.705 2.421-2.997-.165-1.29 1.423-3.337 1.423-3.337s.114-.544-.186-.883C15.113.559 14.261 1 14.261 1s-.22 2.532-3.348 3.899c-3.128 1.368-4.864.688-6.063.313-1.196-.374-1.553-2.408-1.553-2.408s-1.012-.216-1.381.448c-.271.487.122 1.094.122 1.094s1.885.701 3.585 1.37c1.7.67 4.942.07 6.101-.502 1.158-.573 1.158-1.485 2.085-2.318a4.757 4.757 0 011.09-.732s-1.013 1.605-.896 2.735c.116 1.13-.58 1.09-2.279 3.071-1.192 1.392-2.233 1.831-2.749 1.971-1.308.122-2.496-.029-4.125-.483C2.225 8.728.648 7.554.648 7.554S.42 7.443.332 7.7c-.036.11.198.417.198.417s.846 1.046 3.974 1.554z" fill="url(#paint2_linear_28_77)"/><path fill-rule="evenodd" clip-rule="evenodd" d="M6.7 19.171s-.77-.491-1.349-2.019c-.578-1.527-.5-1.427-1.583-2.39C2.686 13.8.807 12.854.807 12.854s-.126.044-.126.084c0 .199.224.222.224.222s1.754.772 2.85 2.015c1.095 1.245 2.28 3.448 1.435 3.318 0 0 .19.553.634.68.447.126.877-.002.877-.002z" fill="url(#paint3_radial_28_77)"/><path d="M14.387 11.787c.36-.393.793-.923 2.55-.933 1.757-.013 2.66.387 2.66.387s.36-.105.399-.588c.039-.477-.316-.72-.316-.72-.018.15-.196 1.143-1.687.555 0-.015.527-.507.642-1.507.116-1.015.468-2.455.468-2.455s.208-.355.074-.642c-.045-.094-.388-.138-.388-.138.296 2.023-.45 4.461-1.261 4.742-.984.012-2.185.188-2.729.556-.668.454-1.339 2.507-1.769 3.95-.108.359-.328.748-.609 1.137-1.076.266-.736-1.059-1.2-1.467-.463-.406-1.351-.188-1.93-.408-.579-.22-.734-.69-1.351-.766-.618-.075-1.592 1.105-2.703.618-1.11-.488-4.83-5.01-4.83-5.01s-.336-.084-.403.155c-.05.182.369.661.369.661s2.586 4.007 5.056 4.528c2.472.521 4.711.034 5.484.722.768.687.827 1.783.827 1.791-.803.875-1.746 1.628-2.192 1.859-.773.4-2.042.671-2.042.671.173.205.521.37.896.473.542.149.889-.132.889-.132s-.314-.28.096-.632c1.043-.891 1.783-1.28 2.865-1.544.656-.159.852.147.945.048v.002c1.01.329 1.808-.447 2.676-1.161.866-.711 1.979-.816 1.979-.816s.577-.1.726-.36c.136-.239-.186-.498-.186-.498s-.491.207-1.416.688c-.928.482-1.92 1.882-3.051 1.838-.624-.023-.493-.672-.552-.764 0-.046.002-.092 0-.138v-.002c-.019-.471-.114-.898-.114-1.239 0-.088.006-.17.022-.245.104-.504.748-2.823 1.106-3.216zm-1.968 4.348a8.932 8.932 0 01-.668.81l.668-.81zm.866.701c.014.109.035.216.018.325-.006.056-.016.102-.069.12-.03.011-.065.016-.096.024-.049.012-.095.031-.144.038-.076.01-.16.002-.235.002-.081 0-.169.008-.25-.002l-.117-.021c-.038-.007-.091-.009-.126-.03-.084-.048-.132-.138-.196-.159.007-.075.002-.142.033-.209l.023-.075c.014-.044.03-.084.048-.126.045-.107.09-.21.155-.303.03-.048.061-.097.09-.147.035-.054.081-.096.126-.142a.936.936 0 01.21-.174c.063-.035.165-.086.237-.058.073.025.103.123.132.19.02.048.026.1.04.153.017.065.046.123.06.19.016.074.016.149.03.222.013.06.02.122.031.182z" fill="url(#paint4_linear_28_77)"/><path fill-rule="evenodd" clip-rule="evenodd" d="M2.29 3.038s.437.919 1.556 1.75c0 0-.371-1.335-.64-1.888.002-.002-.367-.358-.915.138zm5.872 2.804s.762-.316.998-.196c0 0-.73.207-.998.196zm2.548-.722c.136-.046.276-.085.409-.14a3.356 3.356 0 00.748-.437c.032-.027.071-.044.106-.067.038-.027.08-.06.118-.09.035-.027.061-.063.094-.092.032-.03.067-.057.1-.084a2.17 2.17 0 00.17-.148c.027-.026.052-.053.078-.076.019-.017.035-.02.055-.03.008.02-.012.062-.02.078-.016.038-.041.067-.061.103-.045.08-.12.132-.176.203a.579.579 0 01-.136.12 2.61 2.61 0 01-.222.129c-.076.04-.157.065-.23.109-.07.041-.141.075-.213.108-.048.023-.091.057-.138.086l-.116.071a4.708 4.708 0 01-.174.103c-.03.017-.063.031-.095.048a.47.47 0 01-.235.07c-.03 0-.057.001-.083-.011-.012-.007-.037-.013-.037-.028.02-.006.039-.03.057-.025zm2.055-1.358a.327.327 0 00-.093.074c0 .02-.013.046.024.046.039-.003.067-.028.092-.055.012-.015.038-.058.022-.08-.018-.024-.071.011-.085.026l.04-.01zm1.633-2.697c-.029.038-.07.082-.088.13a1.723 1.723 0 00-.039.109c-.026.07-.04.142-.063.213-.039.13-.071.262-.12.39-.023.056-.051.112-.078.167-.014.029-.036.056-.049.088-.012.027-.026.05-.038.075-.01.025-.014.05-.03.073-.02.027-.031.052-.048.082-.012.023-.06.08-.046.11.014.003.03-.02.038-.03.029-.03.06-.053.088-.08.053-.053.102-.111.153-.166.022-.023.036-.052.057-.077.028-.036.063-.065.09-.103.044-.06.093-.119.142-.175.024-.03.043-.063.067-.092.023-.028.047-.05.072-.078.073-.081.148-.161.22-.245.055-.067.11-.14.157-.213.038-.059.07-.117.106-.178.014-.025.044-.084.034-.113-.014-.038-.057-.054-.093-.059a.382.382 0 00-.176 0c-.059.015-.112.038-.167.061-.05.021-.092.059-.139.084-.034.019-.075.035-.05.027zm.502 1.191c-.017.033-.036.09-.06.123-.022.032-.043.06-.061.092l-.096.174c-.059.104-.132.203-.18.316-.018.044-.036.088-.056.132-.023.046-.033.094-.05.142-.015.046-.02.094-.03.142-.008.04-.026.076-.014.115.037-.048.063-.104.098-.155.024-.035.043-.073.075-.102.033-.03.057-.063.088-.094a.63.63 0 00.077-.105c.02-.035.033-.071.055-.104.023-.032.037-.067.057-.099.023-.037.047-.075.061-.12.03-.08.058-.166.078-.248a.362.362 0 00.01-.132c-.01-.035-.059-.125-.053-.077zm-.667 1.358c-.015.052-.035.11-.047.167-.002.015-.008.042.004.05.012.009.04-.004.05-.012.01-.01.017-.025.025-.038.016-.027.035-.067.027-.1-.008-.036-.041-.065-.067-.03l.008-.037zM13.22 6.487c-.108.106-.235.2-.324.328-.008.013-.053.065-.043.086.012.025.063.008.08.002.063-.02.126-.056.185-.088.045-.023.088-.054.13-.081.1-.065.184-.153.26-.245.032-.04.068-.084.085-.132.004-.015.024-.052.02-.07-.016-.054-.143.005-.167.022-.03.019-.055.046-.083.069a.894.894 0 01-.07.052c-.02.015-.038.032-.057.046-.016.017-.03.053-.016.01zm-.493.517a2.683 2.683 0 00-.11.054c0 .017-.047.05-.023.073.012.013.053-.004.065-.008.027-.009.041-.03.062-.048.02-.02.018-.028.006-.053v-.018zm-2.497 2.45a2.023 2.023 0 01-.283.186c-.116.063-.24.111-.355.178-.177.102-.366.182-.552.266-.03.012-.304.123-.2.18.05.027.096.02.147.023.043.002.084.012.126.014.043.002.088 0 .13 0 .225.002.46-.052.665-.146.045-.021.102-.036.143-.065a.733.733 0 00.177-.216.485.485 0 00.063-.246.169.169 0 00-.034-.099c-.015-.023-.037-.03-.027-.075zm-1.596.701c-.05-.025-.105-.065-.16-.067a.264.264 0 00-.058.006c-.042.008-.108.015-.14.046-.05.05.055.09.094.099a.427.427 0 00.163.008c.038-.004.118-.04.118-.09l.01-.002h-.027zm2.961-.635a3.678 3.678 0 00.822-.38c.047-.03.094-.067.14-.094.02-.01.141-.082.157-.048.023.044-.11.134-.128.15-.049.046-.104.08-.159.12-.045.033-.096.05-.145.077a1.697 1.697 0 01-.193.098c-.05.021-.1.048-.153.061-.04.01-.08.027-.12.036-.031.006-.062-.002-.09.006-.037.012-.106.031-.13-.025zm4.549 1.15c.102 0 .222.01.326-.005.076-.01.151-.027.229-.035.15-.015.297-.055.448-.06.059-.003.12 0 .18 0 .032 0 .079-.01.111 0a.191.191 0 01.063.035c.037.04.002.033-.024.048a.525.525 0 01-.159.071c-.094.02-.188.046-.283.06-.066.011-.133-.001-.198.009-.088.015-.173.015-.26.015h-.219c-.055 0-.1-.01-.153-.02-.045-.005-.073.003-.11-.018-.018-.008-.047-.038.05-.1zm2.433.1c.129.013.21.027.326.006l.23-.04a.866.866 0 00.32-.133c.054-.036.158-.11.227-.09a.178.178 0 01.116.14c.006.073-.075.134-.126.176a.581.581 0 01-.324.102 1.34 1.34 0 01-.388-.04c-.038-.008-.077-.02-.118-.029-.034-.012-.106-.002-.263-.092zm.29-4.896c-.008.09-.063.314.047.385.059.037.087-.063.087-.11.002-.066-.04-.238-.116-.257l-.018-.018zM.666 7.922c.092.122.16.247.288.322.073.044.146.097.228.122.077.023.177.05.257.031.042-.01.055.004.053-.052 0-.025-.02-.059-.033-.08-.026-.042-.067-.067-.098-.104-.036-.044-.059-.086-.104-.122a1.45 1.45 0 00-.464-.276c-.066-.02-.07-.03-.127.009-.045.029-.047.016-.053.07-.008.072.043.13.078.187l-.025-.107zm.078 1.955c.15.244.322.468.501.69.128.157.206.356.353.5.024.023.28.251.277.12 0-.03-.074-.147-.09-.174a1.82 1.82 0 00-.143-.212c-.042-.052-.093-.104-.128-.165a.979.979 0 00-.122-.157c-.061-.071-.096-.159-.151-.236-.051-.071-.104-.138-.153-.21-.065-.096-.134-.203-.238-.242-.027-.01-.07-.042-.104-.015-.053.042-.008.184-.002.1zm9.293 4.651c.216-.04.389-.075.603-.023.104.025.208.059.312.09.065.021.165.04.214.09.05.052.032.149-.013.195-.063.064-.201.05-.279.041a2.225 2.225 0 01-.469-.083.9.9 0 01-.283-.132c-.034-.025-.124-.1-.085-.178zm2.961 1.191c-.11-.025-.119-.224-.088-.306.016-.046.045-.119.094-.138.05-.02.067.015.11.03a1.46 1.46 0 01-.167.28l.05.134zm4.067-.079c.143-.097.24-.164.398-.212.08-.025.16-.036.24-.059.094-.029.188-.075.284-.094.034-.006.069-.004.102-.01.038-.007.02-.027.063-.002.081.046.044.106-.009.152a.654.654 0 01-.313.153c-.072.017-.13.059-.2.082-.043.012-.086.02-.128.031a.665.665 0 01-.437-.042zM4.09 15.296c.09.193.167.377.285.55.053.078.094.153.18.19.067.03.114.043.124-.054.004-.05-.035-.119-.061-.167-.075-.138-.183-.26-.273-.387a.772.772 0 00-.13-.153c-.035-.03-.131-.058-.125.021zm3.784 4.229a4.18 4.18 0 00.614-.192c.085-.032.171-.032.257-.05.008-.003.018-.02.03-.022.02-.006.057.003.08.003.022 0 .12-.015.14 0 .08.06-.091.221-.128.261a.728.728 0 01-.585.216c-.106-.01-.202-.07-.304-.082-.065-.008-.21-.031-.203-.128.008-.004.016-.006.1-.006zm3.734-2.247c-.192.134-.404.25-.542.45-.096.136.08.108.157.08a.733.733 0 00.169-.09c.05-.036.077-.072.12-.116.03-.031.07-.056.098-.092.028-.036.039-.11.073-.134a.864.864 0 00-.02-.046l-.055-.052zm-5.252-3.041c.14-.06.28-.113.41-.184.122-.067.238-.136.363-.199.158-.081.33-.194.515-.198.07-.003.116-.036.18-.007.05.023.09.044.122.092.093.139-.092.27-.194.34-.077.054-.149.119-.236.158-.102.044-.212.065-.316.105-.171.065-.353.138-.536.161a.375.375 0 01-.257-.073.356.356 0 01-.102-.098c-.024-.04-.039-.099.051-.097z" fill="#FFFF0E"/></g><defs><linearGradient id="paint1_linear_28_77" x1=".373" y1="7.194" x2="14.261" y2="7.194" gradientUnits="userSpaceOnUse"><stop offset=".011" stop-color="#FF7D85"/><stop offset=".298" stop-color="#FC7B84"/><stop offset=".509" stop-color="#F3757F"/><stop offset=".695" stop-color="#E36B77"/><stop offset=".866" stop-color="#CC5C6C"/><stop offset="1" stop-color="#B54D61"/></linearGradient><linearGradient id="paint2_linear_28_77" x1=".329" y1="5.646" x2="17.386" y2="5.646" gradientUnits="userSpaceOnUse"><stop offset=".006" stop-color="#FFB80B"/><stop offset=".388" stop-color="#FFB60C"/><stop offset=".579" stop-color="#FEAE10"/><stop offset=".727" stop-color="#FCA117"/><stop offset=".854" stop-color="#FA8E21"/><stop offset=".966" stop-color="#F7762E"/><stop offset="1" stop-color="#F66D33"/></linearGradient><linearGradient id="paint4_linear_28_77" x1="0" y1="12.873" x2="19.999" y2="12.873" gradientUnits="userSpaceOnUse"><stop offset=".006" stop-color="#FFB80B"/><stop offset=".388" stop-color="#FFB60C"/><stop offset=".579" stop-color="#FEAE10"/><stop offset=".727" stop-color="#FCA117"/><stop offset=".854" stop-color="#FA8E21"/><stop offset=".966" stop-color="#F7762E"/><stop offset="1" stop-color="#F66D33"/></linearGradient><radialGradient id="paint0_radial_28_77" cx="0" cy="0" r="1" gradientUnits="userSpaceOnUse" gradientTransform="matrix(15.5088 0 0 15.9241 4.048 5.277)"><stop offset=".006" stop-color="#DE6863"/><stop offset=".202" stop-color="#DB6563"/><stop offset=".354" stop-color="#D15D62"/><stop offset=".492" stop-color="#C14F60"/><stop offset=".621" stop-color="#A93B5E"/><stop offset=".744" stop-color="#8B225B"/><stop offset=".861" stop-color="#670357"/><stop offset=".872" stop-color="#630057"/></radialGradient><radialGradient id="paint3_radial_28_77" cx="0" cy="0" r="1" gradientUnits="userSpaceOnUse" gradientTransform="matrix(4.90373 0 0 5.03507 1.826 14.552)"><stop offset=".006" stop-color="#FFB80B"/><stop offset=".388" stop-color="#FFB60C"/><stop offset=".579" stop-color="#FEAE10"/><stop offset=".727" stop-color="#FCA117"/><stop offset=".854" stop-color="#FA8E21"/><stop offset=".966" stop-color="#F7762E"/><stop offset="1" stop-color="#F66D33"/></radialGradient><clipPath id="clip0_28_77"><path fill="#fff" d="M0 0h20v20H0z"/></clipPath></defs></svg>