<svg width="20" height="20" fill="none" xmlns="http://www.w3.org/2000/svg"><path fill-rule="evenodd" clip-rule="evenodd" d="M20 9.744a9.6 9.6 0 01-3.081 7.049 9.643 9.643 0 01-7.095 2.565h-.002a9.615 9.615 0 01-5.686-2.234 9.46 9.46 0 01-1.399-1.441 9.468 9.468 0 01-.846-1.262c-.06-.106-.117-.214-.174-.321 0-.005-.002-.006-.004-.01a7.78 7.78 0 01-.167-.35h-.002a9.205 9.205 0 01-.432-1.138c-.09-.28-.166-.57-.227-.862-.002-.002-.002-.006-.002-.008a9.007 9.007 0 01-.108-.622 9.447 9.447 0 01-.01-2.655 9.565 9.565 0 011.42-3.878A9.625 9.625 0 013.603 2.84 9.642 9.642 0 0110.966.134a9.653 9.653 0 013.536.919l.073.034a9.682 9.682 0 014.37 4.279A9.571 9.571 0 0120 9.744z" fill="url(#paint0_radial_28_272)"/><path opacity=".4" d="M3.106 5.435c-.184.374-.324.679-.361 1.09-.027.298-.078.59-.047.894.03.317.157.593.253.892.114.356.3.691.569.957.463.456 1.115.466 1.664.165.28-.155.514-.36.81-.492.408-.18.79-.352 1.074-.713.308-.395.425-.858.476-1.35.03-.295.07-.57.006-.864a2.437 2.437 0 00-.265-.675 3.803 3.803 0 00-.306-.457c-.163-.207-.34-.278-.571-.384-.143-.065-.255-.138-.418-.144a3.968 3.968 0 00-.561.012c-.212.026-.402.106-.602.173-.192.065-.39.103-.575.18a4.924 4.924 0 01-.56.192c-.25.07-.45.138-.635.323-.045.042-.116.1-.153.148-.077.096-.055.197.202.053zM6.61 9.543c.053-.177.09-.517.26-.647a.722.722 0 01.255-.114c.141-.032.24.013.361.078.306.166.25.636.08.888-.147.215-.514.406-.748.232a.572.572 0 01-.196-.582l.043-.008-.055.153zm5.822 2.927c-.018.188-.074.481-.043.69.029.2.067.399.116.594.09.346.216.748.594.88.334.118.734.004 1.048-.122.336-.136.714-.244 1.016-.445.303-.201.6-.455.826-.738a1.48 1.48 0 00.36-.99c.013-.57-.222-1.075-.515-1.553-.325-.528-.924-.682-1.5-.477-.48.173-.727.689-1.078 1.032-.11.108-.192.228-.308.32-.135.103-.186.21-.27.35-.067.109-.156.176-.207.302-.066.159-.04.348-.04.156zm4.432-.31c.032-.046.259-.54.462-.518.098.01.176.12.223.2.075.127.136.247.037.392-.129.187-.649.323-.682-.012-.014-.005-.028-.007-.04-.01v-.051zM9.004 1.886c.032-.047.259-.54.463-.518.097.01.175.12.222.199.075.128.137.248.037.392-.129.187-.649.326-.682-.012l-.04-.01v-.05zm5.361 7.258c.033-.046.26-.54.463-.518.098.01.176.12.223.2.075.127.136.247.036.391-.128.187-.648.326-.68-.012-.015-.004-.03-.006-.042-.01v-.05zM13.05 6.77c-.116.31-.257.5-.161.793.047.142.067.29.108.435.08.28.298.45.495.648.26.263.492.344.84.177.115-.055.217-.132.319-.205a.9.9 0 00.31-.36c.081-.15.104-.293.165-.45.065-.168.139-.304.145-.49.006-.182.018-.379-.03-.552-.064-.223-.182-.418-.303-.614a1.814 1.814 0 00-.391-.463c-.133-.106-.302-.104-.465-.138-.282-.06-.69.166-.838.398-.213.32-.327.697-.194.821zm-.67 1.848c.027.22.099.423.215.608a.273.273 0 01.139-.051c.002-.065.05-.088.063-.143.014-.06-.004-.144-.002-.207.002-.116-.039-.207-.078-.309-.03-.085-.075-.227-.181-.207-.206.034-.188.201-.155.309zM2.72 14.78c.015.175.007.322.104.47.096.146.217.28.337.406.082.086.232.267.371.19.114-.063.153-.291.14-.407-.01-.094-.042-.195-.066-.287a.926.926 0 00-.133-.296c-.106-.153-.357-.437-.573-.3-.061.04-.124.07-.157.133-.03.059-.023.122-.023.091zm4.85-.77a1.335 1.335 0 01-.073-.278c-.015-.029-.01-.055.016-.075.035-.102.067-.202.12-.295.094-.169.204-.356.376-.458.063-.036.126-.046.197-.065.072-.016.141-.044.213-.056a.922.922 0 01.379.036c.132.035.298.075.418.142.114.065.186.18.257.285.145.22.206.532.004.746-.055.059-.126.103-.194.15-.071.049-.138.11-.214.15-.092.05-.212.06-.312.08a1.247 1.247 0 01-.587-.018c-.202-.061-.349-.2-.6-.344z" fill-rule="evenodd" clip-rule="evenodd" fill="#B9BFE2"/><path fill-rule="evenodd" clip-rule="evenodd" d="M15.954 6.321s-.52.937-.243 2.616c.616 3.732 2.676 3.163 2.543 1.429l-2.3-4.045z" fill="url(#paint1_linear_28_272)"/><path fill-rule="evenodd" clip-rule="evenodd" d="M13.276 15.815c-.175 1.429-1.864 2.398-3.768 2.165-1.905-.234-3.308-1.58-3.133-3.008.176-1.43 1.864-2.399 3.769-2.165 1.905.232 3.308 1.58 3.132 3.008z" fill="url(#paint2_radial_28_272)"/><path fill-rule="evenodd" clip-rule="evenodd" d="M14.575 1.09a.775.775 0 00-.095.012.611.611 0 01-.302-.02c-.078-.023-.133-.054-.214-.068-.119-.018-.227-.069-.343-.083-.124-.016-.23-.065-.349-.108-.091-.032-.14-.022-.23 0-.09.025-.151-.014-.23-.047-.09-.038-.178-.044-.272-.063-.244-.05-.487-.128-.73-.19-.15-.04-.29-.04-.444-.041-.12-.002-.23.032-.351.032-.08 0-.15-.014-.23-.024-.082-.014-.166.002-.25-.01-.122-.019-.187-.037-.312.002-.091.03-.165.026-.256.032-.102.004-.219.033-.319.055a2.294 2.294 0 01-.564.071c-.115 0-.282-.032-.39.006-.071.025-.106.1-.155.15-.094.098-.21.184-.288.293-.08.108-.167.22-.16.358.005.118.06.258.114.366.053.116.07.22-.047.297a1.874 1.874 0 01-.494.238c-.114.032-.216.052-.312-.029-.035-.03-.057-.09-.1-.112-.045-.024-.092 0-.14.015-.12.034-.24.075-.362.095-.075.012-.14.05-.214.065-.09.016-.153-.049-.244-.026-.129.03-.26.083-.392.09a.581.581 0 01-.296-.086c-.047-.027-.059-.053-.112-.039a.302.302 0 00-.132.098c-.033.044-.043.103-.076.15-.032.05-.065.102-.096.157-.055.107-.12.207-.191.302-.051.068-.086.157-.141.22-.029.032-.09.057-.127.081-.1.071-.206.134-.303.21-.188.146-.365.309-.557.45-.147.109-.35.174-.516.24-.104.043-.212.072-.316.117-.033.014-.096.028-.125.052-.036.033-.057.09-.09.135-.09.11-.185.219-.254.347a1.079 1.079 0 00-.094.23c-.037.107-.096.21-.133.317-.075.227-.09.463-.173.689-.049.132-.118.252-.18.372-.103.203-.118.445-.148.67-.017.133-.01.285.014.413.024.138.018.283.016.425-.002.15-.098.297-.193.41-.088.106-.22.145-.317.24-.081.08-.181.173-.216.287-.014.05-.002.108-.01.16-.022.118-.05.23-.07.352a3.499 3.499 0 00-.022.44c0 .074-.004.152-.002.227.004.07.03.138.035.211.004.051-.006.1 0 .15.01.057.033.116.045.171.032.134.059.264.083.399.025.124.072.246.11.366.054.164.09.333.12.502.025.126.025.258.044.388.014.103.038.21.043.313.004.156-.033.313-.035.473-.002.267.106.535.167.793l.057.217A9.665 9.665 0 01.677 9.744c0-1.9.553-3.673 1.507-5.167A9.656 9.656 0 0110.965.134a9.611 9.611 0 013.61.955z" fill="url(#paint3_linear_28_272)"/><path fill-rule="evenodd" clip-rule="evenodd" d="M15.487 6.331c-.314.543-1.425.488-2.482-.12-1.056-.607-1.658-1.54-1.344-2.081.314-.543 1.426-.488 2.482.12 1.056.608 1.658 1.539 1.344 2.081z" fill="url(#paint4_radial_28_272)"/><path fill-rule="evenodd" clip-rule="evenodd" d="M17.637 13.098s-.965.014-1.748.991c-.783.98-.777 1.846-.665 2.137.114.29 2.413-3.128 2.413-3.128z" fill="url(#paint5_radial_28_272)"/><path fill-rule="evenodd" clip-rule="evenodd" d="M16.72 11.106c-1.113.148-2.157-.783-2.332-2.082-.175-1.298.583-2.473 1.697-2.622 1.113-.148 2.157.783 2.333 2.082.175 1.298-.584 2.471-1.697 2.622z" fill="url(#paint6_radial_28_272)"/><path fill-rule="evenodd" clip-rule="evenodd" d="M16.741 16.953s-1.1.266-1.468-.555c-.37-.82 1.034-2.977 2.162-3.26 1.127-.282 1.346 1.039 1.346 1.039l-2.04 2.776z" fill="#004A59"/><path fill-rule="evenodd" clip-rule="evenodd" d="M10.083 1.868s.452 1.516 2.066 2.656c2.604 1.84 3.679 1.177 3.679 1.177l-5.745-3.833z" fill="url(#paint7_radial_28_272)"/><path fill-rule="evenodd" clip-rule="evenodd" d="M13.623 18.66s1.12-.585 1.144-1.382c.023-.796-1.69-1.884-5.033-2.363-3.061-.44-5.402.231-5.557.823-.155.591.644 2.028 2.268 2.748 1.62.72 6.346.581 7.178.174z" fill="#004A59"/><path fill-rule="evenodd" clip-rule="evenodd" d="M8.27 4.642s.68 1.073 1.74 1.167c1.058.093 1.37-.734 1.37-.734s-2.41-.015-3.11-.433z" fill="url(#paint8_radial_28_272)"/><path fill-rule="evenodd" clip-rule="evenodd" d="M7.823 3.793s.37 1.38 1.803 1.746c1.578.402 2.04-.629 1.81-1.192-.227-.563-2.094-1.426-3.613-.554z" fill="#00777A"/><path fill-rule="evenodd" clip-rule="evenodd" d="M4.731 3.331s.994.183 2.458-.683C8.653 1.782 8.349.984 8.349.984L4.731 3.33z" fill="url(#paint9_radial_28_272)"/><path fill-rule="evenodd" clip-rule="evenodd" d="M4.385 2.695s-.373.51.347.636 3.152-1.063 3.603-1.963c.449-.9-1.913-1.405-3.95 1.327z" fill="#00777A"/><path fill-rule="evenodd" clip-rule="evenodd" d="M10.835.825s-.956.165-1.01.66c-.05.497 1.516 2.476 3.22 3.525 1.706 1.049 3.376.695 3.633.437.259-.258-2.227-4.364-5.843-4.622z" fill="#006D7A"/><path fill-rule="evenodd" clip-rule="evenodd" d="M17.524 6.49s-.911-.951-1.635-.596c-.596.295-.339 3.204.28 4.313.617 1.11 1.416 1.01 1.724.764.31-.243.378-3.495-.369-4.481zm-.063-2.142s-.277-.09-.465.178c-.185.267 1.101 2.096 1.644 2.311.54.216.648-.559.648-.559l-1.827-1.93z" fill="#004A59"/><path fill-rule="evenodd" clip-rule="evenodd" d="M10.552 1.455c-.43.728 3.45 4.862 5.796 4.082.463-.155.713-3.19-.85-4.629-1.302-1.195-4.096-.89-4.946.547z" fill="url(#paint10_radial_28_272)"/><path fill-rule="evenodd" clip-rule="evenodd" d="M16.348 6.36c-.702.292-.594 3.388.283 4.286.875.899 2.215-.41 2.343-1.772.131-1.36-1.519-2.978-2.626-2.514z" fill="url(#paint11_radial_28_272)"/><path fill-rule="evenodd" clip-rule="evenodd" d="M17.249 4.7c-.043.627 1.315 1.98 1.733 1.839.418-.143.818-1.139.535-1.84-.284-.701-2.217-.77-2.268 0z" fill="url(#paint12_radial_28_272)"/><path fill-rule="evenodd" clip-rule="evenodd" d="M4.947 15.42c-1.813.466 1.2 4.021 3.775 4.487 3.014.546 5.755-1.482 5.808-2.6.051-1.116-6.183-2.758-9.583-1.886z" fill="url(#paint13_radial_28_272)"/><path fill-rule="evenodd" clip-rule="evenodd" d="M15.556 16.35c-.332-.795 1.585-3.291 2.474-2.996.89.294 1.468 2.36.271 3.207-.713.504-2.396.618-2.745-.211z" fill="url(#paint14_radial_28_272)"/><path fill-rule="evenodd" clip-rule="evenodd" d="M4.768 3.134c.89.193 2.992-1.264 3.375-1.96C8.527.48 6.563-.44 5.24.239c-.936.48-1.258 2.725-.471 2.896z" fill="url(#paint15_radial_28_272)"/><path fill-rule="evenodd" clip-rule="evenodd" d="M8.192 3.152c-.99.458.13 1.752 1.27 2.126 1.14.374 2.146-.306 1.952-1.063-.193-.758-1.468-1.874-3.222-1.063z" fill="url(#paint16_radial_28_272)"/><path fill-rule="evenodd" clip-rule="evenodd" d="M5.68 14.848s3.822-.547 7.564 1.018c0 0-3.522-2.157-7.564-1.018z" fill="url(#paint17_radial_28_272)"/><path fill-rule="evenodd" clip-rule="evenodd" d="M16.998 4.711s.253 1.212 1.256 1.838c0 0-.95-.95-1.256-1.838z" fill="url(#paint18_radial_28_272)"/><path fill-rule="evenodd" clip-rule="evenodd" d="M.677 9.744c.045.488.288-2.159 1.165-2.581.876-.425 3.546 1.48 4.778 2.235 2.843 1.748 6.036-.235 6.825-1.302.79-1.068-.393-2.738-1.064-3.108-.671-.372-1.008 1.27-2.372 1.08-1.364-.194-2.412-1.755-2.52-2.271-.107-.517 1.18-1.26 1.723-1.338.54-.077 1.138-1.587.758-1.94-.379-.354-1.003 1.327-2.48 2.324-1.06.718-2.708 1.354-3.585.061 0-.002-3.597 2.779-3.228 6.84z" fill="url(#paint19_radial_28_272)"/><path fill-rule="evenodd" clip-rule="evenodd" d="M9.604 19.787s2.123-.297 3.197-.791c0 0-2.239 1.252-3.197.79zm6.224-3.389s.854.283 1.988.18c0 0-1.336.511-1.988-.18zm.289-7.38s.697 1.273 1.397 1.596c0-.002-.832.292-1.397-1.596zM12.58 3.793s1.277 1.412 3.309 1.591L12.58 3.793zm-4.19.555s.683.906 1.95.93l-1.95-.93zM4.731 2.955s1.346-.197 2.76-1.195L4.73 2.955z" fill="#FFFF8D"/><path fill-rule="evenodd" clip-rule="evenodd" d="M2.082 8.472s1.489 1.158 2.12 3.96c0 0 .358-2.751-2.12-3.96z" fill="url(#paint20_radial_28_272)"/><path fill-rule="evenodd" clip-rule="evenodd" d="M2.121 14.376s1.213.585 1.852-.028c.638-.614.247-2.692-.63-4.265-.877-1.573-1.952-2.27-2.4-2.04-.313.156-1.952 4.07 1.178 6.333z" fill="#00777A"/><path fill-rule="evenodd" clip-rule="evenodd" d="M1.156 8.433C.355 8.232-.28 10.993.13 12.492c.532 1.947 3.148 2.236 3.701 1.646.553-.59.177-4.988-2.674-5.705z" fill="url(#paint21_radial_28_272)"/><path fill-rule="evenodd" clip-rule="evenodd" d="M1.25 13.667s.947.512 1.648.567c0 0-.918.355-1.648-.567z" fill="#FFFF8D"/><defs><radialGradient id="paint0_radial_28_272" cx="0" cy="0" r="1" gradientUnits="userSpaceOnUse" gradientTransform="matrix(15.5198 0 0 15.4678 4.355 5.24)"><stop offset=".006" stop-color="#0CC463"/><stop offset=".206" stop-color="#0CC163"/><stop offset=".361" stop-color="#0BB765"/><stop offset=".502" stop-color="#09A767"/><stop offset=".633" stop-color="#078F6B"/><stop offset=".758" stop-color="#04726F"/><stop offset=".872" stop-color="#004F74"/></radialGradient><radialGradient id="paint2_radial_28_272" cx="0" cy="0" r="1" gradientUnits="userSpaceOnUse" gradientTransform="matrix(3.4504 .42151 -.31605 2.58714 9.825 15.393)"><stop stop-color="#0F0"/><stop offset="1"/></radialGradient><radialGradient id="paint4_radial_28_272" cx="0" cy="0" r="1" gradientUnits="userSpaceOnUse" gradientTransform="rotate(29.917 -3 28.02) scale(2.20682 1.13376)"><stop stop-color="#0F0"/><stop offset="1"/></radialGradient><radialGradient id="paint5_radial_28_272" cx="0" cy="0" r="1" gradientUnits="userSpaceOnUse" gradientTransform="matrix(1.38719 0 0 1.38254 16.949 14.61)"><stop offset=".011" stop-color="#3BFF24"/><stop offset=".534" stop-color="#26D832"/><stop offset="1" stop-color="#11B140"/></radialGradient><radialGradient id="paint6_radial_28_272" cx="0" cy="0" r="1" gradientUnits="userSpaceOnUse" gradientTransform="matrix(.31788 2.35232 -2.0141 .27217 16.403 8.753)"><stop stop-color="#0F0"/><stop offset="1"/></radialGradient><radialGradient id="paint7_radial_28_272" cx="0" cy="0" r="1" gradientUnits="userSpaceOnUse" gradientTransform="matrix(2.03585 0 0 2.02902 14.225 3.767)"><stop offset=".017" stop-color="#B0FF24"/><stop offset=".286" stop-color="#88F72B"/><stop offset=".887" stop-color="#25E43D"/><stop offset="1" stop-color="#11E040"/></radialGradient><radialGradient id="paint8_radial_28_272" cx="0" cy="0" r="1" gradientUnits="userSpaceOnUse" gradientTransform="matrix(.82825 0 0 .82547 10.512 5.208)"><stop offset=".017" stop-color="#B0FF24"/><stop offset=".286" stop-color="#88F72B"/><stop offset=".887" stop-color="#25E43D"/><stop offset="1" stop-color="#11E040"/></radialGradient><radialGradient id="paint9_radial_28_272" cx="0" cy="0" r="1" gradientUnits="userSpaceOnUse" gradientTransform="matrix(1.24625 0 0 1.24207 7.359 2.12)"><stop offset=".017" stop-color="#B0FF24"/><stop offset=".286" stop-color="#88F72B"/><stop offset=".887" stop-color="#25E43D"/><stop offset="1" stop-color="#11E040"/></radialGradient><radialGradient id="paint10_radial_28_272" cx="0" cy="0" r="1" gradientUnits="userSpaceOnUse" gradientTransform="matrix(2.92122 0 0 2.91142 13.456 4.012)"><stop offset=".011" stop-color="#00FF24"/><stop offset=".186" stop-color="#28FF1E"/><stop offset=".58" stop-color="#8DFF10"/><stop offset="1" stop-color="#FF0"/></radialGradient><radialGradient id="paint11_radial_28_272" cx="0" cy="0" r="1" gradientUnits="userSpaceOnUse" gradientTransform="matrix(1.98334 0 0 1.97669 16.392 9.073)"><stop offset=".011" stop-color="#00FF24"/><stop offset=".186" stop-color="#28FF1E"/><stop offset=".58" stop-color="#8DFF10"/><stop offset="1" stop-color="#FF0"/></radialGradient><radialGradient id="paint12_radial_28_272" cx="0" cy="0" r="1" gradientUnits="userSpaceOnUse" gradientTransform="matrix(1.19353 0 0 1.18953 18.082 5.771)"><stop offset=".011" stop-color="#00FF24"/><stop offset=".186" stop-color="#28FF1E"/><stop offset=".58" stop-color="#8DFF10"/><stop offset="1" stop-color="#FF0"/></radialGradient><radialGradient id="paint13_radial_28_272" cx="0" cy="0" r="1" gradientUnits="userSpaceOnUse" gradientTransform="matrix(4.4343 0 0 4.41944 9.21 18.567)"><stop offset=".011" stop-color="#00FF24"/><stop offset=".186" stop-color="#28FF1E"/><stop offset=".58" stop-color="#8DFF10"/><stop offset="1" stop-color="#FF0"/></radialGradient><radialGradient id="paint14_radial_28_272" cx="0" cy="0" r="1" gradientUnits="userSpaceOnUse" gradientTransform="matrix(1.70046 0 0 1.69476 17.162 15.88)"><stop offset=".011" stop-color="#00FF24"/><stop offset=".186" stop-color="#28FF1E"/><stop offset=".58" stop-color="#8DFF10"/><stop offset="1" stop-color="#FF0"/></radialGradient><radialGradient id="paint15_radial_28_272" cx="0" cy="0" r="1" gradientUnits="userSpaceOnUse" gradientTransform="matrix(1.79998 0 0 1.79394 6.162 2.216)"><stop offset=".011" stop-color="#00FF24"/><stop offset=".186" stop-color="#28FF1E"/><stop offset=".58" stop-color="#8DFF10"/><stop offset="1" stop-color="#FF0"/></radialGradient><radialGradient id="paint16_radial_28_272" cx="0" cy="0" r="1" gradientUnits="userSpaceOnUse" gradientTransform="matrix(1.64672 0 0 1.6412 9.534 4.637)"><stop offset=".011" stop-color="#00FF24"/><stop offset=".186" stop-color="#28FF1E"/><stop offset=".58" stop-color="#8DFF10"/><stop offset="1" stop-color="#FF0"/></radialGradient><radialGradient id="paint17_radial_28_272" cx="0" cy="0" r="1" gradientUnits="userSpaceOnUse" gradientTransform="matrix(3.21075 0 0 3.19998 9.275 15.465)"><stop offset=".011" stop-color="#3BFF24"/><stop offset=".534" stop-color="#26D832"/><stop offset="1" stop-color="#11B140"/></radialGradient><radialGradient id="paint18_radial_28_272" cx="0" cy="0" r="1" gradientUnits="userSpaceOnUse" gradientTransform="matrix(.79533 0 0 .79266 17.904 5.595)"><stop offset=".011" stop-color="#3BFF24"/><stop offset=".534" stop-color="#26D832"/><stop offset="1" stop-color="#11B140"/></radialGradient><radialGradient id="paint19_radial_28_272" cx="0" cy="0" r="1" gradientUnits="userSpaceOnUse" gradientTransform="matrix(10.0782 0 0 10.0444 3.508 4.22)"><stop stop-color="#97FF11"/><stop offset="1"/></radialGradient><radialGradient id="paint20_radial_28_272" cx="0" cy="0" r="1" gradientUnits="userSpaceOnUse" gradientTransform="matrix(1.458 .36673 -.36564 1.4537 3.805 10.553)"><stop offset=".017" stop-color="#B0FF24"/><stop offset=".286" stop-color="#88F72B"/><stop offset=".887" stop-color="#25E43D"/><stop offset="1" stop-color="#11E040"/></radialGradient><radialGradient id="paint21_radial_28_272" cx="0" cy="0" r="1" gradientUnits="userSpaceOnUse" gradientTransform="matrix(2.28985 .57596 -.57425 2.28308 1.778 12.55)"><stop offset=".011" stop-color="#00FF24"/><stop offset=".186" stop-color="#28FF1E"/><stop offset=".58" stop-color="#8DFF10"/><stop offset="1" stop-color="#FF0"/></radialGradient><linearGradient id="paint1_linear_28_272" x1="16.946" y1="11.714" x2="16.946" y2="6.321" gradientUnits="userSpaceOnUse"><stop stop-color="#007C6F"/><stop offset=".665" stop-color="#29D73B"/><stop offset=".989" stop-color="#3BFF24"/></linearGradient><linearGradient id="paint3_linear_28_272" x1=".677" y1="7.102" x2="14.575" y2="7.102" gradientUnits="userSpaceOnUse"><stop offset=".011" stop-color="#92FF2C"/><stop offset=".233" stop-color="#8FFC2D"/><stop offset=".395" stop-color="#86F332"/><stop offset=".538" stop-color="#76E33A"/><stop offset=".671" stop-color="#5FCD44"/><stop offset=".796" stop-color="#42B152"/><stop offset=".914" stop-color="#1F8E63"/><stop offset="1" stop-color="#007072"/></linearGradient></defs></svg>