<svg width="18" height="18" fill="none" xmlns="http://www.w3.org/2000/svg"><path fill-rule="evenodd" clip-rule="evenodd" d="M18 11.054l-.065.237c-.002.011-.006.02-.01.034a9.307 9.307 0 01-2.55 4.19 9.012 9.012 0 01-6.716 2.472h-.002a9 9 0 01-5.193-1.995c.21-.184.655-.202.655-.202l-.618-.5-1.551-.846a9.11 9.11 0 01-.965-1.526c0-.003-.004-.005-.006-.009a14.036 14.036 0 01-.157-.337H.82a9.234 9.234 0 01-.41-1.096 8.852 8.852 0 01-.214-.833c-.002-.001-.002-.005-.002-.007a9.19 9.19 0 01-.101-.6 9.267 9.267 0 01-.06-2.08c.01-.149.027-.298.045-.445 0-.011.002-.02.004-.033.027-.206.06-.407.101-.607.056-.29.127-.575.212-.853a8.61 8.61 0 01.42-1.132c.157-.353.337-.695.538-1.025.624-.335 1.023-.51 1.023-.51s10.647-2.144 10.812-2.328c.163-.182.97-.068.97-.068.5.333.965.714 1.392 1.138.1.097.195.2.293.303.064.07.127.144.189.216a9.235 9.235 0 011.553 2.521l.002.006c.821 3.261-.193 6.027-.193 6.027.225-.077.43-.107.606-.112z" fill="url(#paint0_radial_28_434)"/><path fill-rule="evenodd" clip-rule="evenodd" d="M18 11.054l-.065.237c-.002.011-.006.02-.01.034a9.307 9.307 0 01-2.55 4.19 9.012 9.012 0 01-6.716 2.472h-.002a9 9 0 01-5.193-1.995c.21-.184.655-.202.655-.202l-.618-.5-1.551-.846a9.11 9.11 0 01-.965-1.526c0-.003-.004-.005-.006-.009a14.036 14.036 0 01-.157-.337H.82a9.234 9.234 0 01-.41-1.096 8.852 8.852 0 01-.214-.833c-.002-.001-.002-.005-.002-.007a9.19 9.19 0 01-.101-.6 9.267 9.267 0 01-.06-2.08c.01-.149.027-.298.045-.445 0-.011.002-.02.004-.033.027-.206.06-.407.101-.607.056-.29.127-.575.212-.853a8.61 8.61 0 01.42-1.132c.157-.353.337-.695.538-1.025.624-.335 1.023-.51 1.023-.51s10.647-2.144 10.812-2.328c.163-.182.97-.068.97-.068.5.333.965.714 1.392 1.138.1.097.195.2.293.303.064.07.127.144.189.216a9.235 9.235 0 011.553 2.521l.002.006c.821 3.261-.193 6.027-.193 6.027.225-.077.43-.107.606-.112z" fill="url(#paint1_radial_28_434)"/><path fill-rule="evenodd" clip-rule="evenodd" d="M17.739 8.72c0 .33-.018.654-.055.972a8.42 8.42 0 01-.28 1.443l-.01.031a8.769 8.769 0 01-.667 1.662 8.76 8.76 0 01-1.729 2.275 8.553 8.553 0 01-2.802 1.77 8.442 8.442 0 01-3.508.553h-.002A8.445 8.445 0 014.12 15.79a7.731 7.731 0 01-.618-.5 8.519 8.519 0 01-1.116-1.192 8.593 8.593 0 01-.907-1.434l-.003-.009a7.166 7.166 0 01-.15-.316h-.001a8.44 8.44 0 01-.385-1.031 7.925 7.925 0 01-.2-.78c-.003-.002-.003-.006-.003-.008a8.278 8.278 0 01-.096-.563 8.706 8.706 0 01-.012-2.372 8.304 8.304 0 01.098-.602c.052-.273.12-.54.199-.8a8.713 8.713 0 012.231-3.714A8.497 8.497 0 019.416.003a8.592 8.592 0 011.08.105l.008.001a8.341 8.341 0 012.345.74c.022.011.043.02.065.032a8.613 8.613 0 012.991 2.453c.343.442.644.917.896 1.42a8.715 8.715 0 01.898 3.131c.027.275.04.553.04.834z" fill="url(#paint2_radial_28_434)"/><path fill-rule="evenodd" clip-rule="evenodd" d="M4.95 5.245s-.229.514-.038 1.037c.19.522.722.174 1.358 0 .637-.175 1.29-.854 1.702-1.274.411-.42.807-.994.772-1.553-.034-.558-.615-.924-.615-.924s.21-.273.035.82c-.176 1.094-.42 1.484-.65 1.657-.23.173-.932.589-1.314.82-.383.233-.811.474-1.063.417-.254-.055-.388-.633-.187-1z" fill="url(#paint3_radial_28_434)"/><path fill-rule="evenodd" clip-rule="evenodd" d="M6.114 4.868s-.324.293-.24.53c.086.238.705.085 1.1-.423.395-.508.083-.919.083-.919s-.145.849-.53.998c-.384.15-.509.087-.509.087s-.06-.069.096-.273z" fill="url(#paint4_radial_28_434)"/><path fill-rule="evenodd" clip-rule="evenodd" d="M5.128 5.234s.317-.364.678-.705c.36-.34.985-.473.985-.473s-.365-.195-.83.08c-.467.276-.833 1.098-.833 1.098z" fill="url(#paint5_radial_28_434)"/><path fill-rule="evenodd" clip-rule="evenodd" d="M3.834 5.242s.735-.829 1.63-1.186c.893-.357 1.202-.462 1.597-.793s.842-.596.842-.596-.87.044-2.199.9c-1.327.856-1.873 1.397-1.87 1.675z" fill="url(#paint6_radial_28_434)"/><path fill-rule="evenodd" clip-rule="evenodd" d="M2.042 5.076s1.272-1.29 2.27-1.796c.995-.506 1.666-.838 2.56-1.064a96.556 96.556 0 002.275-.622l.25-.127s-2.84.059-4.707 1.198c-1.866 1.14-2.648 2.411-2.648 2.411z" fill="url(#paint7_radial_28_434)"/><path fill-rule="evenodd" clip-rule="evenodd" d="M3.568 6.565s.212 1.782.517 1.86c.304.082 1.4.073 3.027-.772 1.627-.845 1.957-.65 2.87-1.59.912-.94 1.28-2.008 1.563-2.711.283-.704.364-1.506.277-1.756 0 0 .307.186.307.883 0 .698-.207 1.87-.499 2.547-.292.678-1.048 1.741-1.959 2.266-.91.523-2.731 1.528-4.52 1.513-1.786-.015-1.505-.145-1.688-.506-.184-.363.105-1.734.105-1.734z" fill="url(#paint8_radial_28_434)"/><path opacity=".5" fill-rule="evenodd" clip-rule="evenodd" d="M.782 8.085s.319.718.498 1.375c.18.657.146 1.772.884 1.947.738.175 1.77.663 2.165.541.396-.121 1.854-.388 2.663-.226.809.16 2.285.07 2.8-.191.516-.262 1.626-.934 2.153-1.138.528-.204 1.258-.787 1.885-1.435.628-.648.62-1.386.774-1.75.155-.367.465-1.832.43-2.495-.034-.662-.43-1.9-.43-1.9l-.368-.395s.454 1.703.247 2.905c-.207 1.203-.016 1.691-.842 2.841-.825 1.15-1.975 2.058-3.264 2.494-1.29.437-2.115.383-3.454.51-1.25.118-2.804.028-3.422-.136-.555-.147-1.303-.525-1.87-1.443-.568-.92-.85-1.504-.85-1.504z" fill="#7D72B3"/><path opacity=".4" fill-rule="evenodd" clip-rule="evenodd" d="M3.624 6.202s.118 1.935.361 2.102c.243.166.756.236 1.237.07.48-.165 2.131-.714 2.414-.889C7.92 7.31 9.656 6.431 10 6.17c.343-.261.8-1.192.954-1.384.155-.193.575-1.343.697-1.78.12-.436.207-.958.207-.958s.034-.245-.172-.323c-.207-.079-.24 0-.24 0s-.043.288-.223 1.116c-.18.828-2.612 3.67-3.84 4.412-1.228.741-2.398.767-2.818.714-.425-.056-.949-1.432-.94-1.764z" fill="#7D72B3"/><path opacity=".4" fill-rule="evenodd" clip-rule="evenodd" d="M3.568 6.565s.05-1.206.357-1.609c.306-.404 1.335-1.238 1.944-1.551.608-.315 1.495-.758 1.803-.825.309-.066.526 0 .526 0s-.37-.204-1.22.015c-.851.22-1.812 1.02-2.277 1.268-.464.249-1.186.85-1.356 1.156-.176.302.223 1.546.223 1.546z" fill="#7D72B3"/><path opacity=".4" fill-rule="evenodd" clip-rule="evenodd" d="M1.477 5.295L4.114 2.95l1.632-.749S7.36 1.645 8.1 1.47c.739-.175 2.398-.228 2.398-.228l.87.095S9.853.5 7.62 1.11c-2.237.61-3.72 1.373-4.373 1.999-.653.625-1.64 1.879-1.77 2.186z" fill="#7D72B3"/><path fill-rule="evenodd" clip-rule="evenodd" d="M1.404 5.398S-.013 7.134.674 8.201c.688 1.068.993 2.608 1.19 2.965.2.36 2.48.896 2.953.786.474-.11 1.61-.414 2.353-.121 0 0 1.317-.114 1.694-.114s1.065-.326 1.226-.407c.16-.081 1.054-.372 1.513-.558.459-.186 1.191-.767 1.489-1 .297-.231 1.077-1.174 1.226-1.464.149-.291.595-1.988.711-2.79.116-.803-.225-2.349-.48-2.883-.258-.533-1.065-1.034-1.065-1.034l.047-.241.63-.381s1.098 1.461 1.2 2.724c.06.74.228 2.319.038 2.996-.154.545-.678 2.142-1.137 2.715-.46.57-1.834 2.028-2.567 2.312-.732.281-2.896.662-4.17.69-.94.02-3.007-.151-4.023-.186-1.015-.035-1.743-.681-2.147-1.009-.405-.327-.267-1.22-.678-1.925C.265 8.571.037 7.634.14 7.125c.1-.518 1.264-1.727 1.264-1.727z" fill="url(#paint9_radial_28_434)"/><path fill-rule="evenodd" clip-rule="evenodd" d="M3.89 12.004c-.217-.052-.413-.173-.629-.229-.121-.029-.241-.047-.36-.082a1.671 1.671 0 00-.38-.065c-.25-.009-.51-.068-.67-.283a1.873 1.873 0 01-.293-.624c-.085-.31-.167-.619-.261-.928a3.352 3.352 0 00-.363-.791C.872 8.9.82 8.799.753 8.702.69 8.614.606 8.529.559 8.429l-.002-.001a1.836 1.836 0 01-.154-.823c.003-.151.045-.293.078-.44.043-.186.09-.35.185-.517.087-.153.172-.31.26-.466.193-.346.396-.692.638-1.003A14.1 14.1 0 012.57 4.047a5.63 5.63 0 01.666-.568c.196-.148.377-.31.571-.459.334-.257.715-.425 1.088-.609.452-.22.904-.434 1.373-.61.557-.205 1.13-.37 1.71-.489.663-.136 1.361-.164 2.036-.16.37.002.765-.046 1.12.094.199.08.43.158.605.28.04.027.058.033.083.07.017.022.026.051.035.077a.75.75 0 01.06.24c0 .075-.033.141-.033.22.002.112-.027.214-.03.324-.006.127-.037.226-.055.35-.037.228-.07.447-.156.662-.127.311-.21.639-.35.946-.042.094-.116.166-.158.26-.04.085-.076.154-.123.235-.09.151-.162.308-.264.451-.21.295-.424.61-.701.843a6.3 6.3 0 01-1.087.718c-.25.134-.511.243-.765.372-.227.114-.454.232-.682.34-.588.278-1.212.484-1.829.68-.177.057-.344.117-.527.143-.167.024-.361.08-.53.076a1.88 1.88 0 01-.542-.107c-.294-.1-.323-.424-.345-.692a5.5 5.5 0 00-.076-.598c-.03-.16-.042-.319-.078-.48a2.435 2.435 0 01-.062-.5c-.003-.213.078-.414.125-.622.031-.134.046-.272.1-.4.078-.189.227-.35.374-.485.15-.136.299-.27.448-.409.089-.084.194-.147.288-.224.165-.134.348-.24.537-.337.149-.079.258-.204.395-.296.142-.094.303-.193.454-.27.132-.067.276-.113.413-.168.113-.044.216-.11.33-.15.106-.036.215-.047.318-.091.102-.043.198-.081.303-.109.118-.03.25-.08.37-.083.236-.003.352.116.412.348.083.317-.013.584-.126.876-.09.236-.19.47-.279.709-.118.318-.397.486-.633.703a3.36 3.36 0 01-.86.57c-.096.045-.2.07-.293.11-.082.038-.162.084-.243.128-.053.03-.091.072-.14.105-.044.03-.094.046-.14.075a2.283 2.283 0 01-.343.199c-.116.053-.346.085-.422-.053-.04-.07-.035-.168-.053-.247a1.168 1.168 0 01-.025-.276c0-.098.018-.17.032-.263.015-.09.055-.162.084-.25.087-.25.257-.437.408-.643.094-.13.176-.26.287-.38.163-.178.393-.266.623-.325.207-.051.516-.114.706.008.161.1.049.323-.004.46-.029.075-.06.152-.085.23-.018.057-.025.121-.058.176-.067.114-.2.194-.3.282a.647.647 0 01-.171.112c-.07.022-.144.02-.213.037-.034.007-.052.052-.094.035-.038-.013-.038-.057-.03-.098.006-.036.023-.073.03-.108.002-.007-.007-.02-.005-.03.029-.108.165-.244.226-.336.098.04.031.099.013.143-.013.037-.01.072-.02.11-.007.032-.054.089-.02.122.024.024.103-.018.129-.028.21-.075.346-.309.412-.52.041-.138.034-.378-.116-.438-.113-.045-.249-.02-.367-.022-.426-.008-.678.454-.905.752a2.542 2.542 0 00-.36.672c-.06.166-.086.337-.13.504-.032.124-.072.313.115.287.108-.016.226-.075.33-.11.09-.031.17-.064.255-.11.135-.074.285-.094.425-.157.109-.05.22-.11.328-.164.281-.138.555-.42.751-.662.13-.164.317-.287.466-.436.156-.157.24-.352.347-.543a2.13 2.13 0 00.208-.599c.044-.19.156-.408.098-.607-.061-.206-.323-.21-.491-.18-.14.024-.294.048-.427.101-.246.1-.49.206-.734.307-.387.162-.708.43-1.061.648-.18.11-.374.195-.54.328-.124.097-.242.211-.36.318-.083.078-.154.16-.247.227a1.5 1.5 0 00-.333.301c-.075.098-.16.214-.202.332-.03.094-.001.182.004.278.007.13-.029.252-.034.38-.006.137 0 .277.001.413 0 .267-.04.526-.034.797.004.165.04.34.072.504.026.13.078.243.088.377.003.085.018.201.092.256.036.028.083.035.125.052.038.014.073.027.109.038.02.008.042.011.063.019.017.009.03.033.046.04.043.019.109.008.154-.002.105-.02.209-.046.314-.064.263-.046.53-.04.78-.136.288-.11.557-.269.841-.387.427-.176.884-.305 1.292-.528.183-.101.373-.195.562-.281.448-.205.918-.37 1.311-.678.15-.118.265-.252.394-.39.072-.08.15-.149.216-.236a5.78 5.78 0 00.524-.813c.064-.12.101-.25.167-.37.101-.186.225-.35.32-.541.092-.188.146-.376.208-.574a.996.996 0 00.061-.35 1.66 1.66 0 01.126-.716c.056-.129.136-.32.094-.466-.022-.071-.123-.09-.185-.11-.145-.05-.296-.087-.435-.15-.13-.058-.222-.126-.363-.152a.657.657 0 00-.158-.016c-.136.007-.254.103-.39.097-.045-.002-.076-.016-.123-.026-.071-.013-.147-.003-.216-.005-.156-.006-.307-.035-.465-.033-.185.002-.366.018-.55.03-.173.008-.347-.006-.52 0-.11.003-.18.054-.277.099-.09.04-.189.057-.281.092a.724.724 0 01-.245.066c-.122.002-.243-.017-.361.009a2.69 2.69 0 00-.428.151c-.387.167-.762.377-1.163.506-.194.06-.393.088-.582.166-.07.03-.132.08-.196.123-.127.087-.26.166-.39.249-.292.187-.57.393-.847.603-.326.247-.638.493-.909.806-.471.55-.963 1.106-1.37 1.708-.195.284-.413.59-.55.906l-.01.02a1.103 1.103 0 00-.088.582c.021.162.09.353.154.5.063.148.116.304.197.444.09.153.213.28.278.445a7.905 7.905 0 01.395 1.45c.033.17.06.341.138.496.11.217.347.298.539.425.102.068.172.09.296.095.172.01.335.052.5.102.352.11.704.191 1.074.186.22-.002.428-.063.644-.09.201-.026.403-.047.602-.08.181-.03.36-.08.544-.08.174 0 .374.029.542.077.303.084.599.152.915.14.192-.006.38-.05.571-.063.18-.011.35.017.528.03.315.02.618-.06.912-.157a2.62 2.62 0 00.548-.273c.145-.086.285-.112.444-.154.312-.085.622-.2.905-.363.37-.213.675-.528 1.034-.756.203-.129.432-.214.63-.352.163-.112.317-.243.455-.384.161-.166.314-.339.475-.505.123-.127.172-.285.245-.443.109-.234.147-.475.187-.729.041-.25.15-.471.257-.703.136-.296.252-.574.281-.906.024-.248.057-.498.057-.749 0-.16-.028-.316-.047-.474a5.937 5.937 0 00-.08-.435c-.04-.178-.035-.362-.067-.543-.03-.154-.077-.318-.118-.471a2.515 2.515 0 00-.113-.324 2.19 2.19 0 00-.314-.524c-.054-.065-.123-.085-.185-.131-.047-.037-.058-.068-.112-.096a5.29 5.29 0 01-.227-.12c-.12-.07-.255-.09-.375-.156-.114-.062-.218-.145-.327-.215-.123-.08-.248-.133-.355-.236-.105-.103-.174-.234-.276-.337-.103-.106-.252-.176-.37-.268-.205-.162-.446-.175-.676-.275-.118-.051-.23-.058-.354-.084-.14-.03-.234-.116-.383-.133-.132-.014-.263-.016-.392-.053a1.436 1.436 0 00-.228-.046C9.822.252 9.673.274 9.52.29c-.135.015-.27.007-.405.007-.112 0-.23.011-.343-.007A4.567 4.567 0 007.78.268c-.308.022-.61.044-.901.147-.249.086-.494.16-.737.261-.167.068-.312.162-.468.25-.375.214-.72.475-1.077.718-.399.27-.774.567-1.159.86-.25.191-.504.38-.75.578a7.31 7.31 0 00-.313.269c.24-.313.5-.608.78-.884A8.497 8.497 0 019.416.004a8.592 8.592 0 011.08.105l.008.001c.295.081.59.168.883.258.245.076.492.144.733.228.16.056.315.127.47.192.14.06.293.112.424.187.212.122.41.284.606.431.13.1.252.214.37.33.165.163.313.346.439.54.293.463.527.985.638 1.523.095.453.082.944.064 1.406a4.904 4.904 0 01-.102.76c-.054.267-.147.515-.174.791-.013.135.009.273-.013.405-.018.109-.058.214-.08.322-.045.23-.112.453-.217.665-.142.289-.334.528-.539.777-.23.277-.477.544-.716.817a3.557 3.557 0 01-.842.682c-.241.148-.488.325-.75.428-.248.099-.527.24-.793.27-.204.02-.365.098-.53.223-.1.073-.174.173-.267.252-.083.072-.181.094-.28.129-.238.08-.47.062-.72.062-.353 0-.701.035-1.053.072a3.205 3.205 0 01-.531.022c-.16-.009-.318-.051-.476-.072-.176-.022-.351-.025-.526-.053a1.181 1.181 0 00-.386-.007c-.112.013-.225 0-.337.009-.116.01-.23.037-.347.053-.528.074-1.023.32-1.561.192z" fill="#00C4FF"/><path fill-rule="evenodd" clip-rule="evenodd" d="M3.464 15.992s2.012.359 2.926.331c1.382-.04 2.974.135 4.213.17 1.237.035 3.4-.994 3.795-1.184.395-.188 1.35-.741 2.182-1.678.832-.937 1.16-2.465 1.16-2.465h-.346s-.132.661-.633 1.403c-.301.445-.744.835-1.35 1.365a7.794 7.794 0 01-3.144 1.64c-1.52.385-2.872.278-3.804.42-1.35.204-4.344-.28-4.344-.28l-.655.278z" fill="url(#paint10_radial_28_434)"/><path fill-rule="evenodd" clip-rule="evenodd" d="M2.933 14.982s.321.846.531 1.01c0 0 .443.028.655-.203l-.618-.498-.568-.31z" fill="url(#paint11_radial_28_434)"/><path fill-rule="evenodd" clip-rule="evenodd" d="M17.768 9.587s.216.957.232 1.467c0 0-.335.215-.606.112 0 0 .318-1.17.374-1.579z" fill="url(#paint12_radial_28_434)"/><path fill-rule="evenodd" clip-rule="evenodd" d="M11.945.475s1.794.182 2.213.48c0 0-.297.337-.63.381 0 0-1.454-.817-1.583-.861zM1.353 3.861l.735-.117.288-.393s-.528.236-1.023.51z" fill="#FF61C7"/><path opacity=".5" fill-rule="evenodd" clip-rule="evenodd" d="M1.95 14.444s3.479 1.025 6.194 1.077c2.715.051 3.735-.562 4.908-1.022 1.174-.46 3.102-1.516 3.682-2.297.58-.78 1.032-2.615 1.032-2.615s-.559 2.754-1.041 3.241c-.483.488-2.64 1.962-3.016 2.154-.378.191-1.406.982-3.263.763 0 0-1.25.179-1.702.144-.451-.035-1.153.427-2.441.004 0 0-1.794-.092-2.186-.179-.39-.088-2.167-1.27-2.167-1.27z" fill="#54469B"/><path fill-rule="evenodd" clip-rule="evenodd" d="M2.795 10.74s2.882.505 4.972.29c2.09-.215 3.217-.745 3.814-1.141.595-.396 1.763-1.66 2.2-2.236.437-.576.657-2.016.657-2.016s.078 1.407-.278 2.016c-.355.609-1.581 1.767-2.082 2.103-.5.337-1.933 1.136-2.68 1.274-.75.138-1.983.523-2.88.355-.895-.165-3.064-.138-3.723-.646z" fill="#B04FE2"/><path fill-rule="evenodd" clip-rule="evenodd" d="M6.79 15.423s3.003-.21 4.033-.441c1.03-.232 2.387-.8 3.335-1.153.95-.353 1.665-1.05 2.188-1.439.522-.388 1.192-1.999 1.192-1.999s-.428 1.598-1.085 2.12c-.655.522-2.336 1.477-4.233 2.33-2.11.95-3.75.68-5.43.582z" fill="#8B40E0"/><path fill-rule="evenodd" clip-rule="evenodd" d="M17.25 11.599c.046-.146.097-.29.144-.433a8.769 8.769 0 01-.667 1.662l-.006.006c-.08.079-.177.142-.252.228-.076.087-.143.173-.225.254a8.24 8.24 0 01-1.302 1.038c-.475.315-.95.613-1.471.843a7.887 7.887 0 01-1.23.436 5.174 5.174 0 01-1.052.144c-.178.009-.352.038-.528.055-.22.024-.444.02-.66.059-.373.07-.758.12-1.137.14-.325.018-.648.064-.972.064-.417-.002-.831-.068-1.248-.066-.405.003-.813-.015-1.215-.052-.242-.024-.477-.07-.715-.097-.201-.024-.395-.068-.595-.09a7.728 7.728 0 01-.618-.5c.228.074.455.154.685.227.323.103.686.164 1.023.206.276.035.608.061.88-.009.283-.072.493.02.75.127.12.05.242.074.367.11.176.052.307.041.486.017.158-.02.323-.048.48-.083.135-.03.264-.084.4-.103.236-.03.486-.064.722-.022.272.048.542.076.816.031.285-.047.55-.075.838-.077.098 0 .178.01.272.026.105.018.203-.011.307-.022.188-.02.353-.048.536-.105.167-.053.327-.129.49-.191.32-.122.608-.242.89-.437.238-.162.501-.276.743-.432.23-.151.435-.34.67-.484.25-.153.476-.34.713-.512.151-.109.285-.237.436-.348.13-.095.274-.171.395-.28.209-.18.403-.375.539-.62a3.79 3.79 0 00.31-.71z" fill="#00C4FF"/><path fill-rule="evenodd" clip-rule="evenodd" d="M8.04 6.753s2.074-1.723 2.944-3.401c.002 0-2.416 2.52-2.944 3.4z" fill="#FF77F4"/><path fill-rule="evenodd" clip-rule="evenodd" d="M5.86 8.805s1.31.01 2.759-.604c1.45-.613 2.175-1.877 2.175-1.877s-.98.95-2.048 1.482c-1.066.531-1.875.662-2.886.999zm5.177-2.785s.147-.379.42-1.045a8.375 8.375 0 01.492-1.022s-.087 1.016-.912 2.067z" fill="#EA9CF4"/><path fill-rule="evenodd" clip-rule="evenodd" d="M5.412 12.31s1.821.448 4.192 0c2.37-.45 2.474-.595 3.127-1.116.653-.52 1.117-1.185 1.375-1.436.257-.252.582-1.124.582-1.124s-.671 1.224-1.633 2.04c-.96.818-1.752 1.221-3.366 1.464-1.614.245-3.471.22-4.277.171zm1.597 4.008s1.648.145 2.32.283c.669.14 1.958.135 2.696-.142.739-.276 2.202-1.07 2.202-1.07s-1.365.778-2.992.95c-1.625.176-2.616-.102-4.226-.021zm7.699-1.173s1.046-.714 1.562-1.187c0 0-.55.762-1.562 1.187z" fill="#D374F4"/><path fill-rule="evenodd" clip-rule="evenodd" d="M6.753 6.063S7.948 5.15 8.327 4.49c.38-.66.417-1.036.417-1.036s.169.642-.547 1.457c-.719.816-1.444 1.15-1.444 1.15z" fill="#F2C4F8"/><path opacity=".5" fill-rule="evenodd" clip-rule="evenodd" d="M3.961 5.426c-.096.445-.194.898-.045 1.327.149.429.377.708.595.73.218.024.539-.5.528-.651-.011-.151-.356-.547-.378-.942-.023-.396.401-.978.38-1.199-.026-.219-.92.002-1.08.735z" fill="url(#paint13_linear_28_434)"/><path opacity=".5" fill-rule="evenodd" clip-rule="evenodd" d="M4.157 3.606c-.143-.157-1.11.76-1.78 1.47-.672.709-1.336 1.64-1.394 2.233-.058.592.425 1.489 1.295 2.278.87.79 3.138 1.511 3.682 1.185.544-.325.345-1.336-.1-1.58-.444-.245-1.886.248-2.562-.474-.677-.721-.37-1.69-.287-2.503.103-.995.412-1.836.698-2.092.287-.254.448-.517.448-.517z" fill="url(#paint14_linear_28_434)"/><path fill-rule="evenodd" clip-rule="evenodd" d="M1.195 6.674c-.187.642-.208 1.33.182 1.857.39.528.683.132.821-1.156.138-1.289.058-2.17.058-2.17s-.827.66-1.06 1.469z" fill="#FFFFF8"/><path fill-rule="evenodd" clip-rule="evenodd" d="M1.832 8.908c-.263.248.366.74.468.502.103-.235-.296-.662-.468-.502zm-.698 1.945c-.026.409.205.873.908 1.14.704.266 1.255.195 1.255.195s-.823-.166-1.276-.488c-.454-.322-.887-.847-.887-.847z" fill="#F5CEFA"/><path fill-rule="evenodd" clip-rule="evenodd" d="M4.02 5.49c-.233-.313.07-.738.495-1.001.426-.263.477-.182.386.046-.09.23-.23.714-.43.955-.198.241-.314.184-.452 0zm1.53-.543c-.089-.152.09-.6.334-.557.243.04.183.14.07.301-.085.122-.32.4-.404.256zm1.761.764c-.083-.173.595-.703.688-.648.092.055.032.337-.125.442-.16.105-.534.267-.563.206z" fill="#FFFFF8"/><defs><radialGradient id="paint0_radial_28_434" cx="0" cy="0" r="1" gradientUnits="userSpaceOnUse" gradientTransform="matrix(14.042 0 0 14.2488 3.426 5.466)"><stop offset=".006" stop-color="#FF9AFF"/><stop offset=".093" stop-color="#FB94FF"/><stop offset=".209" stop-color="#F183FF"/><stop offset=".342" stop-color="#E068FF"/><stop offset=".486" stop-color="#C841FF"/><stop offset=".639" stop-color="#A910FF"/><stop offset=".684" stop-color="#9F00FF"/><stop offset=".743" stop-color="#9900F8"/><stop offset=".828" stop-color="#8700E5"/><stop offset=".929" stop-color="#6A00C6"/><stop offset="1" stop-color="#5200AB"/></radialGradient><radialGradient id="paint1_radial_28_434" cx="0" cy="0" r="1" gradientUnits="userSpaceOnUse" gradientTransform="matrix(14.042 0 0 14.2488 3.426 5.466)"><stop offset=".006" stop-color="#FF9AFF"/><stop offset=".093" stop-color="#FB94FF"/><stop offset=".209" stop-color="#F183FF"/><stop offset=".342" stop-color="#E068FF"/><stop offset=".486" stop-color="#C841FF"/><stop offset=".639" stop-color="#A910FF"/><stop offset=".684" stop-color="#9F00FF"/><stop offset=".743" stop-color="#9900F8"/><stop offset=".828" stop-color="#8700E5"/><stop offset=".929" stop-color="#6A00C6"/><stop offset="1" stop-color="#5200AB"/></radialGradient><radialGradient id="paint2_radial_28_434" cx="0" cy="0" r="1" gradientUnits="userSpaceOnUse" gradientTransform="matrix(13.8032 0 0 14.0064 3.824 4.642)"><stop offset=".006" stop-color="#FF9AFF"/><stop offset=".093" stop-color="#FB94FF"/><stop offset=".209" stop-color="#F183FF"/><stop offset=".342" stop-color="#E068FF"/><stop offset=".486" stop-color="#C841FF"/><stop offset=".639" stop-color="#A910FF"/><stop offset=".684" stop-color="#9F00FF"/><stop offset=".743" stop-color="#9900F8"/><stop offset=".828" stop-color="#8700E5"/><stop offset=".929" stop-color="#6A00C6"/><stop offset="1" stop-color="#5200AB"/></radialGradient><radialGradient id="paint3_radial_28_434" cx="0" cy="0" r="1" gradientUnits="userSpaceOnUse" gradientTransform="matrix(3.08645 0 0 3.13189 5.64 3.16)"><stop stop-color="#fff"/><stop offset="1" stop-color="#623964"/></radialGradient><radialGradient id="paint4_radial_28_434" cx="0" cy="0" r="1" gradientUnits="userSpaceOnUse" gradientTransform="matrix(1.07372 0 0 1.08953 6.13 4.292)"><stop stop-color="#fff"/><stop offset="1" stop-color="#623964"/></radialGradient><radialGradient id="paint5_radial_28_434" cx="0" cy="0" r="1" gradientUnits="userSpaceOnUse" gradientTransform="matrix(1.13144 0 0 1.1481 5.47 4.192)"><stop stop-color="#fff"/><stop offset="1" stop-color="#623964"/></radialGradient><radialGradient id="paint6_radial_28_434" cx="0" cy="0" r="1" gradientUnits="userSpaceOnUse" gradientTransform="matrix(2.61357 0 0 2.65206 4.67 3.086)"><stop stop-color="#fff"/><stop offset="1" stop-color="#623964"/></radialGradient><radialGradient id="paint7_radial_28_434" cx="0" cy="0" r="1" gradientUnits="userSpaceOnUse" gradientTransform="matrix(4.4312 0 0 4.49645 3.553 2.055)"><stop stop-color="#fff"/><stop offset="1" stop-color="#623964"/></radialGradient><radialGradient id="paint8_radial_28_434" cx="0" cy="0" r="1" gradientUnits="userSpaceOnUse" gradientTransform="matrix(6.17433 0 0 6.26523 5.195 2.767)"><stop stop-color="#fff"/><stop offset="1" stop-color="#623964"/></radialGradient><radialGradient id="paint9_radial_28_434" cx="0" cy="0" r="1" gradientUnits="userSpaceOnUse" gradientTransform="matrix(10.4312 0 0 10.5848 3.27 2.813)"><stop stop-color="#fff"/><stop offset="1" stop-color="#623964"/></radialGradient><radialGradient id="paint10_radial_28_434" cx="0" cy="0" r="1" gradientUnits="userSpaceOnUse" gradientTransform="matrix(8.22134 0 0 8.34239 6.396 12.032)"><stop stop-color="#FFFF4A"/><stop offset="1" stop-color="#360038"/></radialGradient><radialGradient id="paint11_radial_28_434" cx="0" cy="0" r="1" gradientUnits="userSpaceOnUse" gradientTransform="matrix(.8873 0 0 .90037 3.16 15.25)"><stop stop-color="#6D00C2"/><stop offset=".4" stop-color="#6600BC"/><stop offset=".976" stop-color="#5300AC"/><stop offset="1" stop-color="#5200AB"/></radialGradient><radialGradient id="paint12_radial_28_434" cx="0" cy="0" r="1" gradientUnits="userSpaceOnUse" gradientTransform="matrix(.92679 0 0 .94044 17.51 10.015)"><stop stop-color="#1F0081"/><stop offset=".73" stop-color="#260087"/><stop offset="1" stop-color="#2A008B"/></radialGradient><linearGradient id="paint13_linear_28_434" x1="3.84" y1="6.048" x2="5.04" y2="6.048" gradientUnits="userSpaceOnUse"><stop stop-color="#BDFFE8"/><stop offset=".201" stop-color="#8BBBAA"/><stop offset=".415" stop-color="#5A796E"/><stop offset=".611" stop-color="#33453F"/><stop offset=".779" stop-color="#171F1D"/><stop offset=".915" stop-color="#060808"/><stop offset="1"/></linearGradient><linearGradient id="paint14_linear_28_434" x1=".979" y1="7.221" x2="6.289" y2="7.221" gradientUnits="userSpaceOnUse"><stop stop-color="#BDFFE8"/><stop offset=".201" stop-color="#8BBBAA"/><stop offset=".415" stop-color="#5A796E"/><stop offset=".611" stop-color="#33453F"/><stop offset=".779" stop-color="#171F1D"/><stop offset=".915" stop-color="#060808"/><stop offset="1"/></linearGradient></defs></svg>