<svg width="24" height="24" fill="none" xmlns="http://www.w3.org/2000/svg"><g clip-path="url(#clip0_18_7689)"><path d="M11.943 0C5.383 0 0 5.383 0 11.943c0 5.598 3.928 10.683 9.144 11.943v-3.951a2.92 2.92 0 01-1.519-.039c-.705-.208-1.279-.678-1.705-1.395-.271-.458-.752-.954-1.254-.918l-.123-1.394c1.085-.093 2.024.66 2.58 1.597.248.416.533.66.899.768.353.104.732.054 1.175-.102.11-.885.516-1.217.822-1.683-3.11-.465-4.35-2.115-4.842-3.418-.652-1.73-.302-3.89.85-5.256.023-.026.064-.096.048-.144-.529-1.597.115-2.918.14-3.058.61.18.708-.182 2.65.997l.335.202c.14.083.096.036.236.025.81-.22 1.665-.342 2.507-.353.848.011 1.697.133 2.54.362l.11.011c-.01-.001.029-.007.094-.046 2.425-1.469 2.338-.989 2.988-1.2.024.14.66 1.483.136 3.06-.07.217 2.102 2.206.898 5.4-.492 1.303-1.732 2.953-4.842 3.417v.001c.398.608.878.931.875 2.185v4.932c5.216-1.26 9.144-6.345 9.144-11.943C23.886 5.383 18.503 0 11.943 0z" fill="#DECFE5"/></g><defs><clipPath id="clip0_18_7689"><path fill="#fff" d="M0 0h23.886v23.886H0z"/></clipPath></defs></svg>