<svg width="24" height="24" fill="none" xmlns="http://www.w3.org/2000/svg"><g clip-path="url(#clip0_18_7691)"><path d="M23.886 4.537a10.21 10.21 0 01-2.822.773 4.87 4.87 0 002.155-2.706 9.786 9.786 0 01-3.105 1.185 4.895 4.895 0 00-8.47 3.349c-.001.388.032.76.112 1.116-4.07-.198-7.673-2.15-10.093-5.122a4.93 4.93 0 00-.67 2.475c0 1.696.873 3.2 2.175 4.07a4.836 4.836 0 01-2.213-.603v.053A4.92 4.92 0 004.88 13.94a4.89 4.89 0 01-1.284.161 4.37 4.37 0 01-.927-.083c.634 1.939 2.435 3.364 4.575 3.41a9.84 9.84 0 01-6.071 2.09c-.402 0-.787-.019-1.172-.068a13.786 13.786 0 007.512 2.198c9.011 0 13.938-7.465 13.938-13.935 0-.216-.008-.425-.018-.633a9.77 9.77 0 002.454-2.542z" fill="#DECFE5"/></g><defs><clipPath id="clip0_18_7691"><path fill="#fff" d="M0 0h23.886v23.886H0z"/></clipPath></defs></svg>