<svg width="24" height="24" fill="none" xmlns="http://www.w3.org/2000/svg"><g clip-path="url(#clip0_18_7697)"><path d="M7.996 21.324c0 .695-.521.982-1.098.695L.67 18.906a1.131 1.131 0 01-.475-.447A1.182 1.182 0 010 17.837V2.61c0-.568.341-.825 1.112-.44l6.844 3.42c.099.098.026-.582.04 15.734zm.857-14.32l7.152 11.568-7.152-3.553V7.004zM24 7.245v14.08a.77.77 0 01-.188.54.653.653 0 01-.509.207c-.214 0-.424-.058-.629-.174l-5.906-2.939L24 7.245zm-.04-1.603c0 .027-1.145 1.895-3.435 5.603-2.29 3.708-3.632 5.88-4.025 6.512l-5.223-8.469 4.339-7.039c.236-.388.72-.456 1.045-.294l7.246 3.607c.035.017.053.044.053.08z" fill="#DED0E6"/></g><defs><clipPath id="clip0_18_7697"><path fill="#fff" d="M0 0h24v24H0z"/></clipPath></defs></svg>