<svg width="37" height="37" fill="none" xmlns="http://www.w3.org/2000/svg"><rect x="1" y="1" width="35" height="35" rx="17.5" fill="#262123" stroke="#E7210C" stroke-width="2"/><g clip-path="url(#clip0_83_1365)"><path fill-rule="evenodd" clip-rule="evenodd" d="M28.682 18.914c0 .952-.13 1.875-.377 2.746a9.935 9.935 0 01-2.702 4.511 9.597 9.597 0 01-3.149 2.013 9.388 9.388 0 01-3.941.628h-.002a9.808 9.808 0 01-.75-.07 9.473 9.473 0 01-4.932-2.23 9.616 9.616 0 01-1.398-1.483 9.784 9.784 0 01-.846-1.3c-.059-.109-.116-.22-.173-.33 0-.005-.002-.007-.004-.011a8.127 8.127 0 01-.167-.36h-.002a9.661 9.661 0 01-.432-1.172 9.09 9.09 0 01-.226-.887c-.002-.002-.002-.006-.002-.008a9.536 9.536 0 01-.108-.64 10.015 10.015 0 01-.01-2.733 9.916 9.916 0 011.418-3.993 9.855 9.855 0 011.418-1.789C14.036 10.069 16.41 9 19.027 9c.101 0 .203.002.303.004a9.383 9.383 0 012.843.536c.2.069.395.146.589.23.145.063.285.128.426.197l.073.035a9.682 9.682 0 013.035 2.388 9.751 9.751 0 011.333 2.017 10.134 10.134 0 011.054 4.507z" fill="url(#paint0_radial_83_1365)"/><path opacity=".4" fill-rule="evenodd" clip-rule="evenodd" d="M9.373 18.914s2.276 4.147 4.477 4.792c2.201.644 4.714.234 5.574.563.858.328 1.326 1.676 1.326 1.676l.32.188s.734-1.17 1.184-.479c0 0-.179-.98.361-2.174.54-1.193.9-2.476 1.571-2.886.669-.41 1.894-.6 2.866-.205.97.396 1.473.32 1.473.32l.074-.468.073-.415s-.93.151-1.677-.339c0 0 .101.185.68-.926.58-1.112.512-2.112.512-2.112l-.084-.923s-.312 3.2-1.624 4.129c0 0-2.93-.624-4.17 2.927 0 0-.212 2.375-1.438 2.308-1.227-.067-.803-1.62-2.58-1.634-1.777-.017-2.853.735-4.612-.295-1.759-1.032-4.306-4.047-4.306-4.047zm9.14 9.898s1.218-1.867 2.557-1.856c1.34.01 1.957.508 3.012-.124 1.056-.632 1.494-1.027 1.981-1.366.487-.34.569-.446.569-.446l.22-.297s-.74-.368-1.392.174c-.652.542-1.832 1.768-2.768 1.762-.935-.007-.89-.56-1.942-.126-1.051.433-3.264 1.967-3.264 1.967s.4.3 1.027.312zm-8.61-6.65l.116.326s1.883 1.067 3.07 2.553c1.189 1.486 1.4 2.492 1.4 2.492s.213-.885-.812-2.549c-1.023-1.667-3.228-2.58-3.774-2.822z" fill="#7D72B3"/><path fill-rule="evenodd" clip-rule="evenodd" d="M23.261 10.002c-.032.005-.063.007-.096.015a.593.593 0 01-.301-.021c-.078-.023-.133-.054-.214-.069-.118-.019-.226-.071-.343-.086-.124-.017-.23-.067-.348-.11-.092-.034-.14-.024-.23 0s-.151-.015-.23-.049c-.088-.038-.178-.046-.272-.065-.244-.052-.487-.132-.73-.196-.15-.04-.289-.04-.444-.042-.12-.002-.23.033-.35.033-.08 0-.149-.014-.23-.025-.082-.015-.165.002-.249-.01-.122-.02-.187-.038-.312.002-.091.031-.165.027-.256.033a1.875 1.875 0 00-.314.059c-.182.044-.38.077-.565.073-.114 0-.281-.033-.39.006-.07.025-.105.103-.154.155-.094.1-.21.188-.287.302-.08.11-.167.226-.161.368.006.121.06.265.114.376.053.12.071.226-.047.306-.149.1-.322.194-.493.245-.114.033-.216.054-.312-.03-.035-.03-.057-.092-.1-.115-.045-.025-.092 0-.14.015-.12.036-.239.077-.361.098-.076.013-.14.053-.214.067-.09.017-.153-.05-.245-.027-.128.031-.258.086-.391.092a.569.569 0 01-.296-.088c-.046-.027-.059-.054-.112-.04a.302.302 0 00-.132.101c-.033.046-.043.107-.075.155-.033.052-.066.104-.096.16-.055.112-.12.214-.192.313-.05.069-.085.16-.14.226-.029.033-.09.058-.127.083-.1.074-.206.139-.303.216-.188.15-.365.318-.557.464-.147.111-.35.178-.515.247-.104.044-.212.074-.314.12-.033.014-.096.029-.124.054-.037.034-.057.092-.09.138-.09.113-.186.226-.255.358-.043.075-.067.153-.094.236-.036.111-.095.216-.132.327-.075.234-.09.477-.173.71-.05.135-.118.259-.18.382-.104.21-.118.458-.148.69-.017.137-.01.294.014.425.024.143.018.291.016.438-.002.155-.098.305-.193.422-.088.11-.22.149-.316.247-.082.082-.182.178-.216.295-.015.053-.002.111-.01.166-.023.121-.051.236-.07.362a3.71 3.71 0 00-.022.452c0 .077-.004.157-.002.234.004.073.03.142.034.218.004.052-.006.102 0 .154.01.06.033.12.045.176.033.138.06.272.084.41.024.128.071.254.11.377.053.17.09.343.12.517.024.13.024.266.043.4.014.106.039.215.043.322.004.16-.033.322-.035.487-.002.274.106.55.167.816.018.074.037.151.057.224a10.104 10.104 0 01-1.037-4.473c0-1.957.552-3.781 1.506-5.32a9.943 9.943 0 011.418-1.789C14.037 10.07 16.41 9 19.03 9a9.382 9.382 0 014.233 1.002z" fill="url(#paint1_linear_83_1365)"/><path opacity=".4" fill-rule="evenodd" clip-rule="evenodd" d="M11.735 13.359s2.172 1.994 5.04 2.052c2.867.059 3.933-.14 4.886-1.23.954-1.09 1.981-2.938 1.981-2.938s-1.225.605-2.072 1.79c-.846 1.184-4.849 3.2-9.835.326z" fill="#7D72B3"/><g opacity=".7" fill-rule="evenodd" clip-rule="evenodd" fill="#7D72B3"><path opacity=".4" d="M11.906 13.415a5.185 5.185 0 00-.723 1.107c-.17.364-.233.77-.294 1.164-.037.234-.07.468-.102.703-.03.207-.09.427-.053.636.047.284.062.598.194.858.143.278.29.52.479.768.185.24.407.347.707.37.161.013.322-.015.485.008.224.032.45.074.675.11.45.075.957.077 1.283-.302.263-.308.388-.693.555-1.059.18-.391.403-.715.738-.981.244-.195.46-.415.696-.622.108-.094.172-.194.294-.263.118-.07.183-.145.287-.243.094-.088.208-.149.292-.25a2.02 2.02 0 00.311-.572c.076-.205.113-.423.141-.64.029-.212-.032-.426-.098-.626-.122-.383-.44-.626-.742-.862-.37-.296-.809-.425-1.267-.517a3.767 3.767 0 00-1.335-.025c-.442.079-.897.146-1.308.343-.302.144-.483.343-.726.554-.124.109-.273.182-.385.304-.157.163-.302.345-.104.037zm4.378-1.849c.059-.107.128-.262.211-.365.045-.054.102-.096.157-.142.161-.138.339-.257.543-.318a.665.665 0 01.35-.006c.116.03.324.11.412.197.165.16.055.435.006.621-.05.188-.108.368-.271.488-.108.077-.235.14-.363.17-.071.016-.143.012-.216.02-.06.006-.114.023-.173.023-.133 0-.337-.098-.394-.232-.028-.071-.046-.143-.077-.214-.023-.054-.04-.108-.063-.163-.041-.102-.078-.2-.122-.08zm1.596 1.056a1.12 1.12 0 00-.066.337c.049.03.067.092.116.121.047.03.104.017.157.017.096 0 .19.002.206-.121.014-.107-.078-.184-.155-.243-.057-.042-.167-.14-.232-.059l-.027-.052zm1.338 1.611c-.124.092-.26.174-.381.272-.153.124-.271.283-.39.44-.146.194-.32.4-.282.661.036.26.122.473.313.647.224.2.569.198.83.33.222.111.364.341.477.561.169.333.523.391.847.454.21.04.42.071.632.099.285.035.569.091.856.12.526.053 1.056.177 1.586.133a3.034 3.034 0 001.532-.582c.393-.28.746-.77.85-1.253.11-.509-.053-1.076-.294-1.52a11.83 11.83 0 00-1.08-1.634c-.222-.284-.479-.54-.705-.822a5.14 5.14 0 00-.636-.67c-.523-.462-1.175-.845-1.879-.883a1.855 1.855 0 00-.79.126 1.47 1.47 0 00-.544.391c-.416.44-.634 1-.816 1.578-.083.263-.159.563-.13.843.01.086.053.153.053.234v.229c0 .043.004.079-.012.117-.023.058-.082.123-.037.13z"/><path opacity=".4" d="M17.003 16.19c-.273.163-.552.29-.752.552-.035.046-.088.099-.07.161.021.07.096.11.156.134.201.086.448.132.666.088.196-.04.45-.175.556-.355.133-.23-.016-.599-.3-.58-.042.002-.075.023-.115.03-.033.003-.07-.003-.104-.003-.039.002-.047.01-.08.023-.03.015-.075.055.043-.05zm-5.586 3.833c-.11.103-.22.182-.285.318-.06.128-.102.251-.13.39-.025.119-.058.248-.03.37.027.109.078.22.115.326.047.14.091.272.122.417.037.18.102.332.18.498.077.163.163.318.256.47.098.157.21.28.337.417.44.47.978.969 1.634 1.055.332.041.677-.044.919-.29.265-.265.434-.65.491-1.024.049-.319.016-.65-.15-.927a4.197 4.197 0 00-.455-.651c-.116-.13-.25-.24-.38-.358-.126-.117-.248-.24-.384-.345-.243-.182-.477-.373-.72-.555-.22-.163-.458-.34-.727-.406-.186-.046-.39-.084-.573-.01-.08.031-.139.058-.18.132-.02.035-.067.098-.069.14-.008.002-.014.004.029.033zm1.726-.45c.008.08.019.16.027.239l.016.077c.016.017.073.023.094.026.08.008.163-.034.226-.084.094-.076.136-.251.049-.341a.276.276 0 00-.259-.078c-.05.01-.265.128-.18.21l.027-.049zm12.922-2.167c.035-.178.037-.291.143-.423.092-.115.194-.222.283-.341.163-.218.263-.473.324-.739.053-.234-.002-.462.1-.688.025-.055.053-.155.108-.182.051-.023.153-.004.2.025.047.03.094.09.135.125.07.065.132.136.195.208.322.36.5.895.497 1.38-.002.285-.03.549-.124.815a1.682 1.682 0 01-.132.305.771.771 0 01-.271.27c-.335.22-.818.138-1.097-.134-.104-.1-.15-.239-.218-.356-.053-.092-.102-.175-.122-.286-.006-.002-.014-.005-.02.02zm0-3.727c.055.192.084.404.276.504a.422.422 0 00.142.046c.05.002.084-.025.122-.054.202-.153.086-.505-.05-.662-.082-.094-.174-.123-.286-.156-.05-.015-.038-.02-.081 0a.145.145 0 00-.072.058.241.241 0 00-.026.107c-.002.038-.014.056-.018.086a.26.26 0 00.02.18l-.027-.11zm-1.52 8.062c-.049.132-.09.27-.144.398-.062.136-.12.274-.178.412-.148.364-.232.743-.328 1.126a8.27 8.27 0 00-.206 1.222c-.02.211-.053.416-.047.63.005.152.005.337.056.483.032.09.114.228.205.268.12.052.271-.05.371-.1.393-.201.728-.505 1.042-.819.307-.307.621-.6.876-.958.116-.163.244-.324.342-.5.082-.147.137-.308.21-.458.07-.14.12-.291.186-.434.08-.173.152-.353.207-.535.107-.352.2-.712.08-1.074a.918.918 0 00-.662-.613c-.17-.038-.357-.088-.53-.075-.171.012-.353.06-.51.128a2.623 2.623 0 00-.401.207c-.072.046-.118.108-.175.171a2.148 2.148 0 00-.26.337c-.036.063-.069.099-.115.15-.061.072-.09.183-.019.034zm-1.518 4.572c-.204.08-.375.155-.548.289-.208.159-.404.322-.553.542-.055.08-.163.218-.081.314.071.081.185.075.283.073.14-.002.281-.03.412-.086.122-.052.23-.121.356-.165.12-.042.284-.123.365-.23.047-.06.074-.145.116-.21a.206.206 0 00.04-.159.432.432 0 00-.11-.232c-.052-.046-.148-.094-.215-.086a.44.44 0 00-.114.032c-.082.038-.147.142.049-.082zm-.257-1.215c-.04-.157-.09-.283-.075-.44.012-.142.01-.264.083-.393.03-.055.12-.226.18-.25a.336.336 0 01.102-.001c.104.014.167.146.187.24.033.149.01.322.012.475 0 .12-.014.228-.059.34-.034.09-.104.087-.193.083-.088-.004-.123-.03-.188-.08-.022-.018-.057-.025-.08-.043-.026-.03-.014-.065.031.069zm-.181-6.265c-.018.11-.025.22-.022.33.038 0 .079.073.13.088.071.019.145-.027.2-.073.122-.1.155-.289.128-.438-.026-.146-.192-.16-.308-.146a.262.262 0 00-.13.052c-.072.065-.078.145-.075.239l.077-.052zm-9.216 6.819c.066-.117.123-.243.208-.347.094-.115.202-.24.31-.341.135-.126.291-.243.436-.358.135-.107.271-.212.416-.304.25-.16.511-.267.79-.368a1.28 1.28 0 01.704-.056c.242.05.479.192.658.366.171.167.352.368.456.588.216.448.133.933-.016 1.39-.065.202-.204.445-.369.577a.817.817 0 01-.322.15c-.13.03-.279.076-.411.095a3.604 3.604 0 01-1.73-.176 7.42 7.42 0 01-.645-.289 1.094 1.094 0 01-.415-.341c-.082-.113-.153-.249-.149-.393.002-.065.022-.124.03-.187.031-.002.053-.02.05-.006zm4.377.266c-.04.109-.067.222-.077.337.039.023.037.09.068.125a.15.15 0 00.118.065c.05.002.114.006.165-.002.08-.013.098-.042.138-.103.047-.066.06-.096.053-.186a.346.346 0 00-.057-.178.667.667 0 00-.096-.106c-.075-.057-.132-.025-.205.02l-.106.028zm9.524-5.156a.892.892 0 01-.22-.253.261.261 0 00-.004-.12c-.014-.102-.033-.184-.012-.286a.57.57 0 01.489-.448c.157-.019.383.11.466.24.088.139.123.325.13.486a.669.669 0 01-.101.404c-.055.077-.165.08-.253.084a.797.797 0 01-.295-.046c-.072-.026-.151-.078-.2-.061z"/></g><path opacity=".4" fill-rule="evenodd" clip-rule="evenodd" d="M10.494 17.847s5.406 2.264 8.339 2.084c2.932-.182 4.182-1.906 5.353-3.482 1.172-1.575 1.61-3.471 1.61-3.471s-2.221 4.403-4.98 5.568l-1.586.329s.826-.634 1.404-1.277c.577-.642 2.8-1.578 3.008-2.33.208-.752.184-1.987.544-2.778.361-.789.72-1.441.72-1.441l-.954-.17-.448 1.082s-.127 1.795-.469 2.77c-.342.973-3.689 3.641-4.443 4.087-.752.446-7.42-.496-8.098-.97zm9.643 9.493c.02-.008.37-.169.471-.163.043.005.088.038.118.057.094.054.153.134.143.245-.014.159-.186.368-.371.437-.23.086-.473-.023-.554-.178-.084-.159.128-.45.358-.454l-.165.057z" fill="#7D72B3"/><path fill-rule="evenodd" clip-rule="evenodd" d="M15.613 17.477c-.126.224-.446.632-.35.952.04.136.136.278.195.408.163.354.493.711.9.454.46-.289.26-.812.066-1.195-.071-.142-.177-.318-.322-.398a1.125 1.125 0 00-.293-.106c-.151-.032-.043-.132-.196-.115z" fill="#FF9F84"/><path fill-rule="evenodd" clip-rule="evenodd" d="M18.703 10.18c-.019.115-.02.23-.01.345.036-.008.063.028.1.026.042 0 .101-.03.136-.055.071-.05.108-.155.108-.238 0-.088-.008-.163-.09-.214-.098-.058-.194-.017-.244.08v.056z" fill="#FFEF84"/><path fill-rule="evenodd" clip-rule="evenodd" d="M16.669 20.965c.018-.073.046-.272.104-.36.048-.073.136-.113.213-.14.17-.057.345-.05.48.075.236.22.228.546.001.77-.101.103-.242.205-.39.212-.074.002-.168.012-.231-.026a.38.38 0 01-.161-.213c-.043-.14-.016-.247.059-.37l-.075.052zm-1.775-.105c0 .111-.063.37.091.42.076.026.153-.077.165-.141a.446.446 0 00-.02-.226c-.039-.09-.114-.151-.187-.053h-.05zm-4.119-1.929c.012.174.012.431.116.59.041.067.084.136.167.15.072.013.114-.03.155-.085.074-.096.082-.163.078-.284a.845.845 0 00-.084-.325c-.035-.071-.094-.123-.149-.178-.049-.05-.085-.06-.155-.052-.093.01-.087.125-.101.211l-.027-.027zm14.312-.821c.002-.016.023-.309.076-.376.022-.027.073-.046.104-.06a.306.306 0 01.279-.015.413.413 0 01.21.402c-.03.186-.239.313-.412.318-.177.002-.332-.241-.23-.4l-.027.132zm-9.927 2.355c.003-.009.01-.155.037-.189.01-.014.037-.023.053-.03.045-.024.094-.03.139-.007a.21.21 0 01.106.2c-.016.095-.118.158-.206.16-.088.002-.167-.12-.116-.2l-.012.066zm4.398 1.81c.003-.008.01-.155.037-.188.01-.015.037-.023.053-.032.045-.023.094-.03.139-.006a.21.21 0 01.106.2c-.017.095-.119.158-.206.16-.088.002-.167-.12-.116-.199l-.013.065zm2.968-7.991c.002-.009.01-.155.036-.189.01-.014.037-.023.053-.031.045-.023.094-.03.139-.006a.21.21 0 01.106.2c-.017.095-.118.158-.206.16-.088.002-.167-.12-.116-.2l-.012.066zm-6.051 11.598c.002-.008.01-.155.037-.188.01-.015.037-.023.053-.031.045-.023.094-.03.138-.007a.21.21 0 01.106.201c-.016.094-.118.157-.205.16-.088.001-.168-.12-.117-.2l-.012.065zm7.968-5.287c-.146.094-.236.136-.324.274-.065.102-.136.198-.187.31a.74.74 0 00-.082.322c.02.259.334.03.426-.049.122-.106.237-.25.247-.42a.457.457 0 00-.06-.287c-.028-.056-.054-.056-.02-.15zm3.09 1.135c.012-.114-.045.3-.023.319.037 0 .078.006.112 0 .051-.008.064-.034.104-.065.08-.063.139-.1.143-.213.002-.095-.014-.151-.104-.178-.039-.013-.057-.03-.102-.017-.087.025-.146.1-.181.18l.05-.025z" fill="#FF9F84"/><path fill-rule="evenodd" clip-rule="evenodd" d="M19.328 10.235c.008-.078-.03.203-.014.215.024 0 .053.004.075 0 .035-.004.043-.023.07-.044.055-.044.093-.069.095-.144.002-.063-.01-.103-.069-.122-.026-.008-.039-.018-.07-.01-.058.017-.1.07-.124.123l.037-.018zm5.23 8.089c.008-.077-.031.203-.015.216.025 0 .053.004.076 0 .034-.004.042-.023.069-.044.055-.044.094-.07.096-.144.002-.063-.01-.103-.07-.122-.026-.008-.038-.019-.069-.01-.059.016-.1.069-.124.123l.037-.019zm-5.515 7.717c.075 0-.2-.01-.21.007.002.025.002.054.008.077.008.034.026.042.049.067.047.05.075.088.15.084.062-.005.099-.021.11-.084.007-.027.015-.042.005-.071-.023-.059-.078-.094-.133-.113l.02.033zm-4.39-8.506c.008-.077-.03.203-.014.216.024 0 .053.004.075 0 .035-.004.043-.023.07-.044.054-.044.093-.069.095-.144.002-.063-.01-.103-.069-.122-.027-.008-.039-.019-.07-.01-.058.017-.1.069-.124.123l.037-.019z" fill="#FFEF84"/><path fill-rule="evenodd" clip-rule="evenodd" d="M18.896 25.2c.012-.115-.045.3-.022.318.036 0 .077.006.112 0 .05-.008.063-.033.104-.065.08-.063.138-.1.142-.213.002-.094-.014-.15-.104-.178-.038-.013-.057-.03-.102-.017-.087.025-.146.1-.18.18l.05-.025z" fill="#FF9F84"/><path fill-rule="evenodd" clip-rule="evenodd" d="M13.504 18.672c3.128.508 2.934 1.356 6.564.34s6.228-6.622 6.228-6.622.181-.414.028-.66c-.06-.095-.538.105-.538.105.082 1.8-2.37 5.516-5.14 6.585-.295.116-.594.155-.872.218-.13-.067-.45-.37 1.066-1.427 1.785-1.243 2.586-1.705 2.421-2.996-.165-1.291 1.423-3.338 1.423-3.338s.114-.544-.186-.883c-.385-.435-1.237.006-1.237.006s-.22 2.532-3.348 3.899c-3.128 1.368-4.864.688-6.063.314-1.196-.375-1.553-2.409-1.553-2.409s-1.013-.216-1.381.448c-.271.487.122 1.094.122 1.094s1.885.701 3.585 1.37c1.7.67 4.942.07 6.101-.501 1.158-.574 1.158-1.486 2.085-2.319a4.757 4.757 0 011.09-.732s-1.013 1.605-.896 2.735c.116 1.13-.58 1.09-2.279 3.071-1.192 1.392-2.233 1.831-2.749 1.972-1.308.12-2.496-.03-4.125-.484-2.625-.73-4.202-1.904-4.202-1.904s-.228-.11-.316.147c-.036.108.198.416.198.416s.846 1.046 3.974 1.555z" fill="url(#paint2_linear_83_1365)"/><path fill-rule="evenodd" clip-rule="evenodd" d="M15.7 28.172s-.77-.492-1.349-2.02c-.578-1.527-.5-1.427-1.583-2.39-1.082-.962-2.961-1.908-2.961-1.908s-.126.044-.126.084c0 .199.224.222.224.222s1.754.772 2.85 2.015c1.095 1.245 2.28 3.448 1.435 3.319 0 0 .19.552.634.68.447.125.877-.002.877-.002z" fill="url(#paint3_radial_83_1365)"/><path d="M23.387 20.787c.36-.393.793-.923 2.55-.933 1.757-.013 2.66.387 2.66.387s.36-.105.399-.588c.039-.477-.316-.72-.316-.72-.018.15-.196 1.142-1.687.554 0-.014.527-.506.642-1.506.116-1.015.468-2.455.468-2.455s.208-.355.074-.642c-.045-.094-.388-.138-.388-.138.296 2.023-.45 4.461-1.261 4.741-.984.013-2.185.189-2.729.557-.668.454-1.339 2.507-1.769 3.95-.108.358-.328.748-.61 1.137-1.075.266-.735-1.059-1.2-1.467-.462-.406-1.35-.188-1.93-.408-.578-.22-.733-.69-1.35-.766-.618-.075-1.592 1.105-2.703.617-1.11-.487-4.83-5.009-4.83-5.009s-.336-.084-.403.155c-.051.182.369.661.369.661s2.586 4.007 5.056 4.528c2.472.521 4.711.034 5.484.722.768.686.827 1.783.827 1.791-.803.875-1.746 1.628-2.192 1.858-.773.4-2.042.672-2.042.672.173.205.521.37.896.473.542.149.889-.132.889-.132s-.314-.28.096-.632c1.043-.891 1.783-1.28 2.865-1.544.656-.159.852.147.945.048v.002c1.01.329 1.808-.448 2.676-1.161.866-.712 1.979-.816 1.979-.816s.577-.1.725-.36c.137-.239-.185-.498-.185-.498s-.491.207-1.416.688c-.928.482-1.92 1.881-3.051 1.837-.624-.023-.493-.671-.552-.763 0-.046.002-.092 0-.138v-.002c-.019-.471-.114-.898-.114-1.24 0-.087.006-.169.022-.244.104-.504.748-2.823 1.107-3.216zm-1.968 4.348a8.917 8.917 0 01-.669.81l.669-.81zm.866.701c.014.109.035.216.018.324-.006.057-.016.103-.069.122-.03.01-.065.014-.096.023-.049.012-.096.031-.144.037-.076.01-.16.003-.235.003-.081 0-.169.008-.25-.003l-.117-.02c-.038-.007-.091-.009-.126-.03-.083-.048-.132-.138-.196-.159.006-.075.003-.142.033-.21a1.323 1.323 0 01.071-.2c.045-.107.09-.21.155-.303.03-.049.061-.097.09-.147.034-.054.081-.096.126-.142a.934.934 0 01.21-.174c.063-.035.165-.086.237-.058.073.025.104.123.132.19.02.048.027.1.04.153.017.065.046.123.06.19.016.073.016.149.03.222.013.06.02.121.031.182z" fill="url(#paint4_linear_83_1365)"/><path fill-rule="evenodd" clip-rule="evenodd" d="M11.29 12.038s.437.919 1.556 1.75c0 0-.371-1.335-.64-1.888.002-.002-.367-.358-.915.138zm5.872 2.804s.762-.316.998-.196c0 0-.73.207-.998.196zm2.548-.722c.136-.046.276-.085.409-.14a3.348 3.348 0 00.748-.437c.032-.027.071-.044.106-.067.038-.027.08-.06.118-.09.034-.027.061-.063.094-.092.032-.03.067-.057.1-.084a2.3 2.3 0 00.17-.148c.027-.025.052-.053.078-.076.018-.016.035-.02.055-.029.008.019-.012.06-.02.077-.017.038-.041.067-.061.103-.045.08-.12.132-.176.203a.58.58 0 01-.136.12 2.61 2.61 0 01-.222.129c-.076.04-.157.065-.23.109-.07.042-.141.075-.212.109-.05.023-.092.056-.14.085l-.115.072a4.182 4.182 0 01-.174.102c-.03.017-.063.031-.095.048a.47.47 0 01-.235.07c-.03 0-.057.001-.083-.011-.012-.007-.037-.013-.037-.027.02-.007.039-.032.057-.026zm2.055-1.358a.327.327 0 00-.093.074c0 .02-.013.046.024.046.039-.002.067-.027.092-.055.012-.014.038-.058.022-.08-.018-.024-.071.011-.085.026l.04-.01zm1.633-2.697c-.029.038-.07.082-.088.13a1.74 1.74 0 00-.039.109c-.026.07-.04.142-.063.213-.039.13-.071.262-.12.39-.023.056-.051.112-.078.167-.014.029-.036.056-.049.088-.012.027-.026.05-.038.075-.01.025-.014.05-.03.073-.02.027-.031.052-.048.082-.012.023-.06.08-.046.11.014.003.03-.02.038-.03.029-.03.06-.053.088-.08.053-.053.102-.111.153-.166.022-.023.036-.052.057-.077.028-.036.063-.065.09-.102.044-.061.093-.12.142-.176.024-.03.043-.063.067-.092.023-.028.047-.05.072-.078.073-.081.148-.16.22-.245.055-.067.11-.14.157-.213.038-.059.07-.117.106-.178.014-.025.044-.084.034-.113-.014-.038-.057-.054-.093-.058a.382.382 0 00-.176 0c-.059.014-.112.037-.167.06-.05.021-.092.059-.139.084-.034.019-.075.035-.05.027zm.502 1.191c-.017.033-.035.09-.06.123-.022.032-.043.06-.061.092l-.096.174c-.059.105-.132.203-.18.316a3.827 3.827 0 01-.056.132c-.023.046-.033.094-.05.142-.015.046-.02.094-.03.142-.008.04-.026.076-.014.115.037-.048.063-.104.098-.154.024-.036.043-.074.075-.103.033-.03.057-.063.088-.094.028-.034.057-.067.077-.105.02-.035.033-.07.055-.104.023-.032.037-.067.057-.099.023-.037.047-.075.061-.119a2.38 2.38 0 00.078-.249.37.37 0 00.01-.132c-.01-.035-.059-.125-.053-.077zm-.667 1.358c-.015.052-.035.11-.047.167-.002.015-.008.042.004.05.012.009.04-.004.05-.012.011-.01.017-.025.025-.038.017-.027.035-.067.027-.1-.008-.036-.041-.065-.068-.03l.009-.037zm-1.013 2.873c-.108.107-.235.2-.324.328-.008.013-.053.065-.043.086.012.025.063.008.08.002.063-.02.126-.056.185-.088.045-.023.088-.054.13-.081.1-.065.184-.153.26-.245.032-.04.068-.084.085-.132.004-.015.024-.052.02-.069-.016-.054-.142.004-.167.02-.03.02-.055.047-.084.07a.871.871 0 01-.069.052l-.057.046c-.016.017-.03.053-.016.01zm-.493.517a2.549 2.549 0 00-.11.054c0 .017-.047.05-.023.073.012.013.053-.004.065-.008.027-.008.041-.03.062-.048.02-.019.018-.027.006-.052v-.02zm-2.497 2.45a2.024 2.024 0 01-.283.186c-.116.063-.24.111-.355.178-.177.102-.366.182-.552.266-.03.012-.304.123-.2.18.05.027.096.02.147.023.043.002.084.012.126.014.043.002.088 0 .13 0 .225.002.46-.052.665-.146.045-.021.102-.036.143-.065a.733.733 0 00.177-.216.484.484 0 00.063-.246.169.169 0 00-.034-.099c-.015-.023-.037-.03-.027-.075zm-1.596.701c-.05-.025-.105-.065-.16-.067a.264.264 0 00-.058.006c-.042.008-.108.015-.14.046-.05.05.055.09.094.099a.427.427 0 00.163.008c.038-.004.118-.04.118-.09l.01-.002h-.027zm2.962-.635a3.684 3.684 0 00.82-.38c.048-.03.095-.067.141-.094.02-.01.141-.082.157-.048.023.044-.11.134-.128.15-.049.046-.104.08-.159.12-.045.033-.096.05-.145.077-.063.038-.126.07-.193.098-.05.021-.1.048-.153.061-.04.01-.08.027-.12.036-.031.006-.061-.002-.09.006-.037.012-.106.031-.13-.025zm4.548 1.15c.102 0 .222.01.326-.005.076-.01.151-.027.229-.035.15-.015.297-.055.448-.06.059-.003.12 0 .18 0 .032 0 .079-.01.111 0a.191.191 0 01.063.035c.037.04.002.033-.024.048a.525.525 0 01-.159.071c-.094.02-.188.046-.283.06-.066.011-.133-.001-.198.009-.088.015-.173.015-.26.015h-.219c-.055 0-.1-.01-.153-.02-.045-.005-.073.003-.11-.018-.018-.008-.047-.038.05-.1zm2.433.1c.129.012.21.027.326.006l.23-.04a.866.866 0 00.32-.134c.054-.035.158-.108.227-.09.053.015.112.082.116.14.006.074-.075.135-.126.176a.567.567 0 01-.324.103 1.343 1.343 0 01-.388-.04c-.038-.008-.077-.02-.118-.029-.034-.012-.106-.002-.263-.092zm.29-4.897c-.008.09-.063.314.047.386.059.037.087-.063.087-.11.002-.066-.04-.238-.116-.257l-.018-.018zM9.666 16.922c.092.122.16.247.288.322.073.044.146.097.228.122.077.023.177.05.257.031.042-.01.055.004.053-.052 0-.025-.02-.059-.033-.08-.027-.041-.067-.067-.098-.104-.037-.044-.059-.086-.104-.122a1.449 1.449 0 00-.464-.276c-.066-.02-.07-.03-.127.008-.045.03-.047.017-.053.072-.008.07.043.13.078.186l-.025-.107zm.078 1.955c.15.245.322.468.501.69.128.157.206.356.353.5.024.023.28.251.277.12 0-.03-.074-.147-.09-.174a1.812 1.812 0 00-.143-.212c-.042-.052-.093-.104-.128-.165a.98.98 0 00-.122-.157c-.061-.07-.096-.159-.151-.236-.051-.071-.104-.138-.153-.21-.065-.096-.134-.202-.238-.242-.027-.01-.07-.042-.104-.015-.053.042-.008.184-.002.1zm9.293 4.651c.216-.04.389-.075.603-.023.104.025.208.059.312.09.065.021.165.04.214.09.05.053.032.149-.013.195-.063.065-.201.05-.279.042a2.22 2.22 0 01-.468-.084.9.9 0 01-.284-.132c-.034-.025-.124-.1-.085-.178zm2.961 1.191c-.11-.025-.119-.224-.088-.306.016-.046.045-.119.094-.138.05-.02.067.015.11.03a1.46 1.46 0 01-.167.28l.05.134zm4.067-.079c.143-.097.24-.164.398-.212.08-.025.16-.036.24-.059.094-.029.188-.075.284-.094.034-.006.069-.004.102-.01.038-.007.02-.028.063-.003.081.047.044.107-.009.153a.653.653 0 01-.313.153c-.072.017-.13.059-.2.082-.043.012-.086.02-.128.031a.665.665 0 01-.437-.042zm-12.975-.344c.09.192.167.377.285.55.053.078.094.153.18.19.067.03.114.043.124-.054.004-.05-.035-.119-.061-.167-.075-.138-.184-.26-.273-.387a.777.777 0 00-.13-.153c-.035-.03-.131-.059-.125.021zm3.784 4.229c.218-.046.406-.115.614-.193.085-.031.171-.031.257-.05.008-.002.018-.019.03-.02.02-.007.057.001.08.001.022 0 .12-.014.14 0 .08.061-.091.222-.128.262a.727.727 0 01-.585.215c-.106-.01-.202-.069-.304-.081-.065-.008-.21-.032-.204-.128.009-.004.017-.006.1-.006zm3.734-2.247c-.192.134-.404.25-.542.45-.096.135.08.108.157.079a.733.733 0 00.169-.09c.05-.036.077-.071.12-.115.03-.032.07-.057.098-.092.028-.036.039-.111.073-.134a.863.863 0 00-.02-.046l-.055-.052zm-5.252-3.041c.14-.06.28-.113.41-.184.122-.067.238-.136.362-.198.16-.082.33-.195.516-.2.07-.001.116-.035.18-.006.05.023.09.044.122.092.093.139-.092.27-.194.34-.077.054-.149.119-.236.159-.102.043-.212.064-.316.104-.171.065-.353.138-.536.161a.375.375 0 01-.257-.073.357.357 0 01-.102-.098c-.024-.04-.038-.099.051-.097z" fill="#FFFF0E"/></g><defs><linearGradient id="paint1_linear_83_1365" x1="9.373" y1="16.194" x2="23.261" y2="16.194" gradientUnits="userSpaceOnUse"><stop offset=".011" stop-color="#FF7D85"/><stop offset=".298" stop-color="#FC7B84"/><stop offset=".509" stop-color="#F3757F"/><stop offset=".695" stop-color="#E36B77"/><stop offset=".866" stop-color="#CC5C6C"/><stop offset="1" stop-color="#B54D61"/></linearGradient><linearGradient id="paint2_linear_83_1365" x1="9.329" y1="14.646" x2="26.386" y2="14.646" gradientUnits="userSpaceOnUse"><stop offset=".006" stop-color="#FFB80B"/><stop offset=".388" stop-color="#FFB60C"/><stop offset=".579" stop-color="#FEAE10"/><stop offset=".727" stop-color="#FCA117"/><stop offset=".854" stop-color="#FA8E21"/><stop offset=".966" stop-color="#F7762E"/><stop offset="1" stop-color="#F66D33"/></linearGradient><linearGradient id="paint4_linear_83_1365" x1="9" y1="21.873" x2="28.999" y2="21.873" gradientUnits="userSpaceOnUse"><stop offset=".006" stop-color="#FFB80B"/><stop offset=".388" stop-color="#FFB60C"/><stop offset=".579" stop-color="#FEAE10"/><stop offset=".727" stop-color="#FCA117"/><stop offset=".854" stop-color="#FA8E21"/><stop offset=".966" stop-color="#F7762E"/><stop offset="1" stop-color="#F66D33"/></linearGradient><radialGradient id="paint0_radial_83_1365" cx="0" cy="0" r="1" gradientUnits="userSpaceOnUse" gradientTransform="matrix(15.5088 0 0 15.9241 13.048 14.277)"><stop offset=".006" stop-color="#DE6863"/><stop offset=".202" stop-color="#DB6563"/><stop offset=".354" stop-color="#D15D62"/><stop offset=".492" stop-color="#C14F60"/><stop offset=".621" stop-color="#A93B5E"/><stop offset=".744" stop-color="#8B225B"/><stop offset=".861" stop-color="#670357"/><stop offset=".872" stop-color="#630057"/></radialGradient><radialGradient id="paint3_radial_83_1365" cx="0" cy="0" r="1" gradientUnits="userSpaceOnUse" gradientTransform="matrix(4.90373 0 0 5.03507 10.826 23.552)"><stop offset=".006" stop-color="#FFB80B"/><stop offset=".388" stop-color="#FFB60C"/><stop offset=".579" stop-color="#FEAE10"/><stop offset=".727" stop-color="#FCA117"/><stop offset=".854" stop-color="#FA8E21"/><stop offset=".966" stop-color="#F7762E"/><stop offset="1" stop-color="#F66D33"/></radialGradient><clipPath id="clip0_83_1365"><path fill="#fff" transform="translate(9 9)" d="M0 0h20v20H0z"/></clipPath></defs></svg>