<svg width="17" height="17" fill="none" xmlns="http://www.w3.org/2000/svg"><path d="M9.276.594l7.164 8.284-8.42 7.825-7.74-8.3L9.276.593z" fill="#006DED"/><path fill-rule="evenodd" clip-rule="evenodd" d="M9.276.594L.28 8.402l7.74 8.3 8.42-7.824L9.276.594zm-.02.282L.568 8.417l7.463 8.004 8.132-7.558L9.256.876z" fill="#000"/><path fill-rule="evenodd" clip-rule="evenodd" d="M7.738 9.49l-.114-.04.038-5.093 1.05.175L8.648 9l2.764 1.558-.687.768-3.082-1.697.096-.138z" fill="#006DED"/><path fill-rule="evenodd" clip-rule="evenodd" d="M7.642 9.629l.096-.138-.114-.04.038-5.094 1.05.175L8.648 9l2.764 1.558-.687.768-3.082-1.697zm3.04 1.445l.414-.464-2.651-1.494L8.51 4.7l-.65-.108-.035 4.716.228.08-.12.172 2.748 1.513z" fill="#000"/></svg>